<?xml version="1.0" standalone="no"?>
<!DOCTYPE svg PUBLIC "-//W3C//DTD SVG 1.1//EN" "http://www.w3.org/Graphics/SVG/1.1/DTD/svg11.dtd" >
<svg>
<metadata>
Created by FontForge 20090914 at Fri Feb 24 05:26:51 2012
 By root
(C)2006 JOHAN WIDEGREN. ALL RIGHT RESERVED.
</metadata>
<defs>
<font id="aaaiight!" horiz-adv-x="750" >
  <font-face 
    font-family="aaaiight!"
    font-weight="400"
    font-stretch="normal"
    units-per-em="1024"
    panose-1="2 12 5 3 0 0 0 2 0 3"
    ascent="819"
    descent="-205"
    x-height="610"
    cap-height="785"
    bbox="-126 -393 1294 1008"
    underline-thickness="0"
    underline-position="0"
    unicode-range="U+0020-U+2122"
  />
<missing-glyph horiz-adv-x="297" 
 />
    <glyph glyph-name=".notdef" horiz-adv-x="297" 
 />
    <glyph glyph-name="A" unicode="A" horiz-adv-x="677" 
d="M179 129q3 -3 8 -3q8 0 17 7t19 11q27 10 58.5 41.5t59 69t46 74t18.5 57.5q0 9 -5 16q0 13 2 22t2 21q-8 5 -18.5 6.5t-23.5 1.5q-28 0 -60.5 -6.5t-65 -18.5t-62.5 -29.5t-53.5 -39t-37.5 -47.5t-14 -54q0 -61 110 -129zM608 491q9 -46 17 -92.5t17.5 -92t22.5 -90.5
t31 -87q1 -2 1 -6q0 -9 -13 -21q-15 -16 -26.5 -26.5t-21 -16.5t-17.5 -8.5t-17 -2.5v-17h-11v-10q-17 4 -24.5 9t-20.5 7v11q-6 15 -9 28.5t-5 25.5l-4 24t-6 24q-3 4 -5.5 13l-5.5 19.5t-7.5 21t-10.5 18.5l1 4l-4 4q-3 0 -15.5 -11.5t-27 -27.5t-26.5 -31.5t-15 -22.5h-6
q-32 -39 -67.5 -70t-73.5 -52.5t-76 -32.5t-74 -11q-63 0 -114 38.5t-76 123.5q-14 47 -14 80q0 29 13 60t39 69q36 52 98.5 93.5t133.5 72t141.5 50t123.5 26.5q2 10 3.5 15.5t18.5 5.5q24 0 32.5 -4.5t10.5 -4.5q1 0 4 5q31 -3 56 -14t47 -19q-2 -8 -2 -12q0 -12 6 -21
q-6 -4 -10 -8q1 -5 1.5 -9t0.5 -7q-4 -4 -14 -20z" />
    <glyph glyph-name="B" unicode="B" horiz-adv-x="700" 
d="M288 27q1 1 1 2q0 2 -13 13l-30.5 26.5t-34.5 34t-25 34.5q-6 -7 -9.5 -10t-8 -5t-12 -5t-22.5 -10q0 -12 -9 -12q-3 0 -7.5 1.5t-8.5 1.5q-13 0 -19 -28q-9 0 -17.5 -0.5t-16.5 -1.5q1 7 1.5 14.5t0.5 15.5q0 26 -7 59.5t-17.5 71.5t-23.5 79t-24 82q-4 12 -8.5 36
t-9.5 53.5l-10 62t-10 61.5l-9.5 53t-8.5 36t-8.5 32t-8.5 41t-6.5 39t-2.5 24t2 6t5.5 -6.5t6.5 -6.5q1 0 8 4t17 20q10 15 16 17l-6 6q7 13 18 18.5t23.5 7.5t26 1.5t27.5 -0.5q5 -18 8 -27.5t5.5 -14t4 -5t3.5 -0.5v17h6q3 -18 4 -27.5t1.5 -15t2 -8.5t6.5 -9
q6 -8 10 -20.5t6.5 -26l5 -27t5.5 -22.5q1 -3 3.5 -20.5l6 -43l8 -57l9.5 -64.5q11 -77 23 -172h11q5 8 10 12.5t10 8.5l11 8.5t14 11.5l27 25l21 19t20 19l24 25q5 5 24.5 19.5l41 30l38.5 28t18 12.5q22 18 45.5 31t51.5 18q0 8 0.5 10t4.5 2v-12q16 3 20 4t8 6
q-13 1 -14.5 2t-1.5 5h50q0 -3 6 -5.5t6 -5.5q23 -6 41.5 -31t31.5 -52t20.5 -48t9.5 -19q8 -35 11 -64.5t3 -55.5q0 -44 -8 -77.5t-20 -62.5t-26 -55.5t-26 -54.5q-10 -20 -26 -34.5t-34 -28t-35.5 -29t-31.5 -37.5q-4 -1 -8 -1q-2 0 -3 -1q-8 -21 -22 -30t-32 -9t-40 7.5
t-43 17.5t-38.5 21t-27.5 18q1 2 1.5 4t1.5 4q-17 3 -17.5 6t-5.5 13zM272 47q10 -10 13.5 -13t3.5 -5q0 -1 -1 -2q-12 3 -13.5 9.5zM463 121q17 -10 22 -10q2 0 8.5 2.5t17.5 7.5q44 19 61 57t17 83q0 37 -9.5 78t-24 75t-32 56.5t-33.5 22.5q-19 0 -40.5 -9t-41 -21.5
t-35.5 -26.5t-23 -23l-42.5 -55t-19.5 -42q0 -14 16 -38.5t41 -53t56 -56t62 -47.5z" />
    <glyph glyph-name="C" unicode="C" horiz-adv-x="571" 
d="M291 -32q-75 0 -129 14t-91 36.5t-59 50t-34 55t-16 52t-4 39.5q0 36 13 75t34 75t47 65.5t52 46.5q18 11 41 28t49.5 33t56 27.5t60.5 11.5q19 0 53 -8t68.5 -25.5t62.5 -45.5t36 -67l-4 -2t-5 -3q0 -10 1 -15q-4 4 -6 7q-23 -22 -48 -22q-21 0 -39 14q-2 -5 -4.5 -9.5
t-4.5 -9.5q-70 0 -114 74q-5 8 -12.5 11t-14.5 3q-16 0 -24 -10l-37.5 -46.5t-35.5 -48.5t-26.5 -52.5t-10.5 -57.5q0 -26 9 -54t29 -60h11q14 -29 36.5 -45.5t48.5 -24t55 -9t57 -1.5q25 0 52 5t52 14t46.5 20.5t37.5 23.5q0 3 2 3t3 -0.5t2 -0.5q3 0 5 3q1 -2 1 -5.5
t1 -7.5q5 1 11 1h11q18 0 32.5 -7t21.5 -30q-39 -40 -85.5 -64t-96 -36.5t-100.5 -16.5t-97 -4z" />
    <glyph glyph-name="D" unicode="D" horiz-adv-x="648" 
d="M175 -44q-47 3 -81.5 30t-57 68.5t-33.5 93t-11 102.5q0 40 6.5 79t20 73t32.5 61t45 44q35 23 62.5 38t52.5 24t48 13t49 4q33 0 74 -6q-9 27 -15.5 52t-9.5 41q4 3 10.5 12t6.5 15q0 4 -6 6q-4 15 -7 34t-3 38q0 20 3 35t28 20v8q4 3 14.5 10t16.5 7q0 -1 1.5 -5
t4 -8.5t5.5 -8.5t7 -4l-2 4v1q0 -1 1 -1t0.5 1.5t7.5 4.5q0 3 2 11h8q1 -3 3 -11h8q3 9 8 18h7q0 -1 0 3t1 4h6q0 3 2 9q5 0 5 -3q0 -2 -1.5 -3.5t-1.5 -3.5q0 -1 7.5 -9.5t15.5 -13.5q11 -23 21 -63.5t20 -91l20.5 -108t22.5 -115.5t26.5 -112.5t32.5 -99.5q9 -22 14 -48
t11 -49t14.5 -41t22.5 -23q9 -7 22 -13q0 -12 -1.5 -14.5t-3.5 -4t-4.5 -5.5t-5.5 -19q-35 -24 -69 -24q-11 0 -13.5 4t-6.5 11q-25 -17 -44 -17q-10 0 -18.5 1.5t-16.5 1.5h-12q-5 16 -11.5 40l-14 50l-14.5 50.5t-13 41.5q-27 -60 -54.5 -101.5t-63.5 -69t-84 -43.5
t-117 -25zM234 105q16 -21 30 -21q21 0 44 30.5t41.5 75t30.5 94t12 88.5q0 67 -26 96t-63 29q-34 0 -76 -26v-7q-40 -14 -57 -50t-17 -82q0 -30 6.5 -61.5t17.5 -61.5t25.5 -57t31.5 -47z" />
    <glyph glyph-name="E" unicode="E" horiz-adv-x="582" 
d="M19 32q-5 4 -9 12.5l-8 16.5t-8 14t-7 7q-13 44 -19.5 81.5t-8.5 83.5q-6 1 -8.5 2t-8.5 3q0 39 15.5 84t43 90.5t64.5 87.5t80 74t90.5 51.5t95.5 19.5q32 0 65 -9v-8q52 -8 88 -41t58.5 -79.5t32.5 -100.5t10 -103q0 -50 -14 -86.5t-46 -44.5q0 -4 -13.5 -6.5t-31 -5
t-33.5 -6t-22 -9.5q-6 -4 -21 -4q-29 0 -62.5 7t-67.5 13q-62 10 -105 21q0 -46 18.5 -73t48 -40.5t67.5 -17t77 -3.5q63 0 111.5 12t91.5 21q0 -3 4 -11t4 -11h6q-3 -13 -15.5 -24t-28.5 -20.5t-33 -16.5t-29 -11q-19 -6 -49 -12t-64.5 -10.5t-69.5 -7.5t-63 -3
q-38 0 -66 4t-53 12.5t-50 20zM368 280h12v19q0 62 -10.5 107t-28 74t-39 42.5t-42.5 13.5q-23 0 -43 -10.5t-35 -30t-23.5 -46t-8.5 -59.5q0 -26 8 -60l50 -11.5l56.5 -13l55.5 -13t48 -12.5z" />
    <glyph glyph-name="F" unicode="F" horiz-adv-x="396" 
d="M235 -76q-10 4 -17.5 14t-14.5 21l-14 22t-16 18q-10 7 -20 29.5t-20 52t-19.5 61.5l-17 58.5t-13 43.5t-7.5 16q-13 43 -19.5 67t-15 36t-21 15t-37.5 4q-3 0 -7.5 5.5t-9 13l-9 14.5t-7.5 10q1 4 9 7t19.5 6.5t23.5 9t23 15.5q-1 8 -1 15v14q0 80 28.5 141t71.5 101.5
t94.5 61t97.5 20.5q26 -2 51 -12t45 -29.5t32 -47.5t12 -65v-13.5t-1.5 -13.5t-6 -10.5t-13.5 -4.5q-5 0 -11 1t-12 1q0 -1 -3 -1q-2 0 -8 1l-12.5 2l-12.5 2t-8 1q-3 0 -3 -1h-1q-2 0 -3 -4t-3 -4l-1 1q-5 -4 -12 -7.5t-12 -3.5q-11 0 -14 14t-3 25q0 6 1.5 12t1.5 12
t-2.5 15t-7.5 18t-11.5 15.5t-13.5 6.5q-11 0 -24 -16.5t-24 -38t-19.5 -41.5t-9.5 -26q-9 -32 -9 -76q0 -24 3 -51q57 2 106.5 3.5t108.5 1.5q4 0 4 -3q0 -2 -0.5 -4t-0.5 -4q0 -4 3 -10t3 -10q0 -5 -5 -5q-2 0 -3 2t-4 2t-6 -2t-3 -4q3 -1 6 -3q2 -2 4.5 -3t2.5 -2
q0 -14 -1.5 -26.5t-8.5 -12.5q-14 0 -28.5 1t-26.5 1q-25 0 -42.5 -1.5t-32 -3.5t-27.5 -3.5t-28 -2.5q4 -21 13 -56t21 -77.5t26.5 -88.5l29 -88t28 -76t24.5 -52v-3q0 -3 -1 -3q-2 0 -5 3.5t-6 3.5q-4 0 -10 -6q-8 6 -21 10q-1 -4 -1 -6.5t-1 -4.5h-7q-14 0 -30.5 -10.5
t-36.5 -10.5q-7 0 -10 1z" />
    <glyph glyph-name="G" unicode="G" horiz-adv-x="629" 
d="M130 -248q-32 5 -45.5 19t-13.5 34t11.5 43t28 44t33.5 38.5t29 25.5q29 21 62 33.5l62 22.5q7 3 10 3q1 0 8.5 -2t12.5 -6l-3 -4l3 1l8 -4l1 2l9 2q-2 0 -2 -2q0 -5 3.5 -7t3.5 -5q0 -2 -6 -8t-11 -6q-1 0 -1 1t2 2t1 1l-4 -2q-2 -1 -4 -1.5t-5 -2.5v-13
q-4 -2 -18.5 -11t-26.5 -21q-19 -18 -27 -35t-8 -19q0 -11 19 -17q137 -52 332 -52q38 0 51 2.5t13 18.5q0 33 -13.5 76t-33.5 89.5t-43 91.5l-42 82q-20 -18 -52.5 -34t-72 -27.5t-82.5 -18.5t-84 -7q-63 0 -117 10t-94.5 28.5t-63.5 45t-23 59.5q0 24 9 52.5t22.5 57
t30 54t32.5 42.5q36 39 81.5 73.5t94 60.5t99 42t97.5 16q28 0 57.5 -7t54.5 -22.5t42.5 -39.5t22.5 -57q5 -37 6 -58.5t4.5 -41t13 -42.5t31.5 -62l52 -95.5t51.5 -100.5t44 -102.5t31.5 -101.5q2 -10 2 -17q0 -29 -16 -60.5t-40 -59.5t-52.5 -48t-53.5 -25q-15 -3 -32 -4
t-34 -1q-39 0 -82.5 5t-88 12.5t-88 16.5l-81.5 17.5l-68.5 15.5t-49.5 10zM319 192q37 16 60.5 30t37 30t19 35t5.5 44q0 4 -0.5 11t-2 13t-5.5 10.5t-10 4.5q14 16 15.5 19t1.5 4q0 2 -0.5 5t-1.5 8q9 4 9 9q0 3 -5.5 5t-5.5 4q0 3 14 6q6 16 6 29q0 23 -20 37t-43 14
q-21 0 -50 -12t-60 -32t-61.5 -47t-54.5 -56.5t-39 -60.5t-15 -59q2 -35 36.5 -52t79.5 -17q23 0 46.5 4.5t43.5 13.5z" />
    <glyph glyph-name="H" unicode="H" horiz-adv-x="603" 
d="M553 -16q-15 13 -32 43.5t-35.5 69t-37 81.5l-34.5 81.5l-29 67.5t-21 41q-11 24 -20.5 33.5t-17.5 9.5q-9 0 -15.5 -9.5t-11 -22.5t-7.5 -27t-4 -23q-8 -78 -17 -149t-15 -149q-38 0 -75.5 6.5t-75.5 6.5q-8 0 -16.5 -0.5t-16.5 -1.5q0 6 -4 28.5l-8.5 47t-9 44.5
t-5.5 20q-12 39 -21.5 93t-18 116t-15 127.5t-12 127.5l-10 117t-7.5 96h4q5 0 10 -0.5t8 -0.5q8 0 8.5 5t4.5 8q33 9 58 9q38 0 56 -22q2 -12 4.5 -43.5t4.5 -73t5 -88.5l6 -91t6.5 -80.5t7.5 -55.5h22q3 37 17 71l29 69q11 1 16 5t10.5 7.5t14.5 6.5t29 3q4 0 14 -1
t21.5 -2.5t23 -2.5t18.5 -1t7 1q6 -3 19.5 -6t29.5 -7.5t30.5 -11t20.5 -15.5q35 -53 60 -117t47.5 -131.5l46.5 -134.5t57 -125q7 -13 13.5 -29.5t7.5 -31.5q-1 2 -2.5 3t-2.5 2q-5 -8 -20.5 -10.5t-34.5 -2.5q-15 0 -30 1.5t-27.5 4t-20 6t-7.5 7.5z" />
    <glyph glyph-name="I" unicode="I" horiz-adv-x="220" 
d="M201 6q-23 10 -32 10q-5 0 -5 -3v-2q0 -5 -3 -5q-4 0 -9.5 3.5t-10.5 9t-9 11t-5 9.5h-11q2 -6 2 -7l-1 -2q0 -3 13 -17h-32q-34 69 -53.5 128t-30.5 108q-4 18 -8 44t-7 57t-4.5 63.5t-1.5 62.5q0 50 7 72.5t15 22.5q3 -4 8 -9q0 5 4 9h11q0 12 8.5 13t17.5 1
q31 0 54 -9.5t29 -35.5q1 -4 1.5 -21.5t1.5 -43t2.5 -56l3 -59.5t3 -53.5t3.5 -38.5q5 -37 14 -76.5l17.5 -74.5l14.5 -61.5t6 -35.5q0 -11 -6 -10.5t-7 -3.5zM136 693q-56 -38 -113 -38q-29 0 -41.5 15t-12.5 41q2 7 2 19.5t6 32.5q13 3 34.5 10t35.5 7q8 0 16 -3l3 3t3 5
q3 -5 5 -9.5t4 -6.5q-1 -4 -2 -6.5t-2 -4.5q22 14 34 14q16 0 19 -21q4 -37 12 -46z" />
    <glyph glyph-name="J" unicode="J" horiz-adv-x="504" 
d="M244 682q-3 1 -18 5.5l-32.5 10t-32 10.5t-16.5 7l2 36q1 14 1.5 25.5t1.5 12.5q22 1 42.5 3.5t41.5 2.5q13 0 25.5 -1t17.5 -16q7 -1 13.5 -11.5t12 -24l10.5 -26.5t10 -18q-4 -4 -8 -13l-36 -2t-35 -1zM463 -323q-7 -1 -14.5 -1h-15.5q-39 0 -87.5 7t-99.5 21.5
t-101 35.5t-91.5 49t-71.5 63t-41 76h-12q-11 35 -15.5 60.5t-4.5 40.5q0 32 43 74h11v11q73 32 147 53.5t155 25.5q10 -16 9.5 -26t2.5 -19q-39 -17 -76 -28.5t-66 -24t-46.5 -29.5t-17.5 -44q0 -35 28 -76.5t74.5 -79t107 -66.5t124.5 -39q2 -1 7 -1q12 0 18.5 8.5t9.5 22
t3.5 28.5t0.5 29q0 47 -9.5 94t-25 93.5t-35 93.5l-39.5 94l-37.5 91l-50.5 122q-16 30 -30.5 64t-14.5 60q0 8 9.5 17.5t12.5 14.5l36 4t36 2q15 0 30 -1.5t29 -6.5q4 -15 15.5 -26.5t19.5 -30.5q23 -52 48 -116l50 -132.5t47.5 -136.5t40 -129.5t27.5 -111.5t10 -81
q0 -30 -7 -55.5t-24 -45t-46 -32.5t-73 -16z" />
    <glyph glyph-name="K" unicode="K" horiz-adv-x="598" 
d="M606 -72q-5 7 -22.5 19.5t-43.5 28.5l-57 33.5l-62.5 35l-60.5 33l-51 26.5l-39 20.5l-15 7.5q-4 -7 -5.5 -10.5t-3 -11t-3 -21l-4.5 -39.5h-10v-17q-13 -1 -22.5 -2t-16.5 -3v-11q-17 -2 -32.5 -5t-30.5 -5q-2 -4 -2.5 -7t-1.5 -5q-32 -2 -60 -6q-25 211 -52 415.5
l-53 418.5q9 3 22.5 7t27 10t25 13t17.5 15q9 -2 20.5 -3t22 -3t19 -7t11.5 -15h11q7 -71 11 -135l8 -123t8.5 -112.5t12.5 -103.5q4 1 30.5 11.5l66 25l88 31.5t95.5 31.5t89 24t68 9.5l10 -14t14.5 -22t13.5 -23t8 -17l-78 -33t-73 -33.5t-72.5 -38l-75.5 -44.5
q0 -8 14 -22t37 -32t52.5 -39l59.5 -42l59 -41t50 -37q54 -42 94 -47q0 -14 4.5 -28.5t4.5 -30.5q-14 -5 -38 -12.5t-41 -7.5q-18 0 -33 9q-4 -3 -8 -7t-7 -9z" />
    <glyph glyph-name="L" unicode="L" horiz-adv-x="226" 
d="M205 -50q-15 11 -23 18l-13 11.5t-9 6t-10 1.5q-5 0 -12.5 -1t-19.5 -2q-11 12 -18 12q-5 0 -7.5 -3t-4.5 -3t-2 3.5t-0.5 8t-2.5 8t-9 3.5q-3 18 -12 68l-21.5 118.5t-26 150t-24.5 161.5t-18.5 153t-7.5 125q0 27 2.5 47.5t7.5 31.5q19 4 31.5 8t21.5 8t16 6.5t16 2.5
q10 0 23.5 -3.5t36.5 -11.5v-3t-1 -7l4 -2t6 -2q3 -26 7.5 -89t12.5 -144.5t18.5 -172.5t25.5 -175l17 -100t17.5 -85.5t22.5 -61.5t32 -28q-2 -11 -4.5 -16t-4.5 -7.5t-4 -3t-2 -3.5v-2q0 -12 -8.5 -17.5t-19 -7.5t-20.5 -1.5t-13 0.5z" />
    <glyph glyph-name="M" unicode="M" horiz-adv-x="838" 
d="M859 -52q-43 35 -76 73.5t-60 80.5t-50 87.5l-46 94.5q-4 -11 -5 -28t-1 -39q0 -23 1 -48.5t2.5 -48.5t2.5 -42.5t1 -30.5q0 -17 -5.5 -23.5t-16.5 -6.5q-8 0 -16.5 2.5t-24.5 2.5q-13 0 -29.5 -0.5t-38.5 -0.5q-9 -1 -18 -4.5t-19 -3.5q-18 25 -40.5 72l-45 98.5
t-41.5 100.5t-29 78q-2 -4 -3 -39t-1.5 -85.5t-2.5 -108t-7 -107.5q-24 -7 -29.5 -10t-5.5 -5v-2q0 -1 -3 -1.5t-16 -2.5q-10 8 -15.5 10.5t-18.5 2.5l-6.5 -9t-7.5 -10h-9h-6q-8 7 -12.5 11.5t-6.5 7.5t-3.5 6t-2.5 8h-10q-98 162 -143 259t-55 122h-12q-8 18 -12 29t-8 27
q13 8 16 13l5.5 9t10.5 9t31 13v11q20 8 32.5 14.5t23.5 6.5q15 0 28 -18t26.5 -45l27.5 -57.5t30 -55.5l21 80t13 45.5t9 24.5l9 18q10 3 9 5t-0.5 5t11 8.5t45.5 14.5q25 7 54.5 13t59.5 6q4 0 12.5 -15t18.5 -37l20.5 -47t19.5 -44q16 -38 30.5 -69t27.5 -56
q5 15 10 43.5t8.5 60.5l6.5 61t5 45q1 2 11 7.5t26 11.5t36 11t41 5q19 0 42 -5q9 -17 25 -57l37 -93.5l45.5 -114.5t50.5 -119t51.5 -108t48.5 -80q-8 -8 -27.5 -19t-56.5 -18z" />
    <glyph glyph-name="N" unicode="N" horiz-adv-x="595" 
d="M592 -59q-18 9 -28.5 20t-17 24t-10.5 28.5t-10 33.5h-11q4 -11 5.5 -16t1.5 -8q0 -2 -2 -8q-24 35 -46.5 81t-43.5 94l-41 93.5t-40 80.5q-13 -38 -21 -87t-13.5 -100t-9.5 -99.5t-9 -87.5q-8 -1 -15.5 -1.5t-14.5 -0.5q-14 0 -23 1.5t-18 3.5t-18.5 3.5t-23.5 1.5
q-5 0 -10 -0.5t-10 -0.5q-3 0 -6 1t-5 1t-3 -1q-17 9 -40 45.5t-48.5 88t-50.5 111t-45.5 114.5t-34 98t-15.5 62q0 9 2 12t12 6q36 7 54.5 8.5t37.5 1.5h27t35 -2l17 -45l20.5 -53.5l21 -53.5t19.5 -45q18 60 40.5 119.5t58.5 122.5q3 5 6.5 13t7.5 15t9 12t11 5
q14 0 25.5 3t21.5 7t20 7t22 3q11 0 26 -3v-11q10 -4 19 -6t16 -4t12 -6t8 -12q24 -70 45.5 -140.5t45 -140.5t50.5 -139t61 -135q7 -13 12 -25q5 -11 8.5 -22.5t3.5 -20.5q0 -3 -5.5 -11.5t-14.5 -17.5t-21 -15.5t-24 -6.5q-3 0 -6 5.5t-5 5.5q-7 -2 -11.5 -4.5t-10.5 -2.5
z" />
    <glyph glyph-name="O" unicode="O" horiz-adv-x="687" 
d="M17 443q18 27 44.5 55.5t62 52t79.5 39t95 15.5q10 0 19.5 -0.5t19.5 -1.5v11h13q50 0 101.5 -19t97 -52t82 -77t57.5 -94q5 5 8 5t7.5 -11.5t8 -27t6 -32.5t2.5 -28q0 -45 -18.5 -85.5t-49.5 -76t-71.5 -64t-85 -49t-89.5 -31.5t-85 -11q-60 0 -122.5 25t-114 69
t-84.5 105t-33 133q0 71 50 150zM309 87q34 -9 64 -9q43 0 71.5 20t45 49t23 63t6.5 62q0 54 -10 82.5t-24 44t-29.5 25.5t-26.5 27q-21 31 -45 31q-5 -12 -15 -12h-6q-10 0 -17 -7q-25 19 -26 19v-1v-1q0 3 -4.5 9.5t-12 13.5t-17.5 12.5t-22 5.5q-48 0 -81 -48.5
t-33 -138.5q0 -38 8 -77.5t27 -73.5t49.5 -60t74.5 -36z" />
    <glyph glyph-name="P" unicode="P" horiz-adv-x="680" 
d="M157 -393q-2 5 -3 9.5t-2 6.5h-17q-17 83 -28 158.5l-22.5 150.5t-28.5 151.5t-46 160.5l-35.5 105t-34.5 99q-7 2 -10 5.5t-5 7.5t-2 10l1 -4q1 0 1 1t-0.5 3t-0.5 6h-10q1 24 6 50q17 5 30 13.5t36 13.5v17q7 -2 18 -3l3 9h10q18 0 34.5 -3.5t33.5 -3.5q3 0 5.5 0.5
t5.5 0.5l17.5 -42.5t13 -32l10 -27l10 -28l12.5 -34.5l17 -46q30 56 63 110t74 97t93 69t120 26q56 0 120 -19q1 -2 2 -4.5t3 -6.5h17q29 -32 42.5 -75t13.5 -94q0 -59 -19.5 -128.5t-56.5 -134t-89 -117.5t-117 -78q-65 -26 -150 -45q-2 -1 -5 -1q-8 0 -16 3.5t-16 3.5
q1 -28 5.5 -61l9.5 -68t9 -70t4 -65q0 -28 -4 -47q-7 -2 -16 -4t-16.5 -5t-12.5 -7.5t-5 -10.5h-33q-6 0 -8.5 -1t-5.5 -3t-8.5 -6.5t-16.5 -11.5zM339 60q2 0 3 -0.5t3 -0.5q16 0 37 12.5t42.5 33t41 45.5t33.5 50q28 49 44 105.5t16 110.5q0 51 -17 93t-56 65q-13 8 -23 8
q-8 0 -14 -5t-15 -14q-66 -66 -102.5 -144.5t-57.5 -169.5q3 -3 11 -5q-8 -8 -11 -16q8 0 9.5 -1t1.5 -6h-17q0 -4 11 -4q-3 -36 -3 -58q0 -12 2 -27.5t9 -30t19 -26t33 -15.5z" />
    <glyph glyph-name="Z" unicode="Z" horiz-adv-x="631" 
d="M164 501q16 -15 20.5 -20t7 -7t7 -4.5t21.5 -14.5q-5 -4 -9 -5t-23 -2q-4 -9 -4 -18h-11q-8 -16 -15.5 -20t-23.5 -10v-12l-25 -7l-19 -5q-11 28 -36 51.5l-51 46.5t-46 47.5t-20 54.5q0 11 6 27t19.5 31t35.5 25.5t55 10.5q24 0 48 -4.5t48.5 -11.5l49 -14t49.5 -13
l174 -38.5l169 -39.5q14 -4 18.5 -4.5t4.5 -16.5v-27q-9 -3 -15.5 -4.5t-11 -4t-7.5 -7.5t-6 -14h-11q-27 -37 -70.5 -85t-100.5 -93l-49.5 -40l-40.5 -34l-37 -31l-39 -31q2 -3 4 -9q42 1 100 4.5t148 3.5q44 0 87 -4.5t79.5 -13.5t64.5 -23.5t42 -35.5q-3 -2 -5.5 -4
t-4.5 -4q2 -2 4 -4.5t4 -4.5q-6 -7 -15 -11t-17 -9t-14 -11.5t-6 -17.5h-11v-12q-7 1 -13 2t-12 3q-2 -3 -4 -6.5t-4 -8.5q-3 2 -6.5 2.5t-5.5 1.5v-12q-78 19 -167.5 29t-183.5 10q-105 0 -204.5 -13.5t-182.5 -42.5q-5 11 -9 22t-4 22q0 22 24 53t62.5 65t85.5 69.5
l92 67.5q87 62 137 113t75 80l-12.5 6.5l-16.5 8.5t-25 10.5t-39 11.5q-20 5 -40 9.5l-37 8t-28.5 5.5t-13.5 2h-1h17q0 -5 -2 -6.5t-10 -2.5q2 -2 3 -5t3 -5z" />
    <glyph glyph-name="U" unicode="U" horiz-adv-x="528" 
d="M-28 271h-12q3 72 15.5 138.5t31.5 136.5q4 1 11 6.5t14 13l13 14.5t7 10q7 -1 13 -2t12 -3q2 12 9 17t15.5 6.5t18 1t17.5 0.5q-3 -62 -3 -113q0 -106 11 -180.5t28.5 -121t40 -68t45.5 -21.5q20 0 40.5 15.5t37 42.5t26.5 64.5t10 82.5q0 33 -6.5 68.5t-21.5 73.5
q-5 2 -9.5 5t-8.5 5v38q10 6 18.5 8.5t16.5 21.5q9 -1 13.5 -1h5.5h1q2 0 21 -8v32q5 4 11 5v-13q29 10 51 10q26 0 40.5 -13.5t22.5 -35.5t11 -50t5 -57t5.5 -56t11.5 -48q-8 -2 -10 -4q0 -36 -5 -66.5t-14 -66.5q-5 -2 -8.5 -3t-6.5 -3q-10 -38 -37 -63t-63 -42t-76.5 -27
t-77.5 -17q-17 -4 -40 -4q-42 0 -87 15t-81.5 46t-60 78t-23.5 111v10.5t1 10.5z" />
    <glyph glyph-name="V" unicode="V" horiz-adv-x="463" 
d="M157 -29q-44 56 -80 132.5t-63.5 159.5t-45.5 166t-26 152l6 3t3 2v11q17 9 29 19.5t33 19.5v11q10 1 16.5 1.5t10.5 0.5t10.5 -0.5t17.5 -1.5q31 -100 67.5 -197l70.5 -194q9 23 23 64t32.5 83t41 76.5t48.5 45.5v11q12 6 17 7t22 4q5 18 15.5 25t26.5 7q10 0 24.5 -2
t27 -5t21.5 -6t9 -4t-11 -14q-35 -40 -69 -104t-54 -134l-24.5 -86.5t-22.5 -77t-21.5 -58.5t-21.5 -30v-10q-7 -2 -10.5 -5.5t-6.5 -7.5t-7.5 -7.5t-13.5 -6.5l-19 -7t-15 -5v-11q-8 0 -11 -5.5l-6 -10.5q-9 -1 -13.5 -2t-8.5 -2t-8.5 -2.5z" />
    <glyph glyph-name="W" unicode="W" horiz-adv-x="859" 
d="M223 -68q-32 54 -72.5 129.5t-79.5 163.5l-42 87l-41.5 86.5t-34 82t-19.5 72.5q9 5 12 9t4 8.5t2 10.5t4 16q16 6 22 8t11 14q7 1 16.5 2l18.5 2t16 3.5t9 8.5h2q3 0 9.5 2.5t14 6t13.5 6t8 2.5l15.5 -41.5l17.5 -49.5t17 -53t14 -54q7 -26 20.5 -58.5t29 -64.5
l29.5 -61t22 -48q-2 0 -2 8q0 9 2 28t5.5 43.5l7.5 51.5l8 53q10 67 28 131.5t47 104.5l14 4.5t30.5 9l31 8.5t17.5 4q12 -1 19 -3t14 -7t16.5 -15l26.5 -27l19 -82l19 -87.5l17 -84.5l14 -73.5l10 -54t5 -25.5q12 22 28.5 68t38.5 102t50 117t64 114q30 45 41 45q5 0 5 -10
q0 -2 -0.5 -5t-0.5 -6q3 -1 5 -3t5 -4q6 12 14 24l16 25q2 -3 9.5 -5t18 -4.5t22 -4.5t22.5 -5q-8 -36 -28 -88t-46.5 -112l-55 -125t-52.5 -127q-38 -96 -54 -129q-7 -14 -11.5 -24t-9.5 -17.5t-11.5 -12.5t-16.5 -9q-18 -7 -36.5 -12.5t-51.5 -7.5v-16h-17h-12.5t-11.5 -2
q-1 3 -2 6.5t-1 5.5h-12q-19 51 -29.5 99.5t-23.5 93.5q-9 31 -18 66.5t-16.5 68l-13.5 57.5t-9 34q-2 -71 -7.5 -153.5t-13.5 -188.5q-2 -23 -2.5 -35t-2 -18.5t-6 -9t-13.5 -5.5q-12 -5 -19.5 -7.5t-12.5 -5.5t-8.5 -7.5l-8.5 -11.5h-35q-6 -6 -10.5 -13l-9.5 -15
q-7 -1 -16.5 -1.5t-20.5 -2.5z" />
    <glyph glyph-name="X" unicode="X" horiz-adv-x="708" 
d="M698 566v-3q0 -6 1 -15.5t1 -14.5v-2l-86 -49.5t-74 -46.5t-67.5 -52t-66.5 -67q39 -24 84 -55l91 -60.5t91 -53t86 -32.5q0 -19 1 -24q-16 -10 -32.5 -15t-32 -9l-30.5 -8t-27 -12q0 -2 3 -9q-20 -2 -43.5 -3t-47.5 -3q-44 15 -80.5 36t-65.5 42t-50 39.5t-35 29.5
q-19 -30 -50 -66.5t-60 -84.5q-5 -24 -19 -45q-1 -6 -20.5 -8.5t-47 -3t-59.5 -0.5t-58 -2q20 31 47.5 70l55.5 78.5l54.5 75.5l45.5 62q-23 26 -50.5 52.5l-56 54l-57 57t-52.5 60.5q-5 6 -16 13t-12 16q-3 19 -3 36v14.5t1 13.5q9 2 17 8t19 10v12l58.5 14t42.5 6
q19 0 31.5 -10.5t22 -28t19.5 -40t25 -46.5t37 -47t57 -42q-3 -1 -7 -7l27 -18q30 27 66.5 56t75.5 56.5t78.5 51t77.5 39.5q2 0 3 0.5t3 0.5q14 0 38.5 -7t45.5 -14z" />
    <glyph glyph-name="Y" unicode="Y" horiz-adv-x="582" 
d="M47 -224q-33 5 -45 17.5t-12 33.5q0 19 10.5 41.5t25.5 44t32 39.5t31 27q33 23 68 36.5t68 24.5q0 -1 7.5 -4.5l16 -7.5l16 -7.5t7.5 -4.5q-10 -3 -24 -15.5t-44 -28.5v-12q-6 -3 -13 -11.5t-14 -19l-13.5 -19.5t-11.5 -12q3 -10 26 -17t54.5 -12t65 -8t57.5 -4
q47 -4 91 -11t86 -17q6 -2 11.5 -3t10.5 -1q20 0 20 21v5q-5 47 -25.5 104.5t-47.5 116t-56 111.5l-50 91q-20 -27 -51.5 -54t-66.5 -48.5t-71 -35t-64 -13.5q-36 0 -58.5 14.5t-38.5 40.5t-28.5 62l-28.5 79q-24 61 -24 151q0 29 3 62q10 3 19 7.5t20 9.5q0 8 5 11t11 5v11
q23 5 37 9.5t25 4.5q17 0 27 -25t16.5 -62t11.5 -80.5t12.5 -80.5t20.5 -62t35 -25q25 0 39 16.5t20 43t7 60t1 67.5q0 26 -1 50.5t-1 42.5q0 11 0.5 21t2.5 10t3.5 -1t3.5 -1q1 0 8 2.5t14 4.5v10q14 10 23 17.5t28 7.5q4 6 10 12q3 -1 9 -1q11 0 20 3t19 3q9 0 14 -2
q1 -41 20 -91.5t47 -107t60.5 -115l61.5 -114.5l32 -65.5t33 -72.5t28.5 -73.5t20.5 -68.5q2 -10 2 -17q0 -29 -16 -60.5t-40 -59.5t-52.5 -48t-53.5 -24q-16 -3 -32.5 -4t-35.5 -1q-59 0 -126.5 10t-131 23t-116 26t-81.5 18z" />
    <glyph glyph-name="T" unicode="T" horiz-adv-x="463" 
d="M99 -17q-26 18 -41 40t-23 48t-10 55t-2 61q0 68 6.5 114.5t6.5 83.5q0 17 -1.5 36t-3.5 40q-39 -4 -76.5 -9t-77.5 -7v18v15.5t-2 12.5q0 1 2 2.5t2 3.5t-2.5 2.5t-2.5 3.5q6 1 13 3.5t7 10.5q0 5 -1 8.5t-1 7.5q0 6 4 11q-2 -1 -7.5 -2t-6.5 -1q1 -1 2.5 0.5t1.5 6.5
q0 2 -0.5 3.5t-0.5 3.5q8 2 29.5 5t46.5 6l47.5 5.5t33.5 5.5q0 5 2.5 30t4.5 53.5t4.5 51.5t2.5 25q1 5 1 12v16v17v29t1 24q8 4 17 6.5t17 4.5t13 4.5t5 6.5q23 7 30 13t13 6q9 0 31 -8v-6q6 -2 9.5 -11.5t5 -22t1.5 -25.5v-22q0 -35 -3 -75.5t-3 -94.5v-32q34 3 68 10.5
l68.5 14.5t69 12.5t70.5 5.5h3q0 1 -3 -2q-2 -1 -3 -1q0 -1 1 -1h3q2 0 3.5 0.5t4.5 0.5q2 -7 5 -10.5t5.5 -5.5t4.5 -4.5t2 -6.5q0 -7 -4.5 -13t-10.5 -10t-11 -6.5t-6 -2.5l1 1q-1 0 5 2q-9 -22 -27 -32t-41 -15t-49 -9.5t-52 -14.5q-36 -14 -69 -17t-50 -6q0 -4 -0.5 -10
t-0.5 -14q0 -14 1 -30t3 -26h-1q-2 0 -3 -0.5t-2 -0.5h-1q-4 0 -4 -26q0 -11 0.5 -25t0.5 -30v-82q0 -18 3 -35.5t8.5 -31t13.5 -21.5t18 -8q11 0 38.5 14.5t60 38.5t63.5 54.5t48 62.5q5 3 7.5 7.5t4.5 4.5h2l32 -18q8 1 20 7t19 6q6 0 7 -5l28 -46q2 -4 2 -7q0 -8 -12 -17
q14 -17 14 -23v-1l-61.5 -48.5l-70 -52l-69.5 -48.5t-59 -37l-28.5 -15.5t-37 -18.5t-38.5 -15.5t-34 -6.5q-28 0 -55 18z" />
    <glyph glyph-name="S" unicode="S" horiz-adv-x="616" 
d="M390 602q-5 8 -5 13q21 -2 35.5 -14.5t24.5 -29.5t15.5 -35.5t7.5 -33.5h-20q-9 0 -15 -1t-10 -4t-7.5 -9.5t-7.5 -18.5q-18 -5 -33 -11.5t-32 -6.5q-2 0 -4 0.5t-4 0.5v4q0 8 -12 26t-31 36.5t-41 32.5t-41 14q-13 0 -22 -5q-23 -4 -36.5 -10t-13.5 -15
q0 -14 21.5 -30.5t55.5 -32.5t75.5 -30.5t82.5 -24.5q72 -19 143 -33.5t129 -28.5q72 -18 71 -64q0 -9 -2 -17.5t-5 -19.5q-16 -50 -65.5 -100t-121.5 -90t-160.5 -65t-181.5 -25q-94 0 -152 48q2 2 12 7q-24 17 -35 41t-11 51q0 22 7 44.5t20 42t31.5 34t41.5 22.5v10
q13 4 29 10t31.5 11t29.5 9t25 4q13 0 27.5 -3.5t14.5 -12.5q0 -14 -14 -28l-30.5 -30t-30 -35t-13.5 -42q0 -32 21 -44.5t61 -12.5q39 0 88.5 10t93 27t73 39.5t29.5 48.5q0 18 -21.5 32.5t-55.5 26.5t-76.5 22t-85 18.5l-80.5 16.5t-63 16q-95 29 -147 60.5t-52 75.5
q0 35 27 64t65.5 50t80.5 32.5t72 11.5q44 0 92 -15.5z" />
    <glyph glyph-name="R" unicode="R" horiz-adv-x="502" 
d="M145 -31q-51 100 -87 217.5t-71 248.5q-16 58 -16 109q0 18 5.5 24t16.5 6q5 0 10.5 -2.5t10.5 -2.5q12 0 18 15q10 1 20 2.5t20 2.5v12q14 -3 14 -5q-1 -1 -2 -1h-3q-4 0 -4 1t2 1q5 0 9 1v-11l12 -0.5t26 -0.5t26 -0.5l12 -0.5q-3 -36 -3 -62q0 -78 27 -78q4 0 7 1
q0 -1 1 -1q4 0 13 15h11q25 37 66.5 63.5t90.5 43t101 24t99 7.5q5 0 14 0.5t9 -3.5q0 -8 -2 -28t-12 -40h-17q-56 0 -97 -19t-69.5 -49t-46.5 -67t-28 -73t-13.5 -67t-3.5 -49q0 -52 6 -140h11q-3 -12 -6 -40q-48 -15 -90 -30.5t-87 -23.5z" />
    <glyph glyph-name="five" unicode="5" horiz-adv-x="646" 
d="M230 -96q-3 -4 -11 -4q-17 0 -47.5 11.5t-66 31t-73 45.5t-67.5 55.5t-49.5 60t-19.5 59.5q3 18 36 31v14h13q4 8 7.5 16.5t6.5 16.5q10 -4 14 -5q4 13 5.5 15.5t6.5 2.5q0 -10 1 -11.5t6 -1.5q5 16 12 29q14 0 29 -1t31 -1q0 9 1 11t6 2q4 -47 26.5 -85t55 -64.5
t72 -40.5t78.5 -14q26 0 54.5 8.5t52.5 25.5t40 42.5t16 59.5q0 12 -3.5 36t-12 50.5t-22 51t-33.5 36.5q-48 29 -80.5 40t-61.5 11q-17 0 -35 -3t-40 -8l-48 -11t-60 -12v-13h-39l8.5 76.5t5.5 52t3 37t2.5 33.5t3 41.5t4.5 60.5l48.5 35t41.5 25.5t46 17t63 8.5v-7
q1 0 1 1t1 1v-8q34 -5 67 -7.5t65 -2.5q81 0 164 12t162 22l12 -95l-12 -23q-57 -19 -125 -28.5t-134 -13.5t-124 -4h-95q-1 -5 -2 -17t-2.5 -25.5t-2.5 -25.5t-2 -18q85 21 156 21q61 0 108.5 -14t80 -46t49.5 -84t17 -128v-20h-13q-11 -37 -28 -75.5t-40 -73t-52.5 -62
t-65.5 -42.5v-13q-20 -10 -41.5 -26t-47 -32t-55.5 -27.5t-68 -12.5z" />
    <glyph glyph-name="question" unicode="?" horiz-adv-x="471" 
d="M307 -52q-18 11 -32 17.5t-35 9.5q0 4 5.5 5.5t5.5 5.5q-26 6 -44 21t-32 35h10q-3 12 -4.5 19.5t-1.5 14.5q0 12 4 28q10 5 23.5 12.5t28 14t29.5 11.5t29 5q17 0 32 -9.5t26 -34.5h11q5 -16 6 -28.5t3.5 -21t8.5 -13t21 -4.5v-12l32.5 -9.5t16.5 -5.5t5.5 -3.5
t0.5 -2.5h-11v-17q-36 -15 -52 -20t-26 -6.5t-21.5 -2.5t-38.5 -9zM296 249q-47 18 -92.5 42t-95.5 36q-17 4 -26 14t-13.5 22.5t-5.5 26t-1 23.5q0 47 25 84.5t62 69.5t79.5 61t77.5 60q-1 5 -1 12v17l-15.5 14t-15.5 13q-6 -2 -9 -5q-20 9 -41.5 13t-44.5 4q-33 0 -67 -7
t-64 -18t-55.5 -24t-42.5 -25q-2 -1 -5 -1q-7 0 -7 7v2q0 13 -13 14q-3 -12 -13 -17t-24 -5q-1 13 -6.5 27.5t-5.5 26.5q79 74 156 106.5t162 32.5q24 0 57.5 -4.5t69 -13t70.5 -20.5t63 -27t45 -33t17 -39q0 -15 -7.5 -30.5t-19.5 -30t-27 -28l-29 -25.5q-6 -5 -21.5 -17
l-36 -28l-42.5 -34l-40.5 -34t-30.5 -28t-12 -16q0 -1 1 -1q2 0 10 6h-14v-7q0 -44 20.5 -66.5t52 -33.5t67.5 -17.5t68 -19.5q11 -11 11 -24q0 -14 -6.5 -24t-16 -17.5t-20 -11t-18.5 -3.5q-16 0 -33.5 6t-26.5 7l2.5 -2.5t4.5 -5.5l-28 -2z" />
    <glyph glyph-name="exclam" unicode="!" horiz-adv-x="250" 
d="M71 268q-4 0 -13.5 -2.5l-13.5 -3.5q0 17 1 52.5t2 82t3 99t3 103t2 95t1 73.5q0 13 4 15t19 11l43 26t49 22q2 -6 3 -11q8 2 11 5q3 -2 7 -8q1 5 5 9t6 4q3 0 7.5 -3t17.5 -14q0 -3 0.5 -6t0.5 -5q0 -17 -4.5 -34t-4.5 -54q0 -18 1.5 -43t6.5 -59q-1 -1 -3 -1
q-3 0 -4.5 2t-4.5 2h-2l3 -15q6 4 12 6q1 -3 1 -5t1 -4q-3 -3 -8 -5.5t-10 -3.5q-11 -66 -17 -138.5t-12 -132.5q0 -5 1 -11t1 -11q0 -9 -11 -8.5t-19 -0.5v2q0 4 -3 4q-2 0 -5 -2t-5 -2t-2 3v3q-15 -11 -16.5 -18.5t-8.5 -7.5v1l2 1q0 -1 -1 -1q-2 0 -3 1.5t-6 1.5
q-12 0 -23.5 -3t-13.5 -7v-4zM90 176q17 -8 31.5 -10.5t28.5 -2.5q9 0 17 0.5t15 0.5q19 0 29 -9.5t14.5 -23t5.5 -29.5t1 -29q0 -12 -1.5 -32.5t-5.5 -50.5q-13 -3 -28 -13t-45 -18q-17 15 -29 15q-5 0 -8 -2t-6 -2q-5 0 -6.5 3.5t-3 8t-6 8.5t-14.5 6q0 3 -4.5 18
t-10.5 32t-10.5 32t-4.5 18q4 1 8.5 2t10.5 2q0 22 -0.5 35.5t-0.5 21.5q-1 9 -1 12v-1q0 -1 1 -1t1 1t1.5 2.5t6 3t14.5 2.5z" />
    <glyph glyph-name="quotedbl" unicode="&#x22;" horiz-adv-x="435" 
d="M253 436q-8 18 -13.5 27t-9.5 16.5t-6 18t-4 31.5q-2 0 -4 4.5t-3.5 10t-3 10t-2.5 5.5q-8 -18 -22.5 -30t-23.5 -27q-10 2 -16 2v-10v-9t-2 -9q-5 0 -9 1q-11 -11 -22 -24.5t-28 -13.5q-8 0 -16.5 19.5t-16 45t-12.5 50t-5 35.5q0 10 1 14q-1 1 -2 1.5t-2 2.5q0 1 2 7
q8 -1 9.5 -1.5l4.5 -1.5q4 17 11.5 27.5t18.5 23.5l2 -2q6 12 19 14t24 2q20 0 29.5 -8t12.5 -31q5 -2 8 -2.5t5 -1.5l2 4t2 5q3 -8 6 -17t9 -13v-5q3 3 5 12t3.5 20.5l3 22.5t3.5 18q6 0 10.5 10t8.5 10q5 0 6.5 3t5.5 6h5q3 9 15 20.5t25 11.5q6 0 14 -3q0 2 2.5 3t3.5 3
q7 -8 8.5 -7.5t1.5 -5.5h3q4 10 12 10q9 0 18 -8q-1 -1 -1 -3q4 -11 14 -35t19.5 -52.5t17 -56.5t7.5 -47q0 -14 -7 -21.5t-16 -13l-18.5 -11t-14.5 -15.5h-5q-2 -6 -2 -5q-7 3 -9 6t-8 4q-2 -6 -4 -14t-4 -15q-8 3 -10 3h-8q-1 -3 -2 -7t-1 -8q-6 2 -8 3q-10 -10 -24 -10
q-3 0 -6 0.5t-7 0.5z" />
    <glyph glyph-name="period" unicode="." horiz-adv-x="280" 
d="M107 -10q-6 3 -16.5 6.5l-21 7t-18.5 7.5t-8 9q-2 42 -7.5 69t-5.5 44q0 11 3.5 19.5t13 16t26 14t42.5 14.5q2 -5 2 -9t4 -4q12 10 17.5 15.5t11 7.5t13 2h23.5q11 0 18.5 -23.5t11.5 -52t5.5 -51.5l1.5 -23q0 -11 -10 -21t-26.5 -19t-37 -16.5t-42.5 -12.5z" />
    <glyph glyph-name="comma" unicode="," horiz-adv-x="346" 
d="M165 4q-23 4 -29 11q0 26 -1.5 57t-1.5 60q0 15 0.5 30.5t8.5 20.5q13 4 28.5 12.5t40.5 8.5q3 -4 5.5 -9.5t8.5 -7.5q-1 5 -2.5 10t-1.5 11q16 5 30.5 10t29.5 5q9 0 14.5 -20t8.5 -46.5t4 -54t1 -42.5v-29q-1 0 -3.5 -1.5t-3.5 -3.5q4 -15 4 -29q0 -33 -29 -44
q-20 -8 -33.5 -15t-20.5 -12q-3 -3 -12.5 -10.5t-10.5 -7.5h-1q-1 0 -3 -6.5l-4.5 -14t-4 -14l-1.5 -6.5q0 3 0.5 5t0.5 4q0 7 -4 7q-3 0 -8.5 -3t-9.5 -3q-5 0 -9 3.5t-14 14.5q-17 -24 -29 -24q-8 0 -13 8.5t-5 10.5t5 8t12 13.5l15 15.5t13 14q25 28 25 63z" />
    <glyph glyph-name="asterisk" unicode="*" 
d="M472 122q-5 4 -9 6v3h-11l-10.5 16.5t-8.5 16.5h-12q-2 8 -3.5 13t-8.5 11q-20 0 -32 8t-20 17l-14.5 17t-13.5 8q-8 0 -18.5 -11.5t-27.5 -40.5q-20 -20 -46 -26.5t-53 -7.5q-1 -1 -1 -2t-1 -2h-7v12q-16 -4 -29 -4q-16 0 -16 9q0 11 10 28t23.5 36.5t26 40t18.5 40.5
q-11 2 -41 8.5t-62 16t-57 20.5t-25 22q9 5 16 10.5t17 8.5v5q5 3 12 5.5t11 4.5v7h14q1 6 10.5 10.5t21.5 6.5t24 3t18 1q20 0 43.5 -1.5t52.5 -1.5q27 67 39 135q8 3 8.5 7t1.5 11q7 2 14 4.5t9 9.5h11q7 10 18.5 15t19.5 13q14 -3 36 -3.5t37 -2.5q14 -37 25 -74.5
t19 -79.5q43 0 90 5.5t80 10.5q5 0 8 1t6 1t9 -5t13 -14t12 -22.5t7 -29.5q0 -6 -1 -7.5t-8 -1.5q-18 -5 -46 -8.5t-56.5 -6.5t-53.5 -5t-36 -3v-11q0 -33 13.5 -62t30 -53.5l30.5 -45t14 -36.5q0 -17 -17 -27t-63 -19q-11 4 -17 11t-15 12v-10q-2 -2 -4.5 -2t-2.5 -4h-10
v-9q-2 -2 -3 -2t-2 -1t-2 -1v-4h-5z" />
    <glyph glyph-name="plus" unicode="+" horiz-adv-x="839" 
d="M802 414q8 -11 8 -12l-1 2q0 -3 5 -12l-6 -3q0 -2 3 -3.5t3 -8.5q-5 0 -8.5 -1t-6.5 -1q-2 1 -2 1.5t-1 1.5l-1 1l2 -4q2 -4 2 -6q0 -7 -10 -7q-35 0 -68 2.5t-65 2.5q-39 0 -77.5 -1t-80.5 -1q8 -59 19.5 -113t31.5 -86l3.5 -14t1.5 -12q0 -11 -7 -18.5t-17 -13
t-21 -8.5t-20 -5q-3 4 -5 6t-3 4q-6 -13 -13.5 -18.5t-16.5 -8t-18.5 -3t-20.5 -4.5l-14 6t-14 8l-19.5 139t-21.5 139q-19 -1 -36 -1h-34q-40 0 -77.5 1t-78.5 3l-7 6l-15 13.5l-14.5 14l-6.5 6.5q-2 -2 -4 -2t-4 -1q-16 11 -20.5 15.5t-4.5 8.5t2.5 4t2.5 5t-4 14.5
t-4 12.5q0 4 10 7t27 5t38.5 2.5t45.5 0.5q34 0 74.5 -1t88.5 -1q-8 35 -16 76.5t-8 73.5q0 9 6.5 21t32.5 18v5q33 6 44 10t20 4q15 -1 26 -5q10 -3 18.5 -8.5t8.5 -16.5l6 -42.5t7 -42.5l8.5 -46l9.5 -53q51 -3 96.5 -5t81.5 -4t61 -3t36 -1l7 -7q32 0 32 -10
q0 -3 -0.5 -6.5t-0.5 -7.5q0 -9 4 -12z" />
    <glyph glyph-name="hyphen" unicode="-" horiz-adv-x="463" 
d="M434 377q-19 -18 -19 -20h1q2 0 5.5 1t6.5 1q8 0 8 -8q0 -12 -10.5 -21.5t-10.5 -13.5q0 -2 0.5 -2t0.5 -1q0 -3 -5 -3q-7 0 -12 1q-3 -3 -5 -9q-2 0 -11 -0.5t-23 -1t-31 -1t-35 -1.5q-41 -2 -92 -3h6q0 1 -74 6q-90 6 -106 27q8 25 9.5 38.5t4.5 24t11 23.5t30 39l6 -3
l3.5 3.5t2.5 4.5q5 0 21 -1t33 -2.5t30 -3.5t13 -3q0 -2 -5 -3t-5 -3t9.5 -3.5t33.5 -1.5q54 0 105.5 2t87.5 8q2 0 4 0.5t4 0.5q9 0 9 -6q0 -3 -4 -10t-4 -8h1l5 5q3 -1 11 -3q0 -7 0.5 -9.5t2 -3.5t4 -2t6.5 -4q-5 -17 -9 -17q-1 0 -1.5 1t-1.5 1q-4 0 -11 -15z" />
    <glyph glyph-name="slash" unicode="/" horiz-adv-x="511" 
d="M-6 -23q-12 0 -16.5 -2t-6.5 -5t-3.5 -5t-6.5 -2q-6 0 -13 3q2 7 3.5 10.5t1.5 5.5q0 5 -9 11q2 3 5 10t9 6h-4q-4 0 -8.5 1.5t-4.5 7.5q0 7 9 19q41 45 90.5 110.5l101 139.5l102 150.5l93 142.5l74.5 116l47 72q6 1 9 2.5t4 3t1.5 3.5t2.5 5q30 9 47.5 12.5t28.5 3.5
q4 0 15.5 -2.5t23.5 -6.5t21.5 -9t9.5 -11q0 -15 -20 -53t-53.5 -90.5l-77 -115.5l-90 -128.5l-93 -129l-86 -117l-69 -93.5l-42.5 -57q-8 0 -13 -3.5t-8 -8t-4.5 -8t-2.5 -3.5q-2 0 -3 3t-6 3q-4 0 -10 -2.5t-17 -10.5q-19 1 -19 8q0 8 9 16t9 10l-1 1q-3 0 -30 -13z" />
    <glyph glyph-name="zero" unicode="0" horiz-adv-x="718" 
d="M708 498q53 -94 53 -182q0 -82 -34 -154t-87.5 -125.5t-119.5 -84.5t-129 -31q-40 0 -86.5 12.5t-93.5 36t-90.5 57.5t-77 76.5t-53.5 92.5t-20 106q0 13 2.5 33t6.5 39t8 32.5t7 13.5t10 -7q22 61 60.5 114t86.5 92t102 61.5t108 22.5h11v-14q9 1 18 1.5t18 0.5
q44 0 91 -14q26 13 57 13q14 0 31 -3q-5 -8 -6 -14l3 -6q31 9 41 9q2 0 12 -3.5t29 -13.5q9 -6 9 -15q0 -11 -7.5 -29l-15.5 -39q17 -19 31 -39t25 -39zM342 298q-3 6 -11.5 16.5l-17 21l-15 18t-6.5 9.5q0 3 4 8q21 39 41 82t41 82q-4 -2 -7.5 -5.5l-7.5 -7.5q-9 9 -20 9
h-5q-12 0 -16 14q-13 0 -25 -11t-23 -25.5l-22.5 -28.5t-24.5 -20q-8 -3 -16 -17.5t-15 -37t-11.5 -52t-4.5 -62.5q0 -39 7.5 -79.5t25.5 -73.5t47.5 -54t72.5 -21q63 0 107.5 26t73 69t41.5 97t13 111q0 11 -0.5 22.5t-1.5 22.5l-31.5 -57.5l-20.5 -36t-14 -19.5t-12 -6
q-15 -3 -30 -5.5t-32 -2.5t-37.5 3t-46.5 11z" />
    <glyph glyph-name="one" unicode="1" horiz-adv-x="362" 
d="M115 787q38 -1 76.5 -15.5t64.5 -47.5q4 -4 11 -31t15.5 -69l18.5 -96l20 -112.5t18.5 -117.5l15.5 -111.5t11 -95t4 -66.5q0 -29 -3.5 -50.5t-9.5 -35.5q-21 -5 -35 -11l-24.5 -10.5t-19 -7.5t-18.5 -3q-11 0 -26.5 4t-40.5 14q0 3 1 6t1 7q-2 2 -5 2.5t-6 1.5
l-24 182.5t-48 320.5q-5 34 -10.5 63t-7.5 54q-11 -11 -12 -11q-2 0 -1.5 2t-0.5 2q-2 0 -8 -10q-8 -11 -12.5 -14.5t-7.5 -3.5q-4 0 -6 3.5l-4.5 8t-6 8.5t-9.5 4q-3 0 -6.5 -1.5t-8.5 -1.5q-13 0 -28 6t-28 13.5t-22 14.5t-9 9q0 8 8 23.5t21 34l27.5 37.5t28.5 35l24 27
t13 12q3 13 11.5 18.5t19 7.5t21.5 1.5t17 -0.5z" />
    <glyph glyph-name="two" unicode="2" horiz-adv-x="688" 
d="M654 -83q-80 13 -160 23.5t-160 22.5t-159 27.5t-156 40.5q-2 0 -7 6l-10.5 13t-10 13.5t-5.5 6.5q0 1 -0.5 2t-0.5 2q0 14 25 39.5t63.5 53t85.5 51.5t91 35q43 10 83 36t71 58t50 66.5t19 62.5q0 16 -5.5 33t-14.5 33t-21.5 28.5t-27.5 20.5l-23 11.5t-38 17t-42 15.5
t-35 7q-16 0 -28 -18q-38 -59 -56 -93t-18 -59q0 -17 6.5 -27t16 -19.5l21 -20.5t20.5 -29h-21v-21q-32 -11 -50.5 -24.5t-30.5 -25t-22 -19t-24 -7.5q-13 0 -32 7.5t-37.5 19.5t-32.5 26t-18 26t-5.5 26t-1.5 29q0 43 14 88.5t39 87t60 75.5t78 54q45 21 101.5 37t110.5 16
q65 0 127.5 -21.5t104.5 -64.5q42 -42 62.5 -84.5t20.5 -81.5q0 -69 -39.5 -129.5t-101 -110.5t-136.5 -88t-146 -61q3 -13 30 -25t68 -22t92.5 -19t105 -16t104 -12l90 -9t63 -5.5t22.5 -1.5q3 -11 4 -19.5t1 -18.5v-30l-35 -9.5t-29 -7t-40.5 -7.5z" />
    <glyph glyph-name="three" unicode="3" horiz-adv-x="796" 
d="M331 -58q-93 5 -164 25t-118.5 50t-72 69.5t-24.5 83.5q0 14 2 28.5t12 24.5q24 24 68.5 51t113.5 43q8 -11 18 -18.5t27 -24.5q-26 -29 -41.5 -48.5t-15.5 -38.5q0 -23 16 -42.5t42.5 -35t61 -27.5t71.5 -19.5t74 -11.5t68 -4q51 0 97.5 7t82 22t56.5 37t21 52
q0 10 -2.5 20.5t-7.5 22.5h-13v12h-13v15q-60 27 -119 43.5t-118 29.5l-119 26t-122 33q2 26 4.5 37t22.5 15v15q23 2 63 13t80.5 25.5t74 29.5t44.5 25q-18 17 -47.5 33t-65 29.5t-74.5 25t-77 19t-72 12t-59 4.5q16 -17 24.5 -25t16.5 -14t19.5 -13.5l34.5 -22.5
q-2 -7 -2 -13v-12v-17h-42q-3 -14 -20 -22.5t-47 -8.5q-26 0 -55.5 11t-54.5 29t-41 41t-16 47q0 26 23.5 54t80.5 51q17 7 28.5 9t24.5 3h9.5t9.5 -1q65 -7 148.5 -18.5t167.5 -32t159 -52t122 -78.5q11 -10 11 -22q0 -11 -8 -21t-20 -19q-22 -17 -44 -27t-45.5 -17
t-48 -12.5t-51.5 -12.5v-15q66 -14 136.5 -32t131 -46.5t104.5 -69.5t57 -100v-6q0 -9 -4.5 -16t-10.5 -15l-13 -17t-12 -21q-33 -31 -85.5 -59t-120.5 -49t-149.5 -33.5t-173.5 -12.5h-19z" />
    <glyph glyph-name="four" unicode="4" horiz-adv-x="661" 
d="M317 -50q3 57 9.5 111t20.5 111q-56 -2 -118 -4.5t-132 -2.5q-119 0 -210 36q0 28 3 49t11 47h13l25.5 53l25.5 53q28 19 53 51.5t49 70.5l48 78.5t51 75.5l33 39.5t37 34.5t43.5 24t53.5 9q8 0 15.5 -0.5t15.5 -1.5v-14q9 -3 17.5 -6.5t17.5 -5.5q1 -8 2 -15t3 -15h-13
q-31 -58 -67.5 -113l-75 -109.5l-76.5 -109.5t-71 -113q32 0 74.5 -2.5t95.5 -2.5q65 0 106 10l36.5 137.5t28.5 140.5l40 18l27 11.5t18 6.5t12 2q6 0 11.5 -2t14.5 -5t23 -7t37 -8q-5 -71 -20 -136.5t-26 -134.5q46 9 88 22.5t79 13.5q1 -16 6.5 -29t5.5 -25q0 -17 -6 -26
t-13 -11q-48 -20 -100.5 -31.5t-94.5 -22.5q-6 -23 -10.5 -55.5l-9 -66t-10 -64t-14.5 -49.5q-10 0 -20.5 -0.5t-19.5 -2.5v-14h-45q-12 0 -49 9v-15q-17 -3 -22 -3h-2q-1 0 -1 1v1q0 2 -24 7z" />
    <glyph glyph-name="seven" unicode="7" horiz-adv-x="697" 
d="M364 -61l-20 6t-19 6q0 72 6 139t21 139l-39.5 13.5t-56 20.5t-50 21.5t-21.5 16.5h14q2 9 3 18t3 17h20q2 6 4 11t6.5 8.5t13 5t23.5 1.5q29 0 55.5 -5.5t56.5 -22.5l33.5 70.5t27 51.5l29.5 52.5l42 73.5q-29 -3 -60 -3q-45 0 -94 5t-95 13t-87 17.5t-71 19.5l42 -55.5
l24.5 -32.5t16.5 -24l18 -29q-22 -11 -41 -16t-39 -5q-19 0 -41.5 1t-48.5 1q-15 23 -41 50.5t-51 57.5t-43 61t-18 61q0 14 12 23t28.5 14t33.5 7t26 2h16q38 0 98.5 -7t137.5 -31q63 -20 118 -30.5t101 -10.5q33 0 65.5 5t65.5 12q11 2 20 6l18.5 8.5t19.5 8t23 3.5
q10 0 20.5 -1t20.5 -1q9 0 13 1q5 -6 16 -16t22 -22t19.5 -24t8.5 -22v-4q-39 -25 -71 -67t-57.5 -90t-45.5 -96l-35 -85q34 -1 52 -0.5t30.5 -1t27 -6t42.5 -14.5v-13q6 -2 6 -5q0 -2 -3.5 -4.5t-3.5 -7.5t4 -6t12 -4v-15q-12 -6 -12 -10v-2q0 -3 -7.5 -5t-18 -3.5
t-21.5 -2t-17 -0.5q-26 0 -56 3.5t-72 5.5q-12 -60 -18 -118.5t-9 -119.5h-13q0 -10 -1 -12t-5 -2v14h-14v-14q-17 -3 -29 -3q-16 0 -25 3.5t-20 3.5q-18 0 -46 -9z" />
    <glyph glyph-name="six" unicode="6" horiz-adv-x="671" 
d="M187 -74q-21 7 -41.5 16.5t-39 21t-32.5 26t-21 32.5h-13q-14 37 -29.5 70t-28.5 64t-21 61t-8 60q0 67 30.5 144.5t94.5 176.5h15q5 17 11.5 21l20.5 13v12q26 18 66.5 41.5t87 44t94.5 34.5t90 14q58 0 97 -23t56 -85q-14 -3 -29.5 -5.5t-35.5 -2.5h-10.5t-11.5 1
q-5 0 -10.5 3.5t-12 7l-12.5 7t-11 3.5q-16 0 -31.5 -7t-32.5 -13q-32 -11 -64.5 -33.5t-62 -53.5t-53 -69t-36.5 -81q75 12 137 12q39 0 75.5 -5t73 -16.5t74.5 -30.5t80 -47v-13q47 -12 63.5 -42.5t16.5 -74.5q0 -30 -9 -63t-22 -63t-29 -55t-29 -38q-4 -18 -24 -31
t-49 -22t-65.5 -14.5t-73.5 -8.5t-72 -4t-62 -1t-49.5 2.5t-51.5 13.5zM288 10q13 -7 21 -8.5t17 -1.5q60 0 96.5 19t57 46t27 57t6.5 53q0 42 -17.5 74t-47.5 53.5t-70.5 33t-86.5 11.5q-41 0 -69 -20t-50 -73h-14q6 -84 35 -144.5t95 -99.5z" />
    <glyph glyph-name="nine" unicode="9" horiz-adv-x="620" 
d="M504 -131v12q-11 5 -31 6v19q-13 7 -18.5 10.5t-9 6t-9 4.5t-18.5 5v18q-5 0 -7 -6.5t-5 -6.5v19h-19v12h-13q4 72 9 141t9 138q-85 -32 -151 -32q-59 0 -111.5 23t-94.5 61l-43 38t-35 39t-24 47t-9 62q0 59 26.5 105t97.5 87q1 -1 21.5 8t48 19.5t56.5 19.5t46 9v11
q28 8 64 11.5t77 3.5q46 0 95.5 -5t97.5 -16t91.5 -27.5t78.5 -39.5l-42 -73q-33 11 -65.5 16.5t-68.5 8.5q10 -2 21 -4.5t23 -4.5q2 -8 6.5 -12t10.5 -5t11.5 -1h8.5v-19h13q7 -18 7 -46q0 -25 -7 -58.5t-17.5 -72.5l-22.5 -82t-21 -87q-11 -50 -15 -100t-7 -97.5
t-7.5 -89.5t-15.5 -75h-32zM495 620q-10 0 -41.5 -2t-65.5 -7t-62 -13t-31 -19q-4 1 -7.5 2t-6.5 2q-1 -3 -1.5 -6.5t-1.5 -5.5q-4 0 -6 6q-35 -18 -66.5 -36t-56.5 -40.5t-42 -52t-24 -71.5q7 -6 14 -13t15 -14q54 8 109.5 27.5t103.5 43.5v13q40 28 71.5 57.5t65.5 66.5
h18q1 13 8 31t7 31zM486 620q-31 0 -31 -3t31 -3v6z" />
    <glyph glyph-name="eight" unicode="8" horiz-adv-x="599" 
d="M193 -72q-15 5 -26.5 9.5t-25 10.5l-33 15l-50.5 23v13q-67 29 -91.5 57.5t-24.5 63.5q0 28 17 57t41 57t51 55t47 52q-18 7 -36 11.5t-35.5 9.5t-34 12.5t-31.5 20.5l-2 -1q-12 0 -21 11t-15 25t-9 28.5t-3 20.5q0 42 30 74.5t78 47.5q7 2 7 6q0 2 -7 9q13 6 37.5 14
l54.5 18t62 22t59.5 24.5t46.5 26t24 27.5l78.5 21.5t69.5 10.5q25 0 43 -7q43 -19 78 -36t59.5 -36t38 -41.5t13.5 -52.5q0 -17 -10.5 -31.5t-27 -28.5t-37.5 -28.5l-43 -30.5q-15 -12 -35 -22.5t-43 -20.5l-47.5 -20t-48.5 -22v-13q16 -8 32 -14.5l32 -12.5q2 -7 6 -14
q81 -49 116.5 -98.5t35.5 -94.5q0 -44 -28.5 -81t-76.5 -62l-106 -57.5t-113 -44.5q-12 -3 -22 -3q-19 0 -36 6zM361 44q13 2 25.5 9.5t25.5 9.5q-12 48 -31 81.5t-45.5 58.5t-61.5 45t-79 42q-18 -24 -26 -44.5t-8 -39.5q0 -30 19 -54.5t48 -44t64.5 -35t68.5 -28.5z
M265 441q25 8 40 13.5t31.5 13.5t40 20.5t66.5 33.5v14q4 3 10.5 6.5l12.5 6.5q-3 13 -4.5 20.5t-4.5 14l-7.5 16.5t-13.5 28q-7 -1 -19.5 -2.5t-24.5 -3.5t-21 -5.5t-9 -8.5q0 -3 2 -3h1q1 0 1 -1q0 -13 -9.5 -20.5t-21 -11t-20 -4.5t-6.5 -1q-5 0 -11 1t-23 1q-2 19 -9 22
t-9 5v12q-5 1 -10.5 1.5t-10.5 0.5q-11 0 -24 -2.5t-25.5 -6l-22.5 -6.5t-14 -4q-26 -9 -26 -35q0 -12 5.5 -26.5t16.5 -28t26 -25t35 -15.5q16 -4 30 -8.5t28 -11.5z" />
    <glyph glyph-name="at" unicode="@" horiz-adv-x="1276" 
d="M526 -156q-124 0 -225 27.5t-172 76t-110 115.5t-39 146t48 177.5t156 209.5l6 15h13q3 15 9 18t18 7v15l31 21t15 10t9 4t12 4v14q80 56 156.5 93t148 59t137.5 31t125 9q74 0 140 -15.5t117.5 -45t86.5 -72t47 -96.5q12 -55 20.5 -110.5t8.5 -110.5q0 -65 -10 -119
t-32.5 -93.5t-60 -64t-92.5 -29.5q-35 -3 -71 -3q-29 0 -54 3.5t-50 10.5t-52 18t-59 27q-24 0 -24 -5q0 -2 2 -4.5t2 -4.5q0 -5 -17 -11v-14q-104 -50 -197 -50q-97 0 -177 56q0 3 -0.5 11.5t-0.5 11.5h-12q-10 29 -13.5 52.5t-3.5 48.5q0 17 1 34t3 37q4 2 7 3t7 2
q9 33 36.5 71.5t64.5 73t77.5 59.5t75.5 33q55 11 115 11q39 0 72.5 -4.5t59 -14t41.5 -24.5t20 -36q-3 -3 -3 -6q0 -6 7 -16t7 -15q0 -7 -7.5 -11.5t-18 -8.5t-20.5 -7t-14 -7q0 -46 3.5 -74.5t15 -50t33.5 -42t58 -49.5q6 2 8 2q8 0 15.5 -6.5t13.5 -6.5q20 0 32.5 25
t19.5 58.5t10 66.5t4 49q0 54 -11.5 111t-32.5 106.5t-51 86.5t-66 50q-42 14 -85 14q-50 0 -107 -19t-116.5 -49.5t-118.5 -67.5l-112 -73q-47 -32 -85.5 -70t-65.5 -80t-42 -88t-15 -93q0 -69 22.5 -130t70 -106t121 -71.5t176.5 -26.5q20 0 40 1t41 4l114 14.5t126 33.5
t133 69.5t143 98.5q5 -9 6 -11t7 -2v13h26q0 -21 1 -21t4.5 10.5t7.5 10.5q1 -6 8 -9.5t16.5 -6.5t18.5 -5.5t14 -4.5q-2 -8 -2.5 -16t-0.5 -17q-8 -2 -16 -5.5t-18 -8.5v-13q-31 -19 -56.5 -42t-57.5 -37v-13h-21v-14q-67 -31 -131 -54.5t-130 -35.5q-79 -15 -161.5 -17
t-173.5 -5zM568 202q46 9 69.5 36t34 63t11.5 77t2 78q4 2 7.5 3t7.5 2v20h20v13l22.5 3t11 2t6.5 3l9 6q-20 14 -40 14q-15 0 -29.5 -6.5t-27.5 -17t-22.5 -24t-15.5 -26.5h-14q-13 -29 -26 -50.5l-23 -39.5t-16 -35.5t-6 -38.5q0 -17 4 -36.5t15 -45.5z" />
    <glyph glyph-name="Q" unicode="Q" horiz-adv-x="788" 
d="M618 -360l-5 23.5t-11 55l-12.5 64.5l-10.5 54q-4 19 -11 57l-14 78.5l-13.5 76t-8.5 50.5h-6q-9 29 -14.5 44t-7.5 22.5t-2.5 10.5t-0.5 9h-5q-6 0 -16 -4.5t-21.5 -10.5l-22 -11.5t-17.5 -8.5q-51 -18 -94.5 -26t-87.5 -8q-50 0 -99 12.5t-104 34.5q-1 2 -1 4t-1 5
q-48 17 -70 53t-22 81q0 31 11 67t31.5 71.5t49.5 68t65 57.5t78 40t89 15q39 0 81.5 -12.5t86.5 -41.5t88 -76t87 -116q1 0 4 -1t5 -1q0 29 1 50.5t1 44.5v17t-1 19q25 5 38 26l32 -2l16 -9q1 1 1 2.5t2 3.5q18 -3 34 -9q2 -26 6 -67l8 -85.5l8 -85.5t6 -65q2 0 5 -22
t5.5 -56t4.5 -76t3.5 -82t2.5 -73t1 -49q0 -27 -1.5 -47t-3 -37t-2.5 -34.5t-1 -40.5q-14 -13 -22.5 -18.5t-16 -8t-16.5 -4.5t-22 -8v5q-11 -2 -28 -9t-29 -11v-6h-30zM237 231q23 -9 49 -15t56 -6q36 0 66.5 10.5t58.5 24.5q-6 57 -40 108t-80.5 89.5t-96.5 61t-86 22.5
q-15 0 -29.5 -3.5t-26 -12t-18.5 -22t-7 -33.5q0 -40 29 -112q29 -45 58.5 -71t66.5 -41z" />
    <glyph glyph-name="colon" unicode=":" horiz-adv-x="265" 
d="M125 84q-6 2 -16.5 4.5l-22 5t-22 6.5t-14.5 9q0 22 -2.5 46t-2.5 47q0 19 3 36.5t12 31t24.5 21t40.5 7.5q4 -6 6 -11t8 -7l-2 10t-2 11q18 7 32.5 11t35.5 4q12 -37 16.5 -73.5t4.5 -73.5v-22t-1 -22q-21 -17 -46 -25.5t-52 -15.5zM110 374q-11 8 -30.5 17t-30.5 13
q-2 47 -8 75t-6 46q0 10 3.5 18.5t13.5 15.5t26.5 14t42.5 15v-11q1 -2 2 -2t2 -1l1 -1q13 12 18.5 17.5t11.5 7.5t15.5 1.5t29.5 0.5q25 -75 25 -123q0 -38 -25 -62t-91 -41z" />
    <glyph glyph-name="ampersand" unicode="&#x26;" 
d="M369 8q-6 15 -30 34t-56.5 40.5l-68.5 44.5t-67 46q-20 15 -39 32t-33.5 34.5t-23 34.5t-8.5 32q0 27 19.5 47t67.5 49q31 19 31 22q-32 21 -66.5 39.5t-63.5 37.5t-47.5 39.5t-18.5 43.5q0 13 5 24.5t15.5 24t26.5 27.5l37 36q10 -2 12 -4q0 3 1 5.5t1 5.5q-1 0 -1 1
q0 4 25.5 18t67 29t94.5 26.5t109 11.5q29 0 70 -8.5t83.5 -24t80.5 -38t61 -50.5q13 -16 13 -28q0 -14 -19.5 -32.5t-49 -37.5t-65 -38t-67.5 -33.5t-56.5 -23.5t-31.5 -9v-10q9 -2 20 -7t22 -11l22 -11.5t20 -8.5q5 7 5 17t6 19q13 1 22 3.5t17.5 4l17 3t20.5 1.5h10.5
t11.5 -1q10 -16 16 -35t9.5 -38.5t5.5 -40t5 -39.5q12 -8 33 -20.5l45 -27.5l49 -32t45 -33.5t33 -32.5t13 -28q-7 -5 -21.5 -11l-28.5 -11.5l-25 -10t-11 -6.5q-3 -1 -8 -1q-10 0 -24 5t-29 12l-27.5 13t-19.5 9l-12.5 -52t-18 -47t-31 -34t-52.5 -13l-18 -17.5t-16 -9.5
q-22 0 -35 5t-24 11.5l-23.5 14t-31.5 13.5zM441 142q18 -15 22 -15q1 0 1 2q0 3 -1 7.5t-1 10.5v7.5t1 8.5q0 18 -4 31t-10 23.5l-11.5 21t-8.5 23.5q-3 1 -29.5 17.5t-60.5 35.5l-65.5 35t-44.5 16q-23 0 -23 -29q0 -14 6.5 -25t18.5 -22q10 -9 37.5 -28.5l60 -41
l63.5 -43t49 -35.5zM301 504q12 7 42.5 22l63 31t57 31t24.5 24q0 24 -13.5 41t-36.5 27t-52.5 14.5t-61.5 4.5q-30 0 -64 -4t-62.5 -10.5t-47 -14.5t-18.5 -16q0 -23 20.5 -45.5t48 -42.5t56 -36t44.5 -26z" />
    <glyph glyph-name="Adieresis" unicode="&#xc4;" horiz-adv-x="708" 
d="M229 129q3 -3 8 -3q8 0 17 7t20 12q17 7 37 23.5t40.5 38.5t39 47.5t33 50t23.5 46t9 35.5q0 11 -6 17q0 13 2 21.5t2 20.5q-8 5 -18.5 6.5t-23.5 1.5q-28 0 -60.5 -6.5t-65 -18.5t-62.5 -29.5t-53.5 -39t-37.5 -47.5t-14 -54q0 -61 110 -129zM670 498l16 -93t18 -93
t22.5 -91t30.5 -86q1 -2 1 -6q0 -7 -14 -21q-20 -19 -33.5 -30.5t-23 -18t-18 -9t-17.5 -2.5v-17h-10v-10q-17 4 -25 9.5t-20 6.5v11q-7 15 -10 28.5t-5 26l-4 24t-7 23.5q-3 4 -5.5 13l-5.5 19.5t-6.5 21t-9.5 18.5v4q0 1 -3 4q-5 0 -17.5 -12t-26 -27.5t-25.5 -31
t-16 -22.5h-5q-32 -39 -68 -69.5t-74 -52t-76 -33t-74 -11.5q-64 0 -115 38.5t-75 123.5q-13 43 -13 78q0 51 27.5 97t72 85.5t102.5 72t118.5 57t120 40t107.5 21.5q3 6 3.5 10t2 6.5t5 3.5t12.5 1h24h5q0 -5 5.5 -6.5t3.5 -1.5q7 0 8 4q32 -3 62 -11.5l53 -15.5
q-3 -8 -3 -15q0 -11 6 -18q-3 -2 -5.5 -4t-4.5 -4q1 -5 1 -9.5v-6.5q0 -1 -4.5 -7.5t-7.5 -11.5zM311 606l-15.5 35t-9 23t-6.5 24.5t-8 39.5q-2 10 -3.5 23t-7.5 15q-8 -23 -24 -39t-25 -34q-4 0 -8.5 1t-9.5 1q0 -4 0.5 -7t0.5 -7t-0.5 -13.5t-3.5 -9.5q-2 0 -8 2
q-5 -7 -10.5 -15.5t-12 -16t-14 -13t-15.5 -5.5q-11 0 -20.5 26.5t-17.5 61t-12.5 68.5t-4.5 49q0 2 -0.5 4.5t0.5 4.5l-1 1q-1 1 -1.5 1t-1.5 2q0 3 1 5t2 5q8 -2 9.5 -2.5t4.5 -2.5q5 24 13 37l20 31q1 -1 1 -1.5t1 -1.5q5 17 19 19t27 2q20 0 31 -9.5t14 -41.5
q6 -2 14 -6q1 4 1.5 6.5t2.5 6.5q4 -10 7 -22t10 -18v-5q2 2 3 2q3 45 12 92q3 0 6.5 4t6.5 9t5 9t3 4q5 0 7.5 4t5.5 8h5q2 5 4 9l3 6h6q8 28 30 28q7 0 15 -5q7 7 7 8q8 0 11 -9t4 -9q4 14 13 14q8 0 18 -10v-5q6 -15 16.5 -46.5t21 -68.5t18 -73t7.5 -58q0 -18 -8.5 -29
t-19.5 -19.5l-21 -16t-12 -17.5h-5q-3 -3 -3 -6q-7 3 -9 8t-9 6q-2 -9 -4 -19.5t-5 -18.5q-8 3 -10.5 3h-8.5q-2 -4 -2.5 -9.5t-1.5 -10.5l-9 3q-7 -8 -13.5 -10t-14.5 -2q-2 0 -5 0.5t-6 0.5z" />
    <glyph glyph-name="Aring" unicode="&#xc5;" horiz-adv-x="703" 
d="M222 128q3 -3 7 -3q8 0 18 7t19 11q18 7 39 24t41.5 39.5t39 48t33 50.5t23 46.5t8.5 35.5q0 9 -5 16q0 14 2 22.5t2 19.5q-18 10 -46 10q-44 0 -95 -15.5t-95 -42t-73 -62.5t-29 -77q0 -63 111 -130zM56 855q63 39 125.5 54t129.5 15q34 0 68 -3t64.5 -12t55 -25
t39.5 -42q30 -54 30 -99q0 -26 -11.5 -51.5t-30.5 -47t-42 -39.5t-45 -29q16 4 31.5 6.5t29.5 4.5q0 11 3 15.5t19 4.5h23.5t14.5 -8q2 0 3 -0.5t2 -0.5q2 0 4 6q32 -4 62.5 -12t53.5 -16q-3 -9 -3 -15q0 -11 6 -18q-4 -3 -9 -8v-17q0 -1 -4.5 -7t-7.5 -12l14 -84t15 -86
t19 -85t27 -80q5 -13 9 -20.5t4 -15.5q0 -10 -13 -22q-36 -35 -53.5 -48t-33.5 -13q-2 0 -3 0.5t-3 0.5v-17h-11v-11q-17 4 -24.5 9.5t-20.5 6.5v12q-6 15 -9 28.5t-5 25.5l-4 24t-7 24q-3 4 -5.5 13.5l-5.5 20t-7.5 21t-10.5 18.5l2 4l-5 5q-4 0 -16.5 -12t-26 -28
l-25.5 -31.5t-16 -22.5h-6q-65 -80 -143 -124.5t-151 -44.5q-64 0 -116 39t-77 125q-13 43 -13 78q0 41 22.5 85.5t67 88t111.5 83.5t157 72q-11 -1 -22 -1h-22q-33 0 -65 2.5t-60 8.5t-50 16t-35 25q-24 27 -41.5 56t-22.5 74q-1 17 -3 33.5t-6 25.5q13 10 23.5 24.5l22 31
l24.5 33.5t31 31v-4q8 4 14 4q-4 -5 -10 -9.5l-12 -9t-10 -10.5t-4 -14zM168 661q3 -7 10 -16.5t17 -18.5t22 -15t23 -6q19 0 39.5 11.5t38.5 29t31.5 39t19.5 42.5h4v-5q13 23 13 42q0 17 -9.5 28.5t-24 18t-32 9.5t-33.5 3q-22 0 -46 -9.5t-43.5 -25t-32 -36.5t-12.5 -43
q0 -24 15 -48z" />
    <glyph glyph-name="Odieresis" unicode="&#xd6;" horiz-adv-x="619" 
d="M276 90q34 -9 64 -9q43 0 71.5 19.5t45 48t23 62t6.5 62.5q0 55 -10 84t-23.5 45t-29 25.5t-25.5 26.5q-20 32 -46 32q-7 -13 -16 -13h-6q-9 0 -16 -7q-25 19 -27 19v-1v-1q1 1 -10 17q-17 -5 -41 -9t-46.5 -10t-38.5 -13.5t-17 -18.5v2q1 0 -2 -9.5t-6.5 -25.5
t-6.5 -37.5t-3 -44.5q0 -39 9 -78t28 -72.5t49.5 -58.5t73.5 -35zM8 419q15 24 37.5 49t52 46t66 35.5t80.5 18.5q-11 15 -16 23.5t-8 17t-4.5 20.5t-3.5 36q-4 4 -5 9.5t-1.5 11.5t-1.5 11t-5 7q-8 -23 -23 -39t-24 -35q-11 3 -16 3v-13q0 -4 -0.5 -14t-3.5 -10q-2 0 -8 2
l-9.5 -15t-11.5 -16.5t-13 -13t-14 -5.5q-9 0 -18.5 25.5t-17 59t-12.5 67t-5 49.5q0 9 1 13q-1 1 -2 1.5t-2 2.5q1 3 1.5 5t0.5 5q9 -2 10 -2.5t4 -2.5q5 24 12.5 37t19.5 31q1 -1 1 -3q5 7 5 14q11 3 20.5 5t19.5 2q19 0 29 -9.5t13 -41.5q8 -3 13 -6q0 3 1 6l2 6
q4 -9 7 -21t10 -18v-5l2 1q1 46 12 93q3 0 6 4t5.5 9t5 9t4.5 4q5 0 6 3.5t5 8.5h4q1 5 5.5 12t10.5 14t13 11.5t13 4.5q8 0 13 -4q2 2 3.5 4t3.5 4q6 0 7.5 -3t2 -6l1 -6t3.5 -3q5 14 13 14q6 0 17 -11v-1q0 -1 -0.5 -1.5t-0.5 -1.5q1 0 6.5 -17t12.5 -41.5l14.5 -52
t12.5 -48.5q6 -25 10 -48t4 -40q0 -21 -7.5 -31t-17 -17l-19.5 -14t-14 -20h-5q0 -1 -1 -2.5t-1 -2.5q-6 3 -8.5 8t-8.5 6v-2q0 -4 3.5 -7.5t8 -7t8 -6.5t3.5 -6v-1q43 -5 86 -24t81.5 -48.5t69.5 -68.5t49 -82q5 5 8 5t7 -10.5t7 -25.5t5.5 -31t2.5 -26q0 -44 -18 -82.5
t-48 -71.5t-68.5 -59t-80.5 -44.5t-83.5 -28t-77.5 -9.5q-57 0 -115 25t-104.5 67t-75.5 97.5t-29 117.5q0 70 47 141z" />
    <glyph glyph-name="a" unicode="a" horiz-adv-x="677" 
d="M179 129q3 -3 8 -3q8 0 17 7t19 11q27 10 58.5 41.5t59 69t46 74t18.5 57.5q0 9 -5 16q0 13 2 22t2 21q-8 5 -18.5 6.5t-23.5 1.5q-28 0 -60.5 -6.5t-65 -18.5t-62.5 -29.5t-53.5 -39t-37.5 -47.5t-14 -54q0 -61 110 -129zM608 491q9 -46 17 -92.5t17.5 -92t22.5 -90.5
t31 -87q1 -2 1 -6q0 -9 -13 -21q-15 -16 -26.5 -26.5t-21 -16.5t-17.5 -8.5t-17 -2.5v-17h-11v-10q-17 4 -24.5 9t-20.5 7v11q-6 15 -9 28.5t-5 25.5l-4 24t-6 24q-3 4 -5.5 13l-5.5 19.5t-7.5 21t-10.5 18.5l1 4l-4 4q-3 0 -15.5 -11.5t-27 -27.5t-26.5 -31.5t-15 -22.5h-6
q-32 -39 -67.5 -70t-73.5 -52.5t-76 -32.5t-74 -11q-63 0 -114 38.5t-76 123.5q-14 47 -14 80q0 29 13 60t39 69q36 52 98.5 93.5t133.5 72t141.5 50t123.5 26.5q2 10 3.5 15.5t18.5 5.5q24 0 32.5 -4.5t10.5 -4.5q1 0 4 5q31 -3 56 -14t47 -19q-2 -8 -2 -12q0 -12 6 -21
q-6 -4 -10 -8q1 -5 1.5 -9t0.5 -7q-4 -4 -14 -20z" />
    <glyph glyph-name="b" unicode="b" horiz-adv-x="700" 
d="M288 27q1 1 1 2q0 2 -13 13l-30.5 26.5t-34.5 34t-25 34.5q-6 -7 -9.5 -10t-8 -5t-12 -5t-22.5 -10q0 -12 -9 -12q-3 0 -7.5 1.5t-8.5 1.5q-13 0 -19 -28q-9 0 -17.5 -0.5t-16.5 -1.5q1 7 1.5 14.5t0.5 15.5q0 26 -7 59.5t-17.5 71.5t-23.5 79t-24 82q-4 12 -8.5 36
t-9.5 53.5l-10 62t-10 61.5l-9.5 53t-8.5 36t-8.5 32t-8.5 41t-6.5 39t-2.5 24t2 6t5.5 -6.5t6.5 -6.5q1 0 8 4t17 20q10 15 16 17l-6 6q7 13 18 18.5t23.5 7.5t26 1.5t27.5 -0.5q5 -18 8 -27.5t5.5 -14t4 -5t3.5 -0.5v17h6q3 -18 4 -27.5t1.5 -15t2 -8.5t6.5 -9
q6 -8 10 -20.5t6.5 -26l5 -27t5.5 -22.5q1 -3 3.5 -20.5l6 -43l8 -57l9.5 -64.5q11 -77 23 -172h11q5 8 10 12.5t10 8.5l11 8.5t14 11.5l27 25l21 19t20 19l24 25q5 5 24.5 19.5l41 30l38.5 28t18 12.5q22 18 45.5 31t51.5 18q0 8 0.5 10t4.5 2v-12q16 3 20 4t8 6
q-13 1 -14.5 2t-1.5 5h50q0 -3 6 -5.5t6 -5.5q23 -6 41.5 -31t31.5 -52t20.5 -48t9.5 -19q8 -35 11 -64.5t3 -55.5q0 -44 -8 -77.5t-20 -62.5t-26 -55.5t-26 -54.5q-10 -20 -26 -34.5t-34 -28t-35.5 -29t-31.5 -37.5q-4 -1 -8 -1q-2 0 -3 -1q-8 -21 -22 -30t-32 -9t-40 7.5
t-43 17.5t-38.5 21t-27.5 18q1 2 1.5 4t1.5 4q-17 3 -17.5 6t-5.5 13zM272 47q10 -10 13.5 -13t3.5 -5q0 -1 -1 -2q-12 3 -13.5 9.5zM463 121q17 -10 22 -10q2 0 8.5 2.5t17.5 7.5q44 19 61 57t17 83q0 37 -9.5 78t-24 75t-32 56.5t-33.5 22.5q-19 0 -40.5 -9t-41 -21.5
t-35.5 -26.5t-23 -23l-42.5 -55t-19.5 -42q0 -14 16 -38.5t41 -53t56 -56t62 -47.5z" />
    <glyph glyph-name="c" unicode="c" horiz-adv-x="571" 
d="M291 -32q-75 0 -129 14t-91 36.5t-59 50t-34 55t-16 52t-4 39.5q0 36 13 75t34 75t47 65.5t52 46.5q18 11 41 28t49.5 33t56 27.5t60.5 11.5q19 0 53 -8t68.5 -25.5t62.5 -45.5t36 -67l-4 -2t-5 -3q0 -10 1 -15q-4 4 -6 7q-23 -22 -48 -22q-21 0 -39 14q-2 -5 -4.5 -9.5
t-4.5 -9.5q-70 0 -114 74q-5 8 -12.5 11t-14.5 3q-16 0 -24 -10l-37.5 -46.5t-35.5 -48.5t-26.5 -52.5t-10.5 -57.5q0 -26 9 -54t29 -60h11q14 -29 36.5 -45.5t48.5 -24t55 -9t57 -1.5q25 0 52 5t52 14t46.5 20.5t37.5 23.5q0 3 2 3t3 -0.5t2 -0.5q3 0 5 3q1 -2 1 -5.5
t1 -7.5q5 1 11 1h11q18 0 32.5 -7t21.5 -30q-39 -40 -85.5 -64t-96 -36.5t-100.5 -16.5t-97 -4z" />
    <glyph glyph-name="d" unicode="d" horiz-adv-x="648" 
d="M175 -44q-47 3 -81.5 30t-57 68.5t-33.5 93t-11 102.5q0 40 6.5 79t20 73t32.5 61t45 44q35 23 62.5 38t52.5 24t48 13t49 4q33 0 74 -6q-9 27 -15.5 52t-9.5 41q4 3 10.5 12t6.5 15q0 4 -6 6q-4 15 -7 34t-3 38q0 20 3 35t28 20v8q4 3 14.5 10t16.5 7q0 -1 1.5 -5
t4 -8.5t5.5 -8.5t7 -4l-2 4v1q0 -1 1 -1t0.5 1.5t7.5 4.5q0 3 2 11h8q1 -3 3 -11h8q3 9 8 18h7q0 -1 0 3t1 4h6q0 3 2 9q5 0 5 -3q0 -2 -1.5 -3.5t-1.5 -3.5q0 -1 7.5 -9.5t15.5 -13.5q11 -23 21 -63.5t20 -91l20.5 -108t22.5 -115.5t26.5 -112.5t32.5 -99.5q9 -22 14 -48
t11 -49t14.5 -41t22.5 -23q9 -7 22 -13q0 -12 -1.5 -14.5t-3.5 -4t-4.5 -5.5t-5.5 -19q-35 -24 -69 -24q-11 0 -13.5 4t-6.5 11q-25 -17 -44 -17q-10 0 -18.5 1.5t-16.5 1.5h-12q-5 16 -11.5 40l-14 50l-14.5 50.5t-13 41.5q-27 -60 -54.5 -101.5t-63.5 -69t-84 -43.5
t-117 -25zM234 105q16 -21 30 -21q21 0 44 30.5t41.5 75t30.5 94t12 88.5q0 67 -26 96t-63 29q-34 0 -76 -26v-7q-40 -14 -57 -50t-17 -82q0 -30 6.5 -61.5t17.5 -61.5t25.5 -57t31.5 -47z" />
    <glyph glyph-name="e" unicode="e" horiz-adv-x="582" 
d="M19 32q-5 4 -9 12.5l-8 16.5t-8 14t-7 7q-13 44 -19.5 81.5t-8.5 83.5q-6 1 -8.5 2t-8.5 3q0 39 15.5 84t43 90.5t64.5 87.5t80 74t90.5 51.5t95.5 19.5q32 0 65 -9v-8q52 -8 88 -41t58.5 -79.5t32.5 -100.5t10 -103q0 -50 -14 -86.5t-46 -44.5q0 -4 -13.5 -6.5t-31 -5
t-33.5 -6t-22 -9.5q-6 -4 -21 -4q-29 0 -62.5 7t-67.5 13q-62 10 -105 21q0 -46 18.5 -73t48 -40.5t67.5 -17t77 -3.5q63 0 111.5 12t91.5 21q0 -3 4 -11t4 -11h6q-3 -13 -15.5 -24t-28.5 -20.5t-33 -16.5t-29 -11q-19 -6 -49 -12t-64.5 -10.5t-69.5 -7.5t-63 -3
q-38 0 -66 4t-53 12.5t-50 20zM368 280h12v19q0 62 -10.5 107t-28 74t-39 42.5t-42.5 13.5q-23 0 -43 -10.5t-35 -30t-23.5 -46t-8.5 -59.5q0 -26 8 -60l50 -11.5l56.5 -13l55.5 -13t48 -12.5z" />
    <glyph glyph-name="f" unicode="f" horiz-adv-x="396" 
d="M235 -76q-10 4 -17.5 14t-14.5 21l-14 22t-16 18q-10 7 -20 29.5t-20 52t-19.5 61.5l-17 58.5t-13 43.5t-7.5 16q-13 43 -19.5 67t-15 36t-21 15t-37.5 4q-3 0 -7.5 5.5t-9 13l-9 14.5t-7.5 10q1 4 9 7t19.5 6.5t23.5 9t23 15.5q-1 8 -1 15v14q0 80 28.5 141t71.5 101.5
t94.5 61t97.5 20.5q26 -2 51 -12t45 -29.5t32 -47.5t12 -65v-13.5t-1.5 -13.5t-6 -10.5t-13.5 -4.5q-5 0 -11 1t-12 1q0 -1 -3 -1q-2 0 -8 1l-12.5 2l-12.5 2t-8 1q-3 0 -3 -1h-1q-2 0 -3 -4t-3 -4l-1 1q-5 -4 -12 -7.5t-12 -3.5q-11 0 -14 14t-3 25q0 6 1.5 12t1.5 12
t-2.5 15t-7.5 18t-11.5 15.5t-13.5 6.5q-11 0 -24 -16.5t-24 -38t-19.5 -41.5t-9.5 -26q-9 -32 -9 -76q0 -24 3 -51q57 2 106.5 3.5t108.5 1.5q4 0 4 -3q0 -2 -0.5 -4t-0.5 -4q0 -4 3 -10t3 -10q0 -5 -5 -5q-2 0 -3 2t-4 2t-6 -2t-3 -4q3 -1 6 -3q2 -2 4.5 -3t2.5 -2
q0 -14 -1.5 -26.5t-8.5 -12.5q-14 0 -28.5 1t-26.5 1q-25 0 -42.5 -1.5t-32 -3.5t-27.5 -3.5t-28 -2.5q4 -21 13 -56t21 -77.5t26.5 -88.5l29 -88t28 -76t24.5 -52v-3q0 -3 -1 -3q-2 0 -5 3.5t-6 3.5q-4 0 -10 -6q-8 6 -21 10q-1 -4 -1 -6.5t-1 -4.5h-7q-14 0 -30.5 -10.5
t-36.5 -10.5q-7 0 -10 1z" />
    <glyph glyph-name="g" unicode="g" horiz-adv-x="629" 
d="M130 -248q-32 5 -45.5 19t-13.5 34t11.5 43t28 44t33.5 38.5t29 25.5q29 21 62 33.5l62 22.5q7 3 10 3q1 0 8.5 -2t12.5 -6l-3 -4l3 1l8 -4l1 2l9 2q-2 0 -2 -2q0 -5 3.5 -7t3.5 -5q0 -2 -6 -8t-11 -6q-1 0 -1 1t2 2t1 1l-4 -2q-2 -1 -4 -1.5t-5 -2.5v-13
q-4 -2 -18.5 -11t-26.5 -21q-19 -18 -27 -35t-8 -19q0 -11 19 -17q137 -52 332 -52q38 0 51 2.5t13 18.5q0 33 -13.5 76t-33.5 89.5t-43 91.5l-42 82q-20 -18 -52.5 -34t-72 -27.5t-82.5 -18.5t-84 -7q-63 0 -117 10t-94.5 28.5t-63.5 45t-23 59.5q0 24 9 52.5t22.5 57
t30 54t32.5 42.5q36 39 81.5 73.5t94 60.5t99 42t97.5 16q28 0 57.5 -7t54.5 -22.5t42.5 -39.5t22.5 -57q5 -37 6 -58.5t4.5 -41t13 -42.5t31.5 -62l52 -95.5t51.5 -100.5t44 -102.5t31.5 -101.5q2 -10 2 -17q0 -29 -16 -60.5t-40 -59.5t-52.5 -48t-53.5 -25q-15 -3 -32 -4
t-34 -1q-39 0 -82.5 5t-88 12.5t-88 16.5l-81.5 17.5l-68.5 15.5t-49.5 10zM319 192q37 16 60.5 30t37 30t19 35t5.5 44q0 4 -0.5 11t-2 13t-5.5 10.5t-10 4.5q14 16 15.5 19t1.5 4q0 2 -0.5 5t-1.5 8q9 4 9 9q0 3 -5.5 5t-5.5 4q0 3 14 6q6 16 6 29q0 23 -20 37t-43 14
q-21 0 -50 -12t-60 -32t-61.5 -47t-54.5 -56.5t-39 -60.5t-15 -59q2 -35 36.5 -52t79.5 -17q23 0 46.5 4.5t43.5 13.5z" />
    <glyph glyph-name="h" unicode="h" horiz-adv-x="603" 
d="M553 -16q-15 13 -32 43.5t-35.5 69t-37 81.5l-34.5 81.5l-29 67.5t-21 41q-11 24 -20.5 33.5t-17.5 9.5q-9 0 -15.5 -9.5t-11 -22.5t-7.5 -27t-4 -23q-8 -78 -17 -149t-15 -149q-38 0 -75.5 6.5t-75.5 6.5q-8 0 -16.5 -0.5t-16.5 -1.5q0 6 -4 28.5l-8.5 47t-9 44.5
t-5.5 20q-12 39 -21.5 93t-18 116t-15 127.5t-12 127.5l-10 117t-7.5 96h4q5 0 10 -0.5t8 -0.5q8 0 8.5 5t4.5 8q33 9 58 9q38 0 56 -22q2 -12 4.5 -43.5t4.5 -73t5 -88.5l6 -91t6.5 -80.5t7.5 -55.5h22q3 37 17 71l29 69q11 1 16 5t10.5 7.5t14.5 6.5t29 3q4 0 14 -1
t21.5 -2.5t23 -2.5t18.5 -1t7 1q6 -3 19.5 -6t29.5 -7.5t30.5 -11t20.5 -15.5q35 -53 60 -117t47.5 -131.5l46.5 -134.5t57 -125q7 -13 13.5 -29.5t7.5 -31.5q-1 2 -2.5 3t-2.5 2q-5 -8 -20.5 -10.5t-34.5 -2.5q-15 0 -30 1.5t-27.5 4t-20 6t-7.5 7.5z" />
    <glyph glyph-name="i" unicode="i" horiz-adv-x="220" 
d="M201 6q-23 10 -32 10q-5 0 -5 -3v-2q0 -5 -3 -5q-4 0 -9.5 3.5t-10.5 9t-9 11t-5 9.5h-11q2 -6 2 -7l-1 -2q0 -3 13 -17h-32q-34 69 -53.5 128t-30.5 108q-4 18 -8 44t-7 57t-4.5 63.5t-1.5 62.5q0 50 7 72.5t15 22.5q3 -4 8 -9q0 5 4 9h11q0 12 8.5 13t17.5 1
q31 0 54 -9.5t29 -35.5q1 -4 1.5 -21.5t1.5 -43t2.5 -56l3 -59.5t3 -53.5t3.5 -38.5q5 -37 14 -76.5l17.5 -74.5l14.5 -61.5t6 -35.5q0 -11 -6 -10.5t-7 -3.5zM136 693q-56 -38 -113 -38q-29 0 -41.5 15t-12.5 41q2 7 2 19.5t6 32.5q13 3 34.5 10t35.5 7q8 0 16 -3l3 3t3 5
q3 -5 5 -9.5t4 -6.5q-1 -4 -2 -6.5t-2 -4.5q22 14 34 14q16 0 19 -21q4 -37 12 -46z" />
    <glyph glyph-name="j" unicode="j" horiz-adv-x="504" 
d="M244 682q-3 1 -18 5.5l-32.5 10t-32 10.5t-16.5 7l2 36q1 14 1.5 25.5t1.5 12.5q22 1 42.5 3.5t41.5 2.5q13 0 25.5 -1t17.5 -16q7 -1 13.5 -11.5t12 -24l10.5 -26.5t10 -18q-4 -4 -8 -13l-36 -2t-35 -1zM463 -323q-7 -1 -14.5 -1h-15.5q-39 0 -87.5 7t-99.5 21.5
t-101 35.5t-91.5 49t-71.5 63t-41 76h-12q-11 35 -15.5 60.5t-4.5 40.5q0 32 43 74h11v11q73 32 147 53.5t155 25.5q10 -16 9.5 -26t2.5 -19q-39 -17 -76 -28.5t-66 -24t-46.5 -29.5t-17.5 -44q0 -35 28 -76.5t74.5 -79t107 -66.5t124.5 -39q2 -1 7 -1q12 0 18.5 8.5t9.5 22
t3.5 28.5t0.5 29q0 47 -9.5 94t-25 93.5t-35 93.5l-39.5 94l-37.5 91l-50.5 122q-16 30 -30.5 64t-14.5 60q0 8 9.5 17.5t12.5 14.5l36 4t36 2q15 0 30 -1.5t29 -6.5q4 -15 15.5 -26.5t19.5 -30.5q23 -52 48 -116l50 -132.5t47.5 -136.5t40 -129.5t27.5 -111.5t10 -81
q0 -30 -7 -55.5t-24 -45t-46 -32.5t-73 -16z" />
    <glyph glyph-name="k" unicode="k" horiz-adv-x="598" 
d="M606 -72q-5 7 -22.5 19.5t-43.5 28.5l-57 33.5l-62.5 35l-60.5 33l-51 26.5l-39 20.5l-15 7.5q-4 -7 -5.5 -10.5t-3 -11t-3 -21l-4.5 -39.5h-10v-17q-13 -1 -22.5 -2t-16.5 -3v-11q-17 -2 -32.5 -5t-30.5 -5q-2 -4 -2.5 -7t-1.5 -5q-32 -2 -60 -6q-25 211 -52 415.5
l-53 418.5q9 3 22.5 7t27 10t25 13t17.5 15q9 -2 20.5 -3t22 -3t19 -7t11.5 -15h11q7 -71 11 -135l8 -123t8.5 -112.5t12.5 -103.5q4 1 30.5 11.5l66 25l88 31.5t95.5 31.5t89 24t68 9.5l10 -14t14.5 -22t13.5 -23t8 -17l-78 -33t-73 -33.5t-72.5 -38l-75.5 -44.5
q0 -8 14 -22t37 -32t52.5 -39l59.5 -42l59 -41t50 -37q54 -42 94 -47q0 -14 4.5 -28.5t4.5 -30.5q-14 -5 -38 -12.5t-41 -7.5q-18 0 -33 9q-4 -3 -8 -7t-7 -9z" />
    <glyph glyph-name="l" unicode="l" horiz-adv-x="226" 
d="M205 -50q-15 11 -23 18l-13 11.5t-9 6t-10 1.5q-5 0 -12.5 -1t-19.5 -2q-11 12 -18 12q-5 0 -7.5 -3t-4.5 -3t-2 3.5t-0.5 8t-2.5 8t-9 3.5q-3 18 -12 68l-21.5 118.5t-26 150t-24.5 161.5t-18.5 153t-7.5 125q0 27 2.5 47.5t7.5 31.5q19 4 31.5 8t21.5 8t16 6.5t16 2.5
q10 0 23.5 -3.5t36.5 -11.5v-3t-1 -7l4 -2t6 -2q3 -26 7.5 -89t12.5 -144.5t18.5 -172.5t25.5 -175l17 -100t17.5 -85.5t22.5 -61.5t32 -28q-2 -11 -4.5 -16t-4.5 -7.5t-4 -3t-2 -3.5v-2q0 -12 -8.5 -17.5t-19 -7.5t-20.5 -1.5t-13 0.5z" />
    <glyph glyph-name="m" unicode="m" horiz-adv-x="838" 
d="M859 -52q-43 35 -76 73.5t-60 80.5t-50 87.5l-46 94.5q-4 -11 -5 -28t-1 -39q0 -23 1 -48.5t2.5 -48.5t2.5 -42.5t1 -30.5q0 -17 -5.5 -23.5t-16.5 -6.5q-8 0 -16.5 2.5t-24.5 2.5q-13 0 -29.5 -0.5t-38.5 -0.5q-9 -1 -18 -4.5t-19 -3.5q-18 25 -40.5 72l-45 98.5
t-41.5 100.5t-29 78q-2 -4 -3 -39t-1.5 -85.5t-2.5 -108t-7 -107.5q-24 -7 -29.5 -10t-5.5 -5v-2q0 -1 -3 -1.5t-16 -2.5q-10 8 -15.5 10.5t-18.5 2.5l-6.5 -9t-7.5 -10h-9h-6q-8 7 -12.5 11.5t-6.5 7.5t-3.5 6t-2.5 8h-10q-98 162 -143 259t-55 122h-12q-8 18 -12 29t-8 27
q13 8 16 13l5.5 9t10.5 9t31 13v11q20 8 32.5 14.5t23.5 6.5q15 0 28 -18t26.5 -45l27.5 -57.5t30 -55.5l21 80t13 45.5t9 24.5l9 18q10 3 9 5t-0.5 5t11 8.5t45.5 14.5q25 7 54.5 13t59.5 6q4 0 12.5 -15t18.5 -37l20.5 -47t19.5 -44q16 -38 30.5 -69t27.5 -56
q5 15 10 43.5t8.5 60.5l6.5 61t5 45q1 2 11 7.5t26 11.5t36 11t41 5q19 0 42 -5q9 -17 25 -57l37 -93.5l45.5 -114.5t50.5 -119t51.5 -108t48.5 -80q-8 -8 -27.5 -19t-56.5 -18z" />
    <glyph glyph-name="n" unicode="n" horiz-adv-x="595" 
d="M592 -59q-18 9 -28.5 20t-17 24t-10.5 28.5t-10 33.5h-11q4 -11 5.5 -16t1.5 -8q0 -2 -2 -8q-24 35 -46.5 81t-43.5 94l-41 93.5t-40 80.5q-13 -38 -21 -87t-13.5 -100t-9.5 -99.5t-9 -87.5q-8 -1 -15.5 -1.5t-14.5 -0.5q-14 0 -23 1.5t-18 3.5t-18.5 3.5t-23.5 1.5
q-5 0 -10 -0.5t-10 -0.5q-3 0 -6 1t-5 1t-3 -1q-17 9 -40 45.5t-48.5 88t-50.5 111t-45.5 114.5t-34 98t-15.5 62q0 9 2 12t12 6q36 7 54.5 8.5t37.5 1.5h27t35 -2l17 -45l20.5 -53.5l21 -53.5t19.5 -45q18 60 40.5 119.5t58.5 122.5q3 5 6.5 13t7.5 15t9 12t11 5
q14 0 25.5 3t21.5 7t20 7t22 3q11 0 26 -3v-11q10 -4 19 -6t16 -4t12 -6t8 -12q24 -70 45.5 -140.5t45 -140.5t50.5 -139t61 -135q7 -13 12 -25q5 -11 8.5 -22.5t3.5 -20.5q0 -3 -5.5 -11.5t-14.5 -17.5t-21 -15.5t-24 -6.5q-3 0 -6 5.5t-5 5.5q-7 -2 -11.5 -4.5t-10.5 -2.5
z" />
    <glyph glyph-name="o" unicode="o" horiz-adv-x="687" 
d="M17 443q18 27 44.5 55.5t62 52t79.5 39t95 15.5q10 0 19.5 -0.5t19.5 -1.5v11h13q50 0 101.5 -19t97 -52t82 -77t57.5 -94q5 5 8 5t7.5 -11.5t8 -27t6 -32.5t2.5 -28q0 -45 -18.5 -85.5t-49.5 -76t-71.5 -64t-85 -49t-89.5 -31.5t-85 -11q-60 0 -122.5 25t-114 69
t-84.5 105t-33 133q0 71 50 150zM309 87q34 -9 64 -9q43 0 71.5 20t45 49t23 63t6.5 62q0 54 -10 82.5t-24 44t-29.5 25.5t-26.5 27q-21 31 -45 31q-5 -12 -15 -12h-6q-10 0 -17 -7q-25 19 -26 19v-1v-1q0 3 -4.5 9.5t-12 13.5t-17.5 12.5t-22 5.5q-48 0 -81 -48.5
t-33 -138.5q0 -38 8 -77.5t27 -73.5t49.5 -60t74.5 -36z" />
    <glyph glyph-name="p" unicode="p" horiz-adv-x="680" 
d="M157 -393q-2 5 -3 9.5t-2 6.5h-17q-17 83 -28 158.5l-22.5 150.5t-28.5 151.5t-46 160.5l-35.5 105t-34.5 99q-7 2 -10 5.5t-5 7.5t-2 10l1 -4q1 0 1 1t-0.5 3t-0.5 6h-10q1 24 6 50q17 5 30 13.5t36 13.5v17q7 -2 18 -3l3 9h10q18 0 34.5 -3.5t33.5 -3.5q3 0 5.5 0.5
t5.5 0.5l17.5 -42.5t13 -32l10 -27l10 -28l12.5 -34.5l17 -46q30 56 63 110t74 97t93 69t120 26q56 0 120 -19q1 -2 2 -4.5t3 -6.5h17q29 -32 42.5 -75t13.5 -94q0 -59 -19.5 -128.5t-56.5 -134t-89 -117.5t-117 -78q-65 -26 -150 -45q-2 -1 -5 -1q-8 0 -16 3.5t-16 3.5
q1 -28 5.5 -61l9.5 -68t9 -70t4 -65q0 -28 -4 -47q-7 -2 -16 -4t-16.5 -5t-12.5 -7.5t-5 -10.5h-33q-6 0 -8.5 -1t-5.5 -3t-8.5 -6.5t-16.5 -11.5zM339 60q2 0 3 -0.5t3 -0.5q16 0 37 12.5t42.5 33t41 45.5t33.5 50q28 49 44 105.5t16 110.5q0 51 -17 93t-56 65q-13 8 -23 8
q-8 0 -14 -5t-15 -14q-66 -66 -102.5 -144.5t-57.5 -169.5q3 -3 11 -5q-8 -8 -11 -16q8 0 9.5 -1t1.5 -6h-17q0 -4 11 -4q-3 -36 -3 -58q0 -12 2 -27.5t9 -30t19 -26t33 -15.5z" />
    <glyph glyph-name="q" unicode="q" horiz-adv-x="788" 
d="M618 -360l-5 23.5t-11 55l-12.5 64.5l-10.5 54q-4 19 -11 57l-14 78.5l-13.5 76t-8.5 50.5h-6q-9 29 -14.5 44t-7.5 22.5t-2.5 10.5t-0.5 9h-5q-6 0 -16 -4.5t-21.5 -10.5l-22 -11.5t-17.5 -8.5q-51 -18 -94.5 -26t-87.5 -8q-50 0 -99 12.5t-104 34.5q-1 2 -1 4t-1 5
q-48 17 -70 53t-22 81q0 31 11 67t31.5 71.5t49.5 68t65 57.5t78 40t89 15q39 0 81.5 -12.5t86.5 -41.5t88 -76t87 -116q1 0 4 -1t5 -1q0 29 1 50.5t1 44.5v17t-1 19q25 5 38 26l32 -2l16 -9q1 1 1 2.5t2 3.5q18 -3 34 -9q2 -26 6 -67l8 -85.5l8 -85.5t6 -65q2 0 5 -22
t5.5 -56t4.5 -76t3.5 -82t2.5 -73t1 -49q0 -27 -1.5 -47t-3 -37t-2.5 -34.5t-1 -40.5q-14 -13 -22.5 -18.5t-16 -8t-16.5 -4.5t-22 -8v5q-11 -2 -28 -9t-29 -11v-6h-30zM237 231q23 -9 49 -15t56 -6q36 0 66.5 10.5t58.5 24.5q-6 57 -40 108t-80.5 89.5t-96.5 61t-86 22.5
q-15 0 -29.5 -3.5t-26 -12t-18.5 -22t-7 -33.5q0 -40 29 -112q29 -45 58.5 -71t66.5 -41z" />
    <glyph glyph-name="r" unicode="r" horiz-adv-x="502" 
d="M145 -31q-51 100 -87 217.5t-71 248.5q-16 58 -16 109q0 18 5.5 24t16.5 6q5 0 10.5 -2.5t10.5 -2.5q12 0 18 15q10 1 20 2.5t20 2.5v12q14 -3 14 -5q-1 -1 -2 -1h-3q-4 0 -4 1t2 1q5 0 9 1v-11l12 -0.5t26 -0.5t26 -0.5l12 -0.5q-3 -36 -3 -62q0 -78 27 -78q4 0 7 1
q0 -1 1 -1q4 0 13 15h11q25 37 66.5 63.5t90.5 43t101 24t99 7.5q5 0 14 0.5t9 -3.5q0 -8 -2 -28t-12 -40h-17q-56 0 -97 -19t-69.5 -49t-46.5 -67t-28 -73t-13.5 -67t-3.5 -49q0 -52 6 -140h11q-3 -12 -6 -40q-48 -15 -90 -30.5t-87 -23.5z" />
    <glyph glyph-name="s" unicode="s" horiz-adv-x="616" 
d="M390 602q-5 8 -5 13q21 -2 35.5 -14.5t24.5 -29.5t15.5 -35.5t7.5 -33.5h-20q-9 0 -15 -1t-10 -4t-7.5 -9.5t-7.5 -18.5q-18 -5 -33 -11.5t-32 -6.5q-2 0 -4 0.5t-4 0.5v4q0 8 -12 26t-31 36.5t-41 32.5t-41 14q-13 0 -22 -5q-23 -4 -36.5 -10t-13.5 -15
q0 -14 21.5 -30.5t55.5 -32.5t75.5 -30.5t82.5 -24.5q72 -19 143 -33.5t129 -28.5q72 -18 71 -64q0 -9 -2 -17.5t-5 -19.5q-16 -50 -65.5 -100t-121.5 -90t-160.5 -65t-181.5 -25q-94 0 -152 48q2 2 12 7q-24 17 -35 41t-11 51q0 22 7 44.5t20 42t31.5 34t41.5 22.5v10
q13 4 29 10t31.5 11t29.5 9t25 4q13 0 27.5 -3.5t14.5 -12.5q0 -14 -14 -28l-30.5 -30t-30 -35t-13.5 -42q0 -32 21 -44.5t61 -12.5q39 0 88.5 10t93 27t73 39.5t29.5 48.5q0 18 -21.5 32.5t-55.5 26.5t-76.5 22t-85 18.5l-80.5 16.5t-63 16q-95 29 -147 60.5t-52 75.5
q0 35 27 64t65.5 50t80.5 32.5t72 11.5q44 0 92 -15.5z" />
    <glyph glyph-name="t" unicode="t" horiz-adv-x="463" 
d="M99 -17q-26 18 -41 40t-23 48t-10 55t-2 61q0 68 6.5 114.5t6.5 83.5q0 17 -1.5 36t-3.5 40q-39 -4 -76.5 -9t-77.5 -7v18v15.5t-2 12.5q0 1 2 2.5t2 3.5t-2.5 2.5t-2.5 3.5q6 1 13 3.5t7 10.5q0 5 -1 8.5t-1 7.5q0 6 4 11q-2 -1 -7.5 -2t-6.5 -1q1 -1 2.5 0.5t1.5 6.5
q0 2 -0.5 3.5t-0.5 3.5q8 2 29.5 5t46.5 6l47.5 5.5t33.5 5.5q0 5 2.5 30t4.5 53.5t4.5 51.5t2.5 25q1 5 1 12v16v17v29t1 24q8 4 17 6.5t17 4.5t13 4.5t5 6.5q23 7 30 13t13 6q9 0 31 -8v-6q6 -2 9.5 -11.5t5 -22t1.5 -25.5v-22q0 -35 -3 -75.5t-3 -94.5v-32q34 3 68 10.5
l68.5 14.5t69 12.5t70.5 5.5h3q0 1 -3 -2q-2 -1 -3 -1q0 -1 1 -1h3q2 0 3.5 0.5t4.5 0.5q2 -7 5 -10.5t5.5 -5.5t4.5 -4.5t2 -6.5q0 -7 -4.5 -13t-10.5 -10t-11 -6.5t-6 -2.5l1 1q-1 0 5 2q-9 -22 -27 -32t-41 -15t-49 -9.5t-52 -14.5q-36 -14 -69 -17t-50 -6q0 -4 -0.5 -10
t-0.5 -14q0 -14 1 -30t3 -26h-1q-2 0 -3 -0.5t-2 -0.5h-1q-4 0 -4 -26q0 -11 0.5 -25t0.5 -30v-82q0 -18 3 -35.5t8.5 -31t13.5 -21.5t18 -8q11 0 38.5 14.5t60 38.5t63.5 54.5t48 62.5q5 3 7.5 7.5t4.5 4.5h2l32 -18q8 1 20 7t19 6q6 0 7 -5l28 -46q2 -4 2 -7q0 -8 -12 -17
q14 -17 14 -23v-1l-61.5 -48.5l-70 -52l-69.5 -48.5t-59 -37l-28.5 -15.5t-37 -18.5t-38.5 -15.5t-34 -6.5q-28 0 -55 18z" />
    <glyph glyph-name="u" unicode="u" horiz-adv-x="528" 
d="M-28 271h-12q3 72 15.5 138.5t31.5 136.5q4 1 11 6.5t14 13l13 14.5t7 10q7 -1 13 -2t12 -3q2 12 9 17t15.5 6.5t18 1t17.5 0.5q-3 -62 -3 -113q0 -106 11 -180.5t28.5 -121t40 -68t45.5 -21.5q20 0 40.5 15.5t37 42.5t26.5 64.5t10 82.5q0 33 -6.5 68.5t-21.5 73.5
q-5 2 -9.5 5t-8.5 5v38q10 6 18.5 8.5t16.5 21.5q9 -1 13.5 -1h5.5h1q2 0 21 -8v32q5 4 11 5v-13q29 10 51 10q26 0 40.5 -13.5t22.5 -35.5t11 -50t5 -57t5.5 -56t11.5 -48q-8 -2 -10 -4q0 -36 -5 -66.5t-14 -66.5q-5 -2 -8.5 -3t-6.5 -3q-10 -38 -37 -63t-63 -42t-76.5 -27
t-77.5 -17q-17 -4 -40 -4q-42 0 -87 15t-81.5 46t-60 78t-23.5 111v10.5t1 10.5z" />
    <glyph glyph-name="v" unicode="v" horiz-adv-x="463" 
d="M157 -29q-44 56 -80 132.5t-63.5 159.5t-45.5 166t-26 152l6 3t3 2v11q17 9 29 19.5t33 19.5v11q10 1 16.5 1.5t10.5 0.5t10.5 -0.5t17.5 -1.5q31 -100 67.5 -197l70.5 -194q9 23 23 64t32.5 83t41 76.5t48.5 45.5v11q12 6 17 7t22 4q5 18 15.5 25t26.5 7q10 0 24.5 -2
t27 -5t21.5 -6t9 -4t-11 -14q-35 -40 -69 -104t-54 -134l-24.5 -86.5t-22.5 -77t-21.5 -58.5t-21.5 -30v-10q-7 -2 -10.5 -5.5t-6.5 -7.5t-7.5 -7.5t-13.5 -6.5l-19 -7t-15 -5v-11q-8 0 -11 -5.5l-6 -10.5q-9 -1 -13.5 -2t-8.5 -2t-8.5 -2.5z" />
    <glyph glyph-name="w" unicode="w" horiz-adv-x="859" 
d="M223 -68q-32 54 -72.5 129.5t-79.5 163.5l-42 87l-41.5 86.5t-34 82t-19.5 72.5q9 5 12 9t4 8.5t2 10.5t4 16q16 6 22 8t11 14q7 1 16.5 2l18.5 2t16 3.5t9 8.5h2q3 0 9.5 2.5t14 6t13.5 6t8 2.5l15.5 -41.5l17.5 -49.5t17 -53t14 -54q7 -26 20.5 -58.5t29 -64.5
l29.5 -61t22 -48q-2 0 -2 8q0 9 2 28t5.5 43.5l7.5 51.5l8 53q10 67 28 131.5t47 104.5l14 4.5t30.5 9l31 8.5t17.5 4q12 -1 19 -3t14 -7t16.5 -15l26.5 -27l19 -82l19 -87.5l17 -84.5l14 -73.5l10 -54t5 -25.5q12 22 28.5 68t38.5 102t50 117t64 114q30 45 41 45q5 0 5 -10
q0 -2 -0.5 -5t-0.5 -6q3 -1 5 -3t5 -4q6 12 14 24l16 25q2 -3 9.5 -5t18 -4.5t22 -4.5t22.5 -5q-8 -36 -28 -88t-46.5 -112l-55 -125t-52.5 -127q-38 -96 -54 -129q-7 -14 -11.5 -24t-9.5 -17.5t-11.5 -12.5t-16.5 -9q-18 -7 -36.5 -12.5t-51.5 -7.5v-16h-17h-12.5t-11.5 -2
q-1 3 -2 6.5t-1 5.5h-12q-19 51 -29.5 99.5t-23.5 93.5q-9 31 -18 66.5t-16.5 68l-13.5 57.5t-9 34q-2 -71 -7.5 -153.5t-13.5 -188.5q-2 -23 -2.5 -35t-2 -18.5t-6 -9t-13.5 -5.5q-12 -5 -19.5 -7.5t-12.5 -5.5t-8.5 -7.5l-8.5 -11.5h-35q-6 -6 -10.5 -13l-9.5 -15
q-7 -1 -16.5 -1.5t-20.5 -2.5z" />
    <glyph glyph-name="x" unicode="x" horiz-adv-x="708" 
d="M698 566v-3q0 -6 1 -15.5t1 -14.5v-2l-86 -49.5t-74 -46.5t-67.5 -52t-66.5 -67q39 -24 84 -55l91 -60.5t91 -53t86 -32.5q0 -19 1 -24q-16 -10 -32.5 -15t-32 -9l-30.5 -8t-27 -12q0 -2 3 -9q-20 -2 -43.5 -3t-47.5 -3q-44 15 -80.5 36t-65.5 42t-50 39.5t-35 29.5
q-19 -30 -50 -66.5t-60 -84.5q-5 -24 -19 -45q-1 -6 -20.5 -8.5t-47 -3t-59.5 -0.5t-58 -2q20 31 47.5 70l55.5 78.5l54.5 75.5l45.5 62q-23 26 -50.5 52.5l-56 54l-57 57t-52.5 60.5q-5 6 -16 13t-12 16q-3 19 -3 36v14.5t1 13.5q9 2 17 8t19 10v12l58.5 14t42.5 6
q19 0 31.5 -10.5t22 -28t19.5 -40t25 -46.5t37 -47t57 -42q-3 -1 -7 -7l27 -18q30 27 66.5 56t75.5 56.5t78.5 51t77.5 39.5q2 0 3 0.5t3 0.5q14 0 38.5 -7t45.5 -14z" />
    <glyph glyph-name="y" unicode="y" horiz-adv-x="582" 
d="M47 -224q-33 5 -45 17.5t-12 33.5q0 19 10.5 41.5t25.5 44t32 39.5t31 27q33 23 68 36.5t68 24.5q0 -1 7.5 -4.5l16 -7.5l16 -7.5t7.5 -4.5q-10 -3 -24 -15.5t-44 -28.5v-12q-6 -3 -13 -11.5t-14 -19l-13.5 -19.5t-11.5 -12q3 -10 26 -17t54.5 -12t65 -8t57.5 -4
q47 -4 91 -11t86 -17q6 -2 11.5 -3t10.5 -1q20 0 20 21v5q-5 47 -25.5 104.5t-47.5 116t-56 111.5l-50 91q-20 -27 -51.5 -54t-66.5 -48.5t-71 -35t-64 -13.5q-36 0 -58.5 14.5t-38.5 40.5t-28.5 62l-28.5 79q-24 61 -24 151q0 29 3 62q10 3 19 7.5t20 9.5q0 8 5 11t11 5v11
q23 5 37 9.5t25 4.5q17 0 27 -25t16.5 -62t11.5 -80.5t12.5 -80.5t20.5 -62t35 -25q25 0 39 16.5t20 43t7 60t1 67.5q0 26 -1 50.5t-1 42.5q0 11 0.5 21t2.5 10t3.5 -1t3.5 -1q1 0 8 2.5t14 4.5v10q14 10 23 17.5t28 7.5q4 6 10 12q3 -1 9 -1q11 0 20 3t19 3q9 0 14 -2
q1 -41 20 -91.5t47 -107t60.5 -115l61.5 -114.5l32 -65.5t33 -72.5t28.5 -73.5t20.5 -68.5q2 -10 2 -17q0 -29 -16 -60.5t-40 -59.5t-52.5 -48t-53.5 -24q-16 -3 -32.5 -4t-35.5 -1q-59 0 -126.5 10t-131 23t-116 26t-81.5 18z" />
    <glyph glyph-name="z" unicode="z" horiz-adv-x="631" 
d="M164 501q16 -15 20.5 -20t7 -7t7 -4.5t21.5 -14.5q-5 -4 -9 -5t-23 -2q-4 -9 -4 -18h-11q-8 -16 -15.5 -20t-23.5 -10v-12l-25 -7l-19 -5q-11 28 -36 51.5l-51 46.5t-46 47.5t-20 54.5q0 11 6 27t19.5 31t35.5 25.5t55 10.5q24 0 48 -4.5t48.5 -11.5l49 -14t49.5 -13
l174 -38.5l169 -39.5q14 -4 18.5 -4.5t4.5 -16.5v-27q-9 -3 -15.5 -4.5t-11 -4t-7.5 -7.5t-6 -14h-11q-27 -37 -70.5 -85t-100.5 -93l-49.5 -40l-40.5 -34l-37 -31l-39 -31q2 -3 4 -9q42 1 100 4.5t148 3.5q44 0 87 -4.5t79.5 -13.5t64.5 -23.5t42 -35.5q-3 -2 -5.5 -4
t-4.5 -4q2 -2 4 -4.5t4 -4.5q-6 -7 -15 -11t-17 -9t-14 -11.5t-6 -17.5h-11v-12q-7 1 -13 2t-12 3q-2 -3 -4 -6.5t-4 -8.5q-3 2 -6.5 2.5t-5.5 1.5v-12q-78 19 -167.5 29t-183.5 10q-105 0 -204.5 -13.5t-182.5 -42.5q-5 11 -9 22t-4 22q0 22 24 53t62.5 65t85.5 69.5
l92 67.5q87 62 137 113t75 80l-12.5 6.5l-16.5 8.5t-25 10.5t-39 11.5q-20 5 -40 9.5l-37 8t-28.5 5.5t-13.5 2h-1h17q0 -5 -2 -6.5t-10 -2.5q2 -2 3 -5t3 -5z" />
    <glyph glyph-name="odieresis" unicode="&#xf6;" horiz-adv-x="619" 
d="M276 90q34 -9 64 -9q43 0 71.5 19.5t45 48t23 62t6.5 62.5q0 55 -10 84t-23.5 45t-29 25.5t-25.5 26.5q-20 32 -46 32q-7 -13 -16 -13h-6q-9 0 -16 -7q-25 19 -27 19v-1v-1q1 1 -10 17q-17 -5 -41 -9t-46.5 -10t-38.5 -13.5t-17 -18.5v2q1 0 -2 -9.5t-6.5 -25.5
t-6.5 -37.5t-3 -44.5q0 -39 9 -78t28 -72.5t49.5 -58.5t73.5 -35zM8 419q15 24 37.5 49t52 46t66 35.5t80.5 18.5q-11 15 -16 23.5t-8 17t-4.5 20.5t-3.5 36q-4 4 -5 9.5t-1.5 11.5t-1.5 11t-5 7q-8 -23 -23 -39t-24 -35q-11 3 -16 3v-13q0 -4 -0.5 -14t-3.5 -10q-2 0 -8 2
l-9.5 -15t-11.5 -16.5t-13 -13t-14 -5.5q-9 0 -18.5 25.5t-17 59t-12.5 67t-5 49.5q0 9 1 13q-1 1 -2 1.5t-2 2.5q1 3 1.5 5t0.5 5q9 -2 10 -2.5t4 -2.5q5 24 12.5 37t19.5 31q1 -1 1 -3q5 7 5 14q11 3 20.5 5t19.5 2q19 0 29 -9.5t13 -41.5q8 -3 13 -6q0 3 1 6l2 6
q4 -9 7 -21t10 -18v-5l2 1q1 46 12 93q3 0 6 4t5.5 9t5 9t4.5 4q5 0 6 3.5t5 8.5h4q1 5 5.5 12t10.5 14t13 11.5t13 4.5q8 0 13 -4q2 2 3.5 4t3.5 4q6 0 7.5 -3t2 -6l1 -6t3.5 -3q5 14 13 14q6 0 17 -11v-1q0 -1 -0.5 -1.5t-0.5 -1.5q1 0 6.5 -17t12.5 -41.5l14.5 -52
t12.5 -48.5q6 -25 10 -48t4 -40q0 -21 -7.5 -31t-17 -17l-19.5 -14t-14 -20h-5q0 -1 -1 -2.5t-1 -2.5q-6 3 -8.5 8t-8.5 6v-2q0 -4 3.5 -7.5t8 -7t8 -6.5t3.5 -6v-1q43 -5 86 -24t81.5 -48.5t69.5 -68.5t49 -82q5 5 8 5t7 -10.5t7 -25.5t5.5 -31t2.5 -26q0 -44 -18 -82.5
t-48 -71.5t-68.5 -59t-80.5 -44.5t-83.5 -28t-77.5 -9.5q-57 0 -115 25t-104.5 67t-75.5 97.5t-29 117.5q0 70 47 141z" />
    <glyph glyph-name="adieresis" unicode="&#xe4;" horiz-adv-x="708" 
d="M229 129q3 -3 8 -3q8 0 17 7t20 12q17 7 37 23.5t40.5 38.5t39 47.5t33 50t23.5 46t9 35.5q0 11 -6 17q0 13 2 21.5t2 20.5q-8 5 -18.5 6.5t-23.5 1.5q-28 0 -60.5 -6.5t-65 -18.5t-62.5 -29.5t-53.5 -39t-37.5 -47.5t-14 -54q0 -61 110 -129zM670 498l16 -93t18 -93
t22.5 -91t30.5 -86q1 -2 1 -6q0 -7 -14 -21q-20 -19 -33.5 -30.5t-23 -18t-18 -9t-17.5 -2.5v-17h-10v-10q-17 4 -25 9.5t-20 6.5v11q-7 15 -10 28.5t-5 26l-4 24t-7 23.5q-3 4 -5.5 13l-5.5 19.5t-6.5 21t-9.5 18.5v4q0 1 -3 4q-5 0 -17.5 -12t-26 -27.5t-25.5 -31
t-16 -22.5h-5q-32 -39 -68 -69.5t-74 -52t-76 -33t-74 -11.5q-64 0 -115 38.5t-75 123.5q-13 43 -13 78q0 51 27.5 97t72 85.5t102.5 72t118.5 57t120 40t107.5 21.5q3 6 3.5 10t2 6.5t5 3.5t12.5 1h24h5q0 -5 5.5 -6.5t3.5 -1.5q7 0 8 4q32 -3 62 -11.5l53 -15.5
q-3 -8 -3 -15q0 -11 6 -18q-3 -2 -5.5 -4t-4.5 -4q1 -5 1 -9.5v-6.5q0 -1 -4.5 -7.5t-7.5 -11.5zM311 606l-15.5 35t-9 23t-6.5 24.5t-8 39.5q-2 10 -3.5 23t-7.5 15q-8 -23 -24 -39t-25 -34q-4 0 -8.5 1t-9.5 1q0 -4 0.5 -7t0.5 -7t-0.5 -13.5t-3.5 -9.5q-2 0 -8 2
q-5 -7 -10.5 -15.5t-12 -16t-14 -13t-15.5 -5.5q-11 0 -20.5 26.5t-17.5 61t-12.5 68.5t-4.5 49q0 2 -0.5 4.5t0.5 4.5l-1 1q-1 1 -1.5 1t-1.5 2q0 3 1 5t2 5q8 -2 9.5 -2.5t4.5 -2.5q5 24 13 37l20 31q1 -1 1 -1.5t1 -1.5q5 17 19 19t27 2q20 0 31 -9.5t14 -41.5
q6 -2 14 -6q1 4 1.5 6.5t2.5 6.5q4 -10 7 -22t10 -18v-5q2 2 3 2q3 45 12 92q3 0 6.5 4t6.5 9t5 9t3 4q5 0 7.5 4t5.5 8h5q2 5 4 9l3 6h6q8 28 30 28q7 0 15 -5q7 7 7 8q8 0 11 -9t4 -9q4 14 13 14q8 0 18 -10v-5q6 -15 16.5 -46.5t21 -68.5t18 -73t7.5 -58q0 -18 -8.5 -29
t-19.5 -19.5l-21 -16t-12 -17.5h-5q-3 -3 -3 -6q-7 3 -9 8t-9 6q-2 -9 -4 -19.5t-5 -18.5q-8 3 -10.5 3h-8.5q-2 -4 -2.5 -9.5t-1.5 -10.5l-9 3q-7 -8 -13.5 -10t-14.5 -2q-2 0 -5 0.5t-6 0.5z" />
    <glyph glyph-name="aring" unicode="&#xe5;" horiz-adv-x="703" 
d="M222 128q3 -3 7 -3q8 0 18 7t19 11q18 7 39 24t41.5 39.5t39 48t33 50.5t23 46.5t8.5 35.5q0 9 -5 16q0 14 2 22.5t2 19.5q-18 10 -46 10q-44 0 -95 -15.5t-95 -42t-73 -62.5t-29 -77q0 -63 111 -130zM56 855q63 39 125.5 54t129.5 15q34 0 68 -3t64.5 -12t55 -25
t39.5 -42q30 -54 30 -99q0 -26 -11.5 -51.5t-30.5 -47t-42 -39.5t-45 -29q16 4 31.5 6.5t29.5 4.5q0 11 3 15.5t19 4.5h23.5t14.5 -8q2 0 3 -0.5t2 -0.5q2 0 4 6q32 -4 62.5 -12t53.5 -16q-3 -9 -3 -15q0 -11 6 -18q-4 -3 -9 -8v-17q0 -1 -4.5 -7t-7.5 -12l14 -84t15 -86
t19 -85t27 -80q5 -13 9 -20.5t4 -15.5q0 -10 -13 -22q-36 -35 -53.5 -48t-33.5 -13q-2 0 -3 0.5t-3 0.5v-17h-11v-11q-17 4 -24.5 9.5t-20.5 6.5v12q-6 15 -9 28.5t-5 25.5l-4 24t-7 24q-3 4 -5.5 13.5l-5.5 20t-7.5 21t-10.5 18.5l2 4l-5 5q-4 0 -16.5 -12t-26 -28
l-25.5 -31.5t-16 -22.5h-6q-65 -80 -143 -124.5t-151 -44.5q-64 0 -116 39t-77 125q-13 43 -13 78q0 41 22.5 85.5t67 88t111.5 83.5t157 72q-11 -1 -22 -1h-22q-33 0 -65 2.5t-60 8.5t-50 16t-35 25q-24 27 -41.5 56t-22.5 74q-1 17 -3 33.5t-6 25.5q13 10 23.5 24.5l22 31
l24.5 33.5t31 31v-4q8 4 14 4q-4 -5 -10 -9.5l-12 -9t-10 -10.5t-4 -14zM168 661q3 -7 10 -16.5t17 -18.5t22 -15t23 -6q19 0 39.5 11.5t38.5 29t31.5 39t19.5 42.5h4v-5q13 23 13 42q0 17 -9.5 28.5t-24 18t-32 9.5t-33.5 3q-22 0 -46 -9.5t-43.5 -25t-32 -36.5t-12.5 -43
q0 -24 15 -48z" />
    <glyph glyph-name="quotedblleft" unicode="&#x201c;" horiz-adv-x="435" 
d="M253 436q-8 18 -13.5 27t-9.5 16.5t-6 18t-4 31.5q-2 0 -4 4.5t-3.5 10t-3 10t-2.5 5.5q-8 -18 -22.5 -30t-23.5 -27q-10 2 -16 2v-10v-9t-2 -9q-5 0 -9 1q-11 -11 -22 -24.5t-28 -13.5q-8 0 -16.5 19.5t-16 45t-12.5 50t-5 35.5q0 10 1 14q-1 1 -2 1.5t-2 2.5q0 1 2 7
q8 -1 9.5 -1.5l4.5 -1.5q4 17 11.5 27.5t18.5 23.5l2 -2q6 12 19 14t24 2q20 0 29.5 -8t12.5 -31q5 -2 8 -2.5t5 -1.5l2 4t2 5q3 -8 6 -17t9 -13v-5q3 3 5 12t3.5 20.5l3 22.5t3.5 18q6 0 10.5 10t8.5 10q5 0 6.5 3t5.5 6h5q3 9 15 20.5t25 11.5q6 0 14 -3q0 2 2.5 3t3.5 3
q7 -8 8.5 -7.5t1.5 -5.5h3q4 10 12 10q9 0 18 -8q-1 -1 -1 -3q4 -11 14 -35t19.5 -52.5t17 -56.5t7.5 -47q0 -14 -7 -21.5t-16 -13l-18.5 -11t-14.5 -15.5h-5q-2 -6 -2 -5q-7 3 -9 6t-8 4q-2 -6 -4 -14t-4 -15q-8 3 -10 3h-8q-1 -3 -2 -7t-1 -8q-6 2 -8 3q-10 -10 -24 -10
q-3 0 -6 0.5t-7 0.5z" />
    <glyph glyph-name="quotedblright" unicode="&#x201d;" horiz-adv-x="435" 
d="M188 436q-4 0 -7 -0.5t-7 -0.5q-13 0 -23 10q-2 -1 -8 -3q0 6 -1.5 10.5t-7.5 4.5q-2 0 -4.5 -0.5t-7.5 -2.5q-2 7 -4 15t-4 14q-6 -1 -8 -4t-9 -6q0 -1 -2 5h-5q-2 3 -7 7.5t-11 9t-12.5 8.5t-9.5 5q-2 5 -4.5 7.5l-5 5t-4.5 6.5t-2 12q0 19 7.5 47t17 56.5t19 52.5
t14.5 35q0 2 -1 3q9 8 18 8q8 0 12 -10h3v4t1 1.5t3 2t6 5.5q1 -2 3.5 -3t2.5 -3q7 3 14 3q13 0 20.5 -10.5t14.5 -10.5q2 -4 3 -6.5t2 -4.5h5q1 -2 5.5 -6.5l9.5 -9.5t9.5 -9t6.5 -4l2.5 -18l3 -22.5t4 -20.5t5.5 -12v5q6 4 9 13t6 17q1 -3 2 -5l2 -4q13 4 16.5 11.5
t5.5 14.5t8 12t24 5q11 0 24.5 -2t19.5 -14l2 2q11 -13 18.5 -23.5t11.5 -27.5l4.5 1.5t9.5 1.5q2 -6 2 -7q-1 -2 -2 -2.5t-2 -1.5q1 -4 1 -14q0 -13 -5.5 -38t-13 -50t-16.5 -43.5t-15 -18.5q-17 0 -28 13.5t-22 24.5q-4 -1 -9 -1q-3 9 -3 18q0 2 0.5 5t0.5 5q-6 0 -16 -2
q-9 15 -23.5 27t-22.5 30q-3 -1 -4.5 -6t-2.5 -10t-2.5 -9.5t-3.5 -4.5q-2 -21 -4 -31.5t-6 -18t-9.5 -16.5t-13.5 -27z" />
    <glyph glyph-name="semicolon" unicode=";" horiz-adv-x="265" 
d="M125 84q-6 2 -16.5 4.5l-22 5t-22 6.5t-14.5 9q0 22 -2.5 46t-2.5 47q0 19 3 36.5t12 31t24.5 21t40.5 7.5q4 -6 6 -11t8 -7l-2 10t-2 11q18 7 32.5 11t35.5 4q12 -37 16.5 -73.5t4.5 -73.5v-22t-1 -22q-21 -17 -46 -25.5t-52 -15.5zM110 374q-11 8 -30.5 17t-30.5 13
q-2 47 -8 75t-6 46q0 10 3.5 18.5t13.5 15.5t26.5 14t42.5 15v-11q1 -2 2 -2t2 -1l1 -1q13 12 18.5 17.5t11.5 7.5t15.5 1.5t29.5 0.5q25 -75 25 -123q0 -38 -25 -62t-91 -41z" />
    <glyph glyph-name="dollar" unicode="$" horiz-adv-x="616" 
d="M390 602q-5 8 -5 13q21 -2 35.5 -14.5t24.5 -29.5t15.5 -35.5t7.5 -33.5h-20q-9 0 -15 -1t-10 -4t-7.5 -9.5t-7.5 -18.5q-18 -5 -33 -11.5t-32 -6.5q-2 0 -4 0.5t-4 0.5v4q0 8 -12 26t-31 36.5t-41 32.5t-41 14q-13 0 -22 -5q-23 -4 -36.5 -10t-13.5 -15
q0 -14 21.5 -30.5t55.5 -32.5t75.5 -30.5t82.5 -24.5q72 -19 143 -33.5t129 -28.5q72 -18 71 -64q0 -9 -2 -17.5t-5 -19.5q-16 -50 -65.5 -100t-121.5 -90t-160.5 -65t-181.5 -25q-94 0 -152 48q2 2 12 7q-24 17 -35 41t-11 51q0 22 7 44.5t20 42t31.5 34t41.5 22.5v10
q13 4 29 10t31.5 11t29.5 9t25 4q13 0 27.5 -3.5t14.5 -12.5q0 -14 -14 -28l-30.5 -30t-30 -35t-13.5 -42q0 -32 21 -44.5t61 -12.5q39 0 88.5 10t93 27t73 39.5t29.5 48.5q0 18 -21.5 32.5t-55.5 26.5t-76.5 22t-85 18.5l-80.5 16.5t-63 16q-95 29 -147 60.5t-52 75.5
q0 35 27 64t65.5 50t80.5 32.5t72 11.5q44 0 92 -15.5z" />
    <glyph glyph-name="Scaron" unicode="&#x160;" horiz-adv-x="616" 
d="M390 602q-5 8 -5 13q21 -2 35.5 -14.5t24.5 -29.5t15.5 -35.5t7.5 -33.5h-20q-9 0 -15 -1t-10 -4t-7.5 -9.5t-7.5 -18.5q-18 -5 -33 -11.5t-32 -6.5q-2 0 -4 0.5t-4 0.5v4q0 8 -12 26t-31 36.5t-41 32.5t-41 14q-13 0 -22 -5q-23 -4 -36.5 -10t-13.5 -15
q0 -14 21.5 -30.5t55.5 -32.5t75.5 -30.5t82.5 -24.5q72 -19 143 -33.5t129 -28.5q72 -18 71 -64q0 -9 -2 -17.5t-5 -19.5q-16 -50 -65.5 -100t-121.5 -90t-160.5 -65t-181.5 -25q-94 0 -152 48q2 2 12 7q-24 17 -35 41t-11 51q0 22 7 44.5t20 42t31.5 34t41.5 22.5v10
q13 4 29 10t31.5 11t29.5 9t25 4q13 0 27.5 -3.5t14.5 -12.5q0 -14 -14 -28l-30.5 -30t-30 -35t-13.5 -42q0 -32 21 -44.5t61 -12.5q39 0 88.5 10t93 27t73 39.5t29.5 48.5q0 18 -21.5 32.5t-55.5 26.5t-76.5 22t-85 18.5l-80.5 16.5t-63 16q-95 29 -147 60.5t-52 75.5
q0 35 27 64t65.5 50t80.5 32.5t72 11.5q44 0 92 -15.5z" />
    <glyph glyph-name="oe" unicode="&#x153;" horiz-adv-x="687" 
d="M17 443q18 27 44.5 55.5t62 52t79.5 39t95 15.5q10 0 19.5 -0.5t19.5 -1.5v11h13q50 0 101.5 -19t97 -52t82 -77t57.5 -94q5 5 8 5t7.5 -11.5t8 -27t6 -32.5t2.5 -28q0 -45 -18.5 -85.5t-49.5 -76t-71.5 -64t-85 -49t-89.5 -31.5t-85 -11q-60 0 -122.5 25t-114 69
t-84.5 105t-33 133q0 71 50 150zM309 87q34 -9 64 -9q43 0 71.5 20t45 49t23 63t6.5 62q0 54 -10 82.5t-24 44t-29.5 25.5t-26.5 27q-21 31 -45 31q-5 -12 -15 -12h-6q-10 0 -17 -7q-25 19 -26 19v-1v-1q0 3 -4.5 9.5t-12 13.5t-17.5 12.5t-22 5.5q-48 0 -81 -48.5
t-33 -138.5q0 -38 8 -77.5t27 -73.5t49.5 -60t74.5 -36z" />
    <glyph glyph-name="Zcaron" unicode="&#x17d;" horiz-adv-x="631" 
d="M164 501q16 -15 20.5 -20t7 -7t7 -4.5t21.5 -14.5q-5 -4 -9 -5t-23 -2q-4 -9 -4 -18h-11q-8 -16 -15.5 -20t-23.5 -10v-12l-25 -7l-19 -5q-11 28 -36 51.5l-51 46.5t-46 47.5t-20 54.5q0 11 6 27t19.5 31t35.5 25.5t55 10.5q24 0 48 -4.5t48.5 -11.5l49 -14t49.5 -13
l174 -38.5l169 -39.5q14 -4 18.5 -4.5t4.5 -16.5v-27q-9 -3 -15.5 -4.5t-11 -4t-7.5 -7.5t-6 -14h-11q-27 -37 -70.5 -85t-100.5 -93l-49.5 -40l-40.5 -34l-37 -31l-39 -31q2 -3 4 -9q42 1 100 4.5t148 3.5q44 0 87 -4.5t79.5 -13.5t64.5 -23.5t42 -35.5q-3 -2 -5.5 -4
t-4.5 -4q2 -2 4 -4.5t4 -4.5q-6 -7 -15 -11t-17 -9t-14 -11.5t-6 -17.5h-11v-12q-7 1 -13 2t-12 3q-2 -3 -4 -6.5t-4 -8.5q-3 2 -6.5 2.5t-5.5 1.5v-12q-78 19 -167.5 29t-183.5 10q-105 0 -204.5 -13.5t-182.5 -42.5q-5 11 -9 22t-4 22q0 22 24 53t62.5 65t85.5 69.5
l92 67.5q87 62 137 113t75 80l-12.5 6.5l-16.5 8.5t-25 10.5t-39 11.5q-20 5 -40 9.5l-37 8t-28.5 5.5t-13.5 2h-1h17q0 -5 -2 -6.5t-10 -2.5q2 -2 3 -5t3 -5z" />
    <glyph glyph-name="OE" unicode="&#x152;" horiz-adv-x="687" 
d="M17 443q18 27 44.5 55.5t62 52t79.5 39t95 15.5q10 0 19.5 -0.5t19.5 -1.5v11h13q50 0 101.5 -19t97 -52t82 -77t57.5 -94q5 5 8 5t7.5 -11.5t8 -27t6 -32.5t2.5 -28q0 -45 -18.5 -85.5t-49.5 -76t-71.5 -64t-85 -49t-89.5 -31.5t-85 -11q-60 0 -122.5 25t-114 69
t-84.5 105t-33 133q0 71 50 150zM309 87q34 -9 64 -9q43 0 71.5 20t45 49t23 63t6.5 62q0 54 -10 82.5t-24 44t-29.5 25.5t-26.5 27q-21 31 -45 31q-5 -12 -15 -12h-6q-10 0 -17 -7q-25 19 -26 19v-1v-1q0 3 -4.5 9.5t-12 13.5t-17.5 12.5t-22 5.5q-48 0 -81 -48.5
t-33 -138.5q0 -38 8 -77.5t27 -73.5t49.5 -60t74.5 -36z" />
    <glyph glyph-name="Ograve" unicode="&#xd2;" horiz-adv-x="687" 
d="M17 443q18 27 44.5 55.5t62 52t79.5 39t95 15.5q10 0 19.5 -0.5t19.5 -1.5v11h13q50 0 101.5 -19t97 -52t82 -77t57.5 -94q5 5 8 5t7.5 -11.5t8 -27t6 -32.5t2.5 -28q0 -45 -18.5 -85.5t-49.5 -76t-71.5 -64t-85 -49t-89.5 -31.5t-85 -11q-60 0 -122.5 25t-114 69
t-84.5 105t-33 133q0 71 50 150zM309 87q34 -9 64 -9q43 0 71.5 20t45 49t23 63t6.5 62q0 54 -10 82.5t-24 44t-29.5 25.5t-26.5 27q-21 31 -45 31q-5 -12 -15 -12h-6q-10 0 -17 -7q-25 19 -26 19v-1v-1q0 3 -4.5 9.5t-12 13.5t-17.5 12.5t-22 5.5q-48 0 -81 -48.5
t-33 -138.5q0 -38 8 -77.5t27 -73.5t49.5 -60t74.5 -36z" />
    <glyph glyph-name="Oacute" unicode="&#xd3;" horiz-adv-x="687" 
d="M17 443q18 27 44.5 55.5t62 52t79.5 39t95 15.5q10 0 19.5 -0.5t19.5 -1.5v11h13q50 0 101.5 -19t97 -52t82 -77t57.5 -94q5 5 8 5t7.5 -11.5t8 -27t6 -32.5t2.5 -28q0 -45 -18.5 -85.5t-49.5 -76t-71.5 -64t-85 -49t-89.5 -31.5t-85 -11q-60 0 -122.5 25t-114 69
t-84.5 105t-33 133q0 71 50 150zM309 87q34 -9 64 -9q43 0 71.5 20t45 49t23 63t6.5 62q0 54 -10 82.5t-24 44t-29.5 25.5t-26.5 27q-21 31 -45 31q-5 -12 -15 -12h-6q-10 0 -17 -7q-25 19 -26 19v-1v-1q0 3 -4.5 9.5t-12 13.5t-17.5 12.5t-22 5.5q-48 0 -81 -48.5
t-33 -138.5q0 -38 8 -77.5t27 -73.5t49.5 -60t74.5 -36z" />
    <glyph glyph-name="Ocircumflex" unicode="&#xd4;" horiz-adv-x="687" 
d="M17 443q18 27 44.5 55.5t62 52t79.5 39t95 15.5q10 0 19.5 -0.5t19.5 -1.5v11h13q50 0 101.5 -19t97 -52t82 -77t57.5 -94q5 5 8 5t7.5 -11.5t8 -27t6 -32.5t2.5 -28q0 -45 -18.5 -85.5t-49.5 -76t-71.5 -64t-85 -49t-89.5 -31.5t-85 -11q-60 0 -122.5 25t-114 69
t-84.5 105t-33 133q0 71 50 150zM309 87q34 -9 64 -9q43 0 71.5 20t45 49t23 63t6.5 62q0 54 -10 82.5t-24 44t-29.5 25.5t-26.5 27q-21 31 -45 31q-5 -12 -15 -12h-6q-10 0 -17 -7q-25 19 -26 19v-1v-1q0 3 -4.5 9.5t-12 13.5t-17.5 12.5t-22 5.5q-48 0 -81 -48.5
t-33 -138.5q0 -38 8 -77.5t27 -73.5t49.5 -60t74.5 -36z" />
    <glyph glyph-name="Otilde" unicode="&#xd5;" horiz-adv-x="687" 
d="M17 443q18 27 44.5 55.5t62 52t79.5 39t95 15.5q10 0 19.5 -0.5t19.5 -1.5v11h13q50 0 101.5 -19t97 -52t82 -77t57.5 -94q5 5 8 5t7.5 -11.5t8 -27t6 -32.5t2.5 -28q0 -45 -18.5 -85.5t-49.5 -76t-71.5 -64t-85 -49t-89.5 -31.5t-85 -11q-60 0 -122.5 25t-114 69
t-84.5 105t-33 133q0 71 50 150zM309 87q34 -9 64 -9q43 0 71.5 20t45 49t23 63t6.5 62q0 54 -10 82.5t-24 44t-29.5 25.5t-26.5 27q-21 31 -45 31q-5 -12 -15 -12h-6q-10 0 -17 -7q-25 19 -26 19v-1v-1q0 3 -4.5 9.5t-12 13.5t-17.5 12.5t-22 5.5q-48 0 -81 -48.5
t-33 -138.5q0 -38 8 -77.5t27 -73.5t49.5 -60t74.5 -36z" />
    <glyph glyph-name="ograve" unicode="&#xf2;" horiz-adv-x="687" 
d="M17 443q18 27 44.5 55.5t62 52t79.5 39t95 15.5q10 0 19.5 -0.5t19.5 -1.5v11h13q50 0 101.5 -19t97 -52t82 -77t57.5 -94q5 5 8 5t7.5 -11.5t8 -27t6 -32.5t2.5 -28q0 -45 -18.5 -85.5t-49.5 -76t-71.5 -64t-85 -49t-89.5 -31.5t-85 -11q-60 0 -122.5 25t-114 69
t-84.5 105t-33 133q0 71 50 150zM309 87q34 -9 64 -9q43 0 71.5 20t45 49t23 63t6.5 62q0 54 -10 82.5t-24 44t-29.5 25.5t-26.5 27q-21 31 -45 31q-5 -12 -15 -12h-6q-10 0 -17 -7q-25 19 -26 19v-1v-1q0 3 -4.5 9.5t-12 13.5t-17.5 12.5t-22 5.5q-48 0 -81 -48.5
t-33 -138.5q0 -38 8 -77.5t27 -73.5t49.5 -60t74.5 -36z" />
    <glyph glyph-name="oacute" unicode="&#xf3;" horiz-adv-x="687" 
d="M17 443q18 27 44.5 55.5t62 52t79.5 39t95 15.5q10 0 19.5 -0.5t19.5 -1.5v11h13q50 0 101.5 -19t97 -52t82 -77t57.5 -94q5 5 8 5t7.5 -11.5t8 -27t6 -32.5t2.5 -28q0 -45 -18.5 -85.5t-49.5 -76t-71.5 -64t-85 -49t-89.5 -31.5t-85 -11q-60 0 -122.5 25t-114 69
t-84.5 105t-33 133q0 71 50 150zM309 87q34 -9 64 -9q43 0 71.5 20t45 49t23 63t6.5 62q0 54 -10 82.5t-24 44t-29.5 25.5t-26.5 27q-21 31 -45 31q-5 -12 -15 -12h-6q-10 0 -17 -7q-25 19 -26 19v-1v-1q0 3 -4.5 9.5t-12 13.5t-17.5 12.5t-22 5.5q-48 0 -81 -48.5
t-33 -138.5q0 -38 8 -77.5t27 -73.5t49.5 -60t74.5 -36z" />
    <glyph glyph-name="ocircumflex" unicode="&#xf4;" horiz-adv-x="687" 
d="M17 443q18 27 44.5 55.5t62 52t79.5 39t95 15.5q10 0 19.5 -0.5t19.5 -1.5v11h13q50 0 101.5 -19t97 -52t82 -77t57.5 -94q5 5 8 5t7.5 -11.5t8 -27t6 -32.5t2.5 -28q0 -45 -18.5 -85.5t-49.5 -76t-71.5 -64t-85 -49t-89.5 -31.5t-85 -11q-60 0 -122.5 25t-114 69
t-84.5 105t-33 133q0 71 50 150zM309 87q34 -9 64 -9q43 0 71.5 20t45 49t23 63t6.5 62q0 54 -10 82.5t-24 44t-29.5 25.5t-26.5 27q-21 31 -45 31q-5 -12 -15 -12h-6q-10 0 -17 -7q-25 19 -26 19v-1v-1q0 3 -4.5 9.5t-12 13.5t-17.5 12.5t-22 5.5q-48 0 -81 -48.5
t-33 -138.5q0 -38 8 -77.5t27 -73.5t49.5 -60t74.5 -36z" />
    <glyph glyph-name="otilde" unicode="&#xf5;" horiz-adv-x="687" 
d="M17 443q18 27 44.5 55.5t62 52t79.5 39t95 15.5q10 0 19.5 -0.5t19.5 -1.5v11h13q50 0 101.5 -19t97 -52t82 -77t57.5 -94q5 5 8 5t7.5 -11.5t8 -27t6 -32.5t2.5 -28q0 -45 -18.5 -85.5t-49.5 -76t-71.5 -64t-85 -49t-89.5 -31.5t-85 -11q-60 0 -122.5 25t-114 69
t-84.5 105t-33 133q0 71 50 150zM309 87q34 -9 64 -9q43 0 71.5 20t45 49t23 63t6.5 62q0 54 -10 82.5t-24 44t-29.5 25.5t-26.5 27q-21 31 -45 31q-5 -12 -15 -12h-6q-10 0 -17 -7q-25 19 -26 19v-1v-1q0 3 -4.5 9.5t-12 13.5t-17.5 12.5t-22 5.5q-48 0 -81 -48.5
t-33 -138.5q0 -38 8 -77.5t27 -73.5t49.5 -60t74.5 -36z" />
    <glyph glyph-name="ntilde" unicode="&#xf1;" horiz-adv-x="595" 
d="M592 -59q-18 9 -28.5 20t-17 24t-10.5 28.5t-10 33.5h-11q4 -11 5.5 -16t1.5 -8q0 -2 -2 -8q-24 35 -46.5 81t-43.5 94l-41 93.5t-40 80.5q-13 -38 -21 -87t-13.5 -100t-9.5 -99.5t-9 -87.5q-8 -1 -15.5 -1.5t-14.5 -0.5q-14 0 -23 1.5t-18 3.5t-18.5 3.5t-23.5 1.5
q-5 0 -10 -0.5t-10 -0.5q-3 0 -6 1t-5 1t-3 -1q-17 9 -40 45.5t-48.5 88t-50.5 111t-45.5 114.5t-34 98t-15.5 62q0 9 2 12t12 6q36 7 54.5 8.5t37.5 1.5h27t35 -2l17 -45l20.5 -53.5l21 -53.5t19.5 -45q18 60 40.5 119.5t58.5 122.5q3 5 6.5 13t7.5 15t9 12t11 5
q14 0 25.5 3t21.5 7t20 7t22 3q11 0 26 -3v-11q10 -4 19 -6t16 -4t12 -6t8 -12q24 -70 45.5 -140.5t45 -140.5t50.5 -139t61 -135q7 -13 12 -25q5 -11 8.5 -22.5t3.5 -20.5q0 -3 -5.5 -11.5t-14.5 -17.5t-21 -15.5t-24 -6.5q-3 0 -6 5.5t-5 5.5q-7 -2 -11.5 -4.5t-10.5 -2.5
z" />
    <glyph glyph-name="Ntilde" unicode="&#xd1;" horiz-adv-x="595" 
d="M592 -59q-18 9 -28.5 20t-17 24t-10.5 28.5t-10 33.5h-11q4 -11 5.5 -16t1.5 -8q0 -2 -2 -8q-24 35 -46.5 81t-43.5 94l-41 93.5t-40 80.5q-13 -38 -21 -87t-13.5 -100t-9.5 -99.5t-9 -87.5q-8 -1 -15.5 -1.5t-14.5 -0.5q-14 0 -23 1.5t-18 3.5t-18.5 3.5t-23.5 1.5
q-5 0 -10 -0.5t-10 -0.5q-3 0 -6 1t-5 1t-3 -1q-17 9 -40 45.5t-48.5 88t-50.5 111t-45.5 114.5t-34 98t-15.5 62q0 9 2 12t12 6q36 7 54.5 8.5t37.5 1.5h27t35 -2l17 -45l20.5 -53.5l21 -53.5t19.5 -45q18 60 40.5 119.5t58.5 122.5q3 5 6.5 13t7.5 15t9 12t11 5
q14 0 25.5 3t21.5 7t20 7t22 3q11 0 26 -3v-11q10 -4 19 -6t16 -4t12 -6t8 -12q24 -70 45.5 -140.5t45 -140.5t50.5 -139t61 -135q7 -13 12 -25q5 -11 8.5 -22.5t3.5 -20.5q0 -3 -5.5 -11.5t-14.5 -17.5t-21 -15.5t-24 -6.5q-3 0 -6 5.5t-5 5.5q-7 -2 -11.5 -4.5t-10.5 -2.5
z" />
    <glyph glyph-name="Eth" unicode="&#xd0;" horiz-adv-x="648" 
d="M175 -44q-47 3 -81.5 30t-57 68.5t-33.5 93t-11 102.5q0 40 6.5 79t20 73t32.5 61t45 44q35 23 62.5 38t52.5 24t48 13t49 4q33 0 74 -6q-9 27 -15.5 52t-9.5 41q4 3 10.5 12t6.5 15q0 4 -6 6q-4 15 -7 34t-3 38q0 20 3 35t28 20v8q4 3 14.5 10t16.5 7q0 -1 1.5 -5
t4 -8.5t5.5 -8.5t7 -4l-2 4v1q0 -1 1 -1t0.5 1.5t7.5 4.5q0 3 2 11h8q1 -3 3 -11h8q3 9 8 18h7q0 -1 0 3t1 4h6q0 3 2 9q5 0 5 -3q0 -2 -1.5 -3.5t-1.5 -3.5q0 -1 7.5 -9.5t15.5 -13.5q11 -23 21 -63.5t20 -91l20.5 -108t22.5 -115.5t26.5 -112.5t32.5 -99.5q9 -22 14 -48
t11 -49t14.5 -41t22.5 -23q9 -7 22 -13q0 -12 -1.5 -14.5t-3.5 -4t-4.5 -5.5t-5.5 -19q-35 -24 -69 -24q-11 0 -13.5 4t-6.5 11q-25 -17 -44 -17q-10 0 -18.5 1.5t-16.5 1.5h-12q-5 16 -11.5 40l-14 50l-14.5 50.5t-13 41.5q-27 -60 -54.5 -101.5t-63.5 -69t-84 -43.5
t-117 -25zM234 105q16 -21 30 -21q21 0 44 30.5t41.5 75t30.5 94t12 88.5q0 67 -26 96t-63 29q-34 0 -76 -26v-7q-40 -14 -57 -50t-17 -82q0 -30 6.5 -61.5t17.5 -61.5t25.5 -57t31.5 -47z" />
    <glyph glyph-name="Thorn" unicode="&#xde;" horiz-adv-x="648" 
d="M175 -44q-47 3 -81.5 30t-57 68.5t-33.5 93t-11 102.5q0 40 6.5 79t20 73t32.5 61t45 44q35 23 62.5 38t52.5 24t48 13t49 4q33 0 74 -6q-9 27 -15.5 52t-9.5 41q4 3 10.5 12t6.5 15q0 4 -6 6q-4 15 -7 34t-3 38q0 20 3 35t28 20v8q4 3 14.5 10t16.5 7q0 -1 1.5 -5
t4 -8.5t5.5 -8.5t7 -4l-2 4v1q0 -1 1 -1t0.5 1.5t7.5 4.5q0 3 2 11h8q1 -3 3 -11h8q3 9 8 18h7q0 -1 0 3t1 4h6q0 3 2 9q5 0 5 -3q0 -2 -1.5 -3.5t-1.5 -3.5q0 -1 7.5 -9.5t15.5 -13.5q11 -23 21 -63.5t20 -91l20.5 -108t22.5 -115.5t26.5 -112.5t32.5 -99.5q9 -22 14 -48
t11 -49t14.5 -41t22.5 -23q9 -7 22 -13q0 -12 -1.5 -14.5t-3.5 -4t-4.5 -5.5t-5.5 -19q-35 -24 -69 -24q-11 0 -13.5 4t-6.5 11q-25 -17 -44 -17q-10 0 -18.5 1.5t-16.5 1.5h-12q-5 16 -11.5 40l-14 50l-14.5 50.5t-13 41.5q-27 -60 -54.5 -101.5t-63.5 -69t-84 -43.5
t-117 -25zM234 105q16 -21 30 -21q21 0 44 30.5t41.5 75t30.5 94t12 88.5q0 67 -26 96t-63 29q-34 0 -76 -26v-7q-40 -14 -57 -50t-17 -82q0 -30 6.5 -61.5t17.5 -61.5t25.5 -57t31.5 -47z" />
    <glyph glyph-name="germandbls" unicode="&#xdf;" horiz-adv-x="616" 
d="M390 602q-5 8 -5 13q21 -2 35.5 -14.5t24.5 -29.5t15.5 -35.5t7.5 -33.5h-20q-9 0 -15 -1t-10 -4t-7.5 -9.5t-7.5 -18.5q-18 -5 -33 -11.5t-32 -6.5q-2 0 -4 0.5t-4 0.5v4q0 8 -12 26t-31 36.5t-41 32.5t-41 14q-13 0 -22 -5q-23 -4 -36.5 -10t-13.5 -15
q0 -14 21.5 -30.5t55.5 -32.5t75.5 -30.5t82.5 -24.5q72 -19 143 -33.5t129 -28.5q72 -18 71 -64q0 -9 -2 -17.5t-5 -19.5q-16 -50 -65.5 -100t-121.5 -90t-160.5 -65t-181.5 -25q-94 0 -152 48q2 2 12 7q-24 17 -35 41t-11 51q0 22 7 44.5t20 42t31.5 34t41.5 22.5v10
q13 4 29 10t31.5 11t29.5 9t25 4q13 0 27.5 -3.5t14.5 -12.5q0 -14 -14 -28l-30.5 -30t-30 -35t-13.5 -42q0 -32 21 -44.5t61 -12.5q39 0 88.5 10t93 27t73 39.5t29.5 48.5q0 18 -21.5 32.5t-55.5 26.5t-76.5 22t-85 18.5l-80.5 16.5t-63 16q-95 29 -147 60.5t-52 75.5
q0 35 27 64t65.5 50t80.5 32.5t72 11.5q44 0 92 -15.5z" />
    <glyph glyph-name="AE" unicode="&#xc6;" horiz-adv-x="708" 
d="M229 129q3 -3 8 -3q8 0 17 7t20 12q17 7 37 23.5t40.5 38.5t39 47.5t33 50t23.5 46t9 35.5q0 11 -6 17q0 13 2 21.5t2 20.5q-8 5 -18.5 6.5t-23.5 1.5q-28 0 -60.5 -6.5t-65 -18.5t-62.5 -29.5t-53.5 -39t-37.5 -47.5t-14 -54q0 -61 110 -129zM670 498l16 -93t18 -93
t22.5 -91t30.5 -86q1 -2 1 -6q0 -7 -14 -21q-20 -19 -33.5 -30.5t-23 -18t-18 -9t-17.5 -2.5v-17h-10v-10q-17 4 -25 9.5t-20 6.5v11q-7 15 -10 28.5t-5 26l-4 24t-7 23.5q-3 4 -5.5 13l-5.5 19.5t-6.5 21t-9.5 18.5v4q0 1 -3 4q-5 0 -17.5 -12t-26 -27.5t-25.5 -31
t-16 -22.5h-5q-32 -39 -68 -69.5t-74 -52t-76 -33t-74 -11.5q-64 0 -115 38.5t-75 123.5q-13 43 -13 78q0 51 27.5 97t72 85.5t102.5 72t118.5 57t120 40t107.5 21.5q3 6 3.5 10t2 6.5t5 3.5t12.5 1h24h5q0 -5 5.5 -6.5t3.5 -1.5q7 0 8 4q32 -3 62 -11.5l53 -15.5
q-3 -8 -3 -15q0 -11 6 -18q-3 -2 -5.5 -4t-4.5 -4q1 -5 1 -9.5v-6.5q0 -1 -4.5 -7.5t-7.5 -11.5zM311 606l-15.5 35t-9 23t-6.5 24.5t-8 39.5q-2 10 -3.5 23t-7.5 15q-8 -23 -24 -39t-25 -34q-4 0 -8.5 1t-9.5 1q0 -4 0.5 -7t0.5 -7t-0.5 -13.5t-3.5 -9.5q-2 0 -8 2
q-5 -7 -10.5 -15.5t-12 -16t-14 -13t-15.5 -5.5q-11 0 -20.5 26.5t-17.5 61t-12.5 68.5t-4.5 49q0 2 -0.5 4.5t0.5 4.5l-1 1q-1 1 -1.5 1t-1.5 2q0 3 1 5t2 5q8 -2 9.5 -2.5t4.5 -2.5q5 24 13 37l20 31q1 -1 1 -1.5t1 -1.5q5 17 19 19t27 2q20 0 31 -9.5t14 -41.5
q6 -2 14 -6q1 4 1.5 6.5t2.5 6.5q4 -10 7 -22t10 -18v-5q2 2 3 2q3 45 12 92q3 0 6.5 4t6.5 9t5 9t3 4q5 0 7.5 4t5.5 8h5q2 5 4 9l3 6h6q8 28 30 28q7 0 15 -5q7 7 7 8q8 0 11 -9t4 -9q4 14 13 14q8 0 18 -10v-5q6 -15 16.5 -46.5t21 -68.5t18 -73t7.5 -58q0 -18 -8.5 -29
t-19.5 -19.5l-21 -16t-12 -17.5h-5q-3 -3 -3 -6q-7 3 -9 8t-9 6q-2 -9 -4 -19.5t-5 -18.5q-8 3 -10.5 3h-8.5q-2 -4 -2.5 -9.5t-1.5 -10.5l-9 3q-7 -8 -13.5 -10t-14.5 -2q-2 0 -5 0.5t-6 0.5z" />
    <glyph glyph-name="ae" unicode="&#xe6;" horiz-adv-x="708" 
d="M229 129q3 -3 8 -3q8 0 17 7t20 12q17 7 37 23.5t40.5 38.5t39 47.5t33 50t23.5 46t9 35.5q0 11 -6 17q0 13 2 21.5t2 20.5q-8 5 -18.5 6.5t-23.5 1.5q-28 0 -60.5 -6.5t-65 -18.5t-62.5 -29.5t-53.5 -39t-37.5 -47.5t-14 -54q0 -61 110 -129zM670 498l16 -93t18 -93
t22.5 -91t30.5 -86q1 -2 1 -6q0 -7 -14 -21q-20 -19 -33.5 -30.5t-23 -18t-18 -9t-17.5 -2.5v-17h-10v-10q-17 4 -25 9.5t-20 6.5v11q-7 15 -10 28.5t-5 26l-4 24t-7 23.5q-3 4 -5.5 13l-5.5 19.5t-6.5 21t-9.5 18.5v4q0 1 -3 4q-5 0 -17.5 -12t-26 -27.5t-25.5 -31
t-16 -22.5h-5q-32 -39 -68 -69.5t-74 -52t-76 -33t-74 -11.5q-64 0 -115 38.5t-75 123.5q-13 43 -13 78q0 51 27.5 97t72 85.5t102.5 72t118.5 57t120 40t107.5 21.5q3 6 3.5 10t2 6.5t5 3.5t12.5 1h24h5q0 -5 5.5 -6.5t3.5 -1.5q7 0 8 4q32 -3 62 -11.5l53 -15.5
q-3 -8 -3 -15q0 -11 6 -18q-3 -2 -5.5 -4t-4.5 -4q1 -5 1 -9.5v-6.5q0 -1 -4.5 -7.5t-7.5 -11.5zM311 606l-15.5 35t-9 23t-6.5 24.5t-8 39.5q-2 10 -3.5 23t-7.5 15q-8 -23 -24 -39t-25 -34q-4 0 -8.5 1t-9.5 1q0 -4 0.5 -7t0.5 -7t-0.5 -13.5t-3.5 -9.5q-2 0 -8 2
q-5 -7 -10.5 -15.5t-12 -16t-14 -13t-15.5 -5.5q-11 0 -20.5 26.5t-17.5 61t-12.5 68.5t-4.5 49q0 2 -0.5 4.5t0.5 4.5l-1 1q-1 1 -1.5 1t-1.5 2q0 3 1 5t2 5q8 -2 9.5 -2.5t4.5 -2.5q5 24 13 37l20 31q1 -1 1 -1.5t1 -1.5q5 17 19 19t27 2q20 0 31 -9.5t14 -41.5
q6 -2 14 -6q1 4 1.5 6.5t2.5 6.5q4 -10 7 -22t10 -18v-5q2 2 3 2q3 45 12 92q3 0 6.5 4t6.5 9t5 9t3 4q5 0 7.5 4t5.5 8h5q2 5 4 9l3 6h6q8 28 30 28q7 0 15 -5q7 7 7 8q8 0 11 -9t4 -9q4 14 13 14q8 0 18 -10v-5q6 -15 16.5 -46.5t21 -68.5t18 -73t7.5 -58q0 -18 -8.5 -29
t-19.5 -19.5l-21 -16t-12 -17.5h-5q-3 -3 -3 -6q-7 3 -9 8t-9 6q-2 -9 -4 -19.5t-5 -18.5q-8 3 -10.5 3h-8.5q-2 -4 -2.5 -9.5t-1.5 -10.5l-9 3q-7 -8 -13.5 -10t-14.5 -2q-2 0 -5 0.5t-6 0.5z" />
    <glyph glyph-name="ccedilla" unicode="&#xe7;" horiz-adv-x="571" 
d="M291 -32q-75 0 -129 14t-91 36.5t-59 50t-34 55t-16 52t-4 39.5q0 36 13 75t34 75t47 65.5t52 46.5q18 11 41 28t49.5 33t56 27.5t60.5 11.5q19 0 53 -8t68.5 -25.5t62.5 -45.5t36 -67l-4 -2t-5 -3q0 -10 1 -15q-4 4 -6 7q-23 -22 -48 -22q-21 0 -39 14q-2 -5 -4.5 -9.5
t-4.5 -9.5q-70 0 -114 74q-5 8 -12.5 11t-14.5 3q-16 0 -24 -10l-37.5 -46.5t-35.5 -48.5t-26.5 -52.5t-10.5 -57.5q0 -26 9 -54t29 -60h11q14 -29 36.5 -45.5t48.5 -24t55 -9t57 -1.5q25 0 52 5t52 14t46.5 20.5t37.5 23.5q0 3 2 3t3 -0.5t2 -0.5q3 0 5 3q1 -2 1 -5.5
t1 -7.5q5 1 11 1h11q18 0 32.5 -7t21.5 -30q-39 -40 -85.5 -64t-96 -36.5t-100.5 -16.5t-97 -4z" />
    <glyph glyph-name="egrave" unicode="&#xe8;" horiz-adv-x="582" 
d="M19 32q-5 4 -9 12.5l-8 16.5t-8 14t-7 7q-13 44 -19.5 81.5t-8.5 83.5q-6 1 -8.5 2t-8.5 3q0 39 15.5 84t43 90.5t64.5 87.5t80 74t90.5 51.5t95.5 19.5q32 0 65 -9v-8q52 -8 88 -41t58.5 -79.5t32.5 -100.5t10 -103q0 -50 -14 -86.5t-46 -44.5q0 -4 -13.5 -6.5t-31 -5
t-33.5 -6t-22 -9.5q-6 -4 -21 -4q-29 0 -62.5 7t-67.5 13q-62 10 -105 21q0 -46 18.5 -73t48 -40.5t67.5 -17t77 -3.5q63 0 111.5 12t91.5 21q0 -3 4 -11t4 -11h6q-3 -13 -15.5 -24t-28.5 -20.5t-33 -16.5t-29 -11q-19 -6 -49 -12t-64.5 -10.5t-69.5 -7.5t-63 -3
q-38 0 -66 4t-53 12.5t-50 20zM368 280h12v19q0 62 -10.5 107t-28 74t-39 42.5t-42.5 13.5q-23 0 -43 -10.5t-35 -30t-23.5 -46t-8.5 -59.5q0 -26 8 -60l50 -11.5l56.5 -13l55.5 -13t48 -12.5z" />
    <glyph glyph-name="eacute" unicode="&#xe9;" horiz-adv-x="582" 
d="M19 32q-5 4 -9 12.5l-8 16.5t-8 14t-7 7q-13 44 -19.5 81.5t-8.5 83.5q-6 1 -8.5 2t-8.5 3q0 39 15.5 84t43 90.5t64.5 87.5t80 74t90.5 51.5t95.5 19.5q32 0 65 -9v-8q52 -8 88 -41t58.5 -79.5t32.5 -100.5t10 -103q0 -50 -14 -86.5t-46 -44.5q0 -4 -13.5 -6.5t-31 -5
t-33.5 -6t-22 -9.5q-6 -4 -21 -4q-29 0 -62.5 7t-67.5 13q-62 10 -105 21q0 -46 18.5 -73t48 -40.5t67.5 -17t77 -3.5q63 0 111.5 12t91.5 21q0 -3 4 -11t4 -11h6q-3 -13 -15.5 -24t-28.5 -20.5t-33 -16.5t-29 -11q-19 -6 -49 -12t-64.5 -10.5t-69.5 -7.5t-63 -3
q-38 0 -66 4t-53 12.5t-50 20zM368 280h12v19q0 62 -10.5 107t-28 74t-39 42.5t-42.5 13.5q-23 0 -43 -10.5t-35 -30t-23.5 -46t-8.5 -59.5q0 -26 8 -60l50 -11.5l56.5 -13l55.5 -13t48 -12.5z" />
    <glyph glyph-name="ecircumflex" unicode="&#xea;" horiz-adv-x="582" 
d="M19 32q-5 4 -9 12.5l-8 16.5t-8 14t-7 7q-13 44 -19.5 81.5t-8.5 83.5q-6 1 -8.5 2t-8.5 3q0 39 15.5 84t43 90.5t64.5 87.5t80 74t90.5 51.5t95.5 19.5q32 0 65 -9v-8q52 -8 88 -41t58.5 -79.5t32.5 -100.5t10 -103q0 -50 -14 -86.5t-46 -44.5q0 -4 -13.5 -6.5t-31 -5
t-33.5 -6t-22 -9.5q-6 -4 -21 -4q-29 0 -62.5 7t-67.5 13q-62 10 -105 21q0 -46 18.5 -73t48 -40.5t67.5 -17t77 -3.5q63 0 111.5 12t91.5 21q0 -3 4 -11t4 -11h6q-3 -13 -15.5 -24t-28.5 -20.5t-33 -16.5t-29 -11q-19 -6 -49 -12t-64.5 -10.5t-69.5 -7.5t-63 -3
q-38 0 -66 4t-53 12.5t-50 20zM368 280h12v19q0 62 -10.5 107t-28 74t-39 42.5t-42.5 13.5q-23 0 -43 -10.5t-35 -30t-23.5 -46t-8.5 -59.5q0 -26 8 -60l50 -11.5l56.5 -13l55.5 -13t48 -12.5z" />
    <glyph glyph-name="edieresis" unicode="&#xeb;" horiz-adv-x="582" 
d="M19 32q-5 4 -9 12.5l-8 16.5t-8 14t-7 7q-13 44 -19.5 81.5t-8.5 83.5q-6 1 -8.5 2t-8.5 3q0 39 15.5 84t43 90.5t64.5 87.5t80 74t90.5 51.5t95.5 19.5q32 0 65 -9v-8q52 -8 88 -41t58.5 -79.5t32.5 -100.5t10 -103q0 -50 -14 -86.5t-46 -44.5q0 -4 -13.5 -6.5t-31 -5
t-33.5 -6t-22 -9.5q-6 -4 -21 -4q-29 0 -62.5 7t-67.5 13q-62 10 -105 21q0 -46 18.5 -73t48 -40.5t67.5 -17t77 -3.5q63 0 111.5 12t91.5 21q0 -3 4 -11t4 -11h6q-3 -13 -15.5 -24t-28.5 -20.5t-33 -16.5t-29 -11q-19 -6 -49 -12t-64.5 -10.5t-69.5 -7.5t-63 -3
q-38 0 -66 4t-53 12.5t-50 20zM368 280h12v19q0 62 -10.5 107t-28 74t-39 42.5t-42.5 13.5q-23 0 -43 -10.5t-35 -30t-23.5 -46t-8.5 -59.5q0 -26 8 -60l50 -11.5l56.5 -13l55.5 -13t48 -12.5z" />
    <glyph glyph-name="Egrave" unicode="&#xc8;" horiz-adv-x="582" 
d="M19 32q-5 4 -9 12.5l-8 16.5t-8 14t-7 7q-13 44 -19.5 81.5t-8.5 83.5q-6 1 -8.5 2t-8.5 3q0 39 15.5 84t43 90.5t64.5 87.5t80 74t90.5 51.5t95.5 19.5q32 0 65 -9v-8q52 -8 88 -41t58.5 -79.5t32.5 -100.5t10 -103q0 -50 -14 -86.5t-46 -44.5q0 -4 -13.5 -6.5t-31 -5
t-33.5 -6t-22 -9.5q-6 -4 -21 -4q-29 0 -62.5 7t-67.5 13q-62 10 -105 21q0 -46 18.5 -73t48 -40.5t67.5 -17t77 -3.5q63 0 111.5 12t91.5 21q0 -3 4 -11t4 -11h6q-3 -13 -15.5 -24t-28.5 -20.5t-33 -16.5t-29 -11q-19 -6 -49 -12t-64.5 -10.5t-69.5 -7.5t-63 -3
q-38 0 -66 4t-53 12.5t-50 20zM368 280h12v19q0 62 -10.5 107t-28 74t-39 42.5t-42.5 13.5q-23 0 -43 -10.5t-35 -30t-23.5 -46t-8.5 -59.5q0 -26 8 -60l50 -11.5l56.5 -13l55.5 -13t48 -12.5z" />
    <glyph glyph-name="Eacute" unicode="&#xc9;" horiz-adv-x="582" 
d="M19 32q-5 4 -9 12.5l-8 16.5t-8 14t-7 7q-13 44 -19.5 81.5t-8.5 83.5q-6 1 -8.5 2t-8.5 3q0 39 15.5 84t43 90.5t64.5 87.5t80 74t90.5 51.5t95.5 19.5q32 0 65 -9v-8q52 -8 88 -41t58.5 -79.5t32.5 -100.5t10 -103q0 -50 -14 -86.5t-46 -44.5q0 -4 -13.5 -6.5t-31 -5
t-33.5 -6t-22 -9.5q-6 -4 -21 -4q-29 0 -62.5 7t-67.5 13q-62 10 -105 21q0 -46 18.5 -73t48 -40.5t67.5 -17t77 -3.5q63 0 111.5 12t91.5 21q0 -3 4 -11t4 -11h6q-3 -13 -15.5 -24t-28.5 -20.5t-33 -16.5t-29 -11q-19 -6 -49 -12t-64.5 -10.5t-69.5 -7.5t-63 -3
q-38 0 -66 4t-53 12.5t-50 20zM368 280h12v19q0 62 -10.5 107t-28 74t-39 42.5t-42.5 13.5q-23 0 -43 -10.5t-35 -30t-23.5 -46t-8.5 -59.5q0 -26 8 -60l50 -11.5l56.5 -13l55.5 -13t48 -12.5z" />
    <glyph glyph-name="Ecircumflex" unicode="&#xca;" horiz-adv-x="582" 
d="M19 32q-5 4 -9 12.5l-8 16.5t-8 14t-7 7q-13 44 -19.5 81.5t-8.5 83.5q-6 1 -8.5 2t-8.5 3q0 39 15.5 84t43 90.5t64.5 87.5t80 74t90.5 51.5t95.5 19.5q32 0 65 -9v-8q52 -8 88 -41t58.5 -79.5t32.5 -100.5t10 -103q0 -50 -14 -86.5t-46 -44.5q0 -4 -13.5 -6.5t-31 -5
t-33.5 -6t-22 -9.5q-6 -4 -21 -4q-29 0 -62.5 7t-67.5 13q-62 10 -105 21q0 -46 18.5 -73t48 -40.5t67.5 -17t77 -3.5q63 0 111.5 12t91.5 21q0 -3 4 -11t4 -11h6q-3 -13 -15.5 -24t-28.5 -20.5t-33 -16.5t-29 -11q-19 -6 -49 -12t-64.5 -10.5t-69.5 -7.5t-63 -3
q-38 0 -66 4t-53 12.5t-50 20zM368 280h12v19q0 62 -10.5 107t-28 74t-39 42.5t-42.5 13.5q-23 0 -43 -10.5t-35 -30t-23.5 -46t-8.5 -59.5q0 -26 8 -60l50 -11.5l56.5 -13l55.5 -13t48 -12.5z" />
    <glyph glyph-name="Edieresis" unicode="&#xcb;" horiz-adv-x="582" 
d="M19 32q-5 4 -9 12.5l-8 16.5t-8 14t-7 7q-13 44 -19.5 81.5t-8.5 83.5q-6 1 -8.5 2t-8.5 3q0 39 15.5 84t43 90.5t64.5 87.5t80 74t90.5 51.5t95.5 19.5q32 0 65 -9v-8q52 -8 88 -41t58.5 -79.5t32.5 -100.5t10 -103q0 -50 -14 -86.5t-46 -44.5q0 -4 -13.5 -6.5t-31 -5
t-33.5 -6t-22 -9.5q-6 -4 -21 -4q-29 0 -62.5 7t-67.5 13q-62 10 -105 21q0 -46 18.5 -73t48 -40.5t67.5 -17t77 -3.5q63 0 111.5 12t91.5 21q0 -3 4 -11t4 -11h6q-3 -13 -15.5 -24t-28.5 -20.5t-33 -16.5t-29 -11q-19 -6 -49 -12t-64.5 -10.5t-69.5 -7.5t-63 -3
q-38 0 -66 4t-53 12.5t-50 20zM368 280h12v19q0 62 -10.5 107t-28 74t-39 42.5t-42.5 13.5q-23 0 -43 -10.5t-35 -30t-23.5 -46t-8.5 -59.5q0 -26 8 -60l50 -11.5l56.5 -13l55.5 -13t48 -12.5z" />
    <glyph glyph-name="Igrave" unicode="&#xcc;" horiz-adv-x="220" 
d="M201 6q-23 10 -32 10q-5 0 -5 -3v-2q0 -5 -3 -5q-4 0 -9.5 3.5t-10.5 9t-9 11t-5 9.5h-11q2 -6 2 -7l-1 -2q0 -3 13 -17h-32q-34 69 -53.5 128t-30.5 108q-4 18 -8 44t-7 57t-4.5 63.5t-1.5 62.5q0 50 7 72.5t15 22.5q3 -4 8 -9q0 5 4 9h11q0 12 8.5 13t17.5 1
q31 0 54 -9.5t29 -35.5q1 -4 1.5 -21.5t1.5 -43t2.5 -56l3 -59.5t3 -53.5t3.5 -38.5q5 -37 14 -76.5l17.5 -74.5l14.5 -61.5t6 -35.5q0 -11 -6 -10.5t-7 -3.5zM136 693q-56 -38 -113 -38q-29 0 -41.5 15t-12.5 41q2 7 2 19.5t6 32.5q13 3 34.5 10t35.5 7q8 0 16 -3l3 3t3 5
q3 -5 5 -9.5t4 -6.5q-1 -4 -2 -6.5t-2 -4.5q22 14 34 14q16 0 19 -21q4 -37 12 -46z" />
    <glyph glyph-name="Iacute" unicode="&#xcd;" horiz-adv-x="220" 
d="M201 6q-23 10 -32 10q-5 0 -5 -3v-2q0 -5 -3 -5q-4 0 -9.5 3.5t-10.5 9t-9 11t-5 9.5h-11q2 -6 2 -7l-1 -2q0 -3 13 -17h-32q-34 69 -53.5 128t-30.5 108q-4 18 -8 44t-7 57t-4.5 63.5t-1.5 62.5q0 50 7 72.5t15 22.5q3 -4 8 -9q0 5 4 9h11q0 12 8.5 13t17.5 1
q31 0 54 -9.5t29 -35.5q1 -4 1.5 -21.5t1.5 -43t2.5 -56l3 -59.5t3 -53.5t3.5 -38.5q5 -37 14 -76.5l17.5 -74.5l14.5 -61.5t6 -35.5q0 -11 -6 -10.5t-7 -3.5zM136 693q-56 -38 -113 -38q-29 0 -41.5 15t-12.5 41q2 7 2 19.5t6 32.5q13 3 34.5 10t35.5 7q8 0 16 -3l3 3t3 5
q3 -5 5 -9.5t4 -6.5q-1 -4 -2 -6.5t-2 -4.5q22 14 34 14q16 0 19 -21q4 -37 12 -46z" />
    <glyph glyph-name="Icircumflex" unicode="&#xce;" horiz-adv-x="220" 
d="M201 6q-23 10 -32 10q-5 0 -5 -3v-2q0 -5 -3 -5q-4 0 -9.5 3.5t-10.5 9t-9 11t-5 9.5h-11q2 -6 2 -7l-1 -2q0 -3 13 -17h-32q-34 69 -53.5 128t-30.5 108q-4 18 -8 44t-7 57t-4.5 63.5t-1.5 62.5q0 50 7 72.5t15 22.5q3 -4 8 -9q0 5 4 9h11q0 12 8.5 13t17.5 1
q31 0 54 -9.5t29 -35.5q1 -4 1.5 -21.5t1.5 -43t2.5 -56l3 -59.5t3 -53.5t3.5 -38.5q5 -37 14 -76.5l17.5 -74.5l14.5 -61.5t6 -35.5q0 -11 -6 -10.5t-7 -3.5zM136 693q-56 -38 -113 -38q-29 0 -41.5 15t-12.5 41q2 7 2 19.5t6 32.5q13 3 34.5 10t35.5 7q8 0 16 -3l3 3t3 5
q3 -5 5 -9.5t4 -6.5q-1 -4 -2 -6.5t-2 -4.5q22 14 34 14q16 0 19 -21q4 -37 12 -46z" />
    <glyph glyph-name="Idieresis" unicode="&#xcf;" horiz-adv-x="220" 
d="M201 6q-23 10 -32 10q-5 0 -5 -3v-2q0 -5 -3 -5q-4 0 -9.5 3.5t-10.5 9t-9 11t-5 9.5h-11q2 -6 2 -7l-1 -2q0 -3 13 -17h-32q-34 69 -53.5 128t-30.5 108q-4 18 -8 44t-7 57t-4.5 63.5t-1.5 62.5q0 50 7 72.5t15 22.5q3 -4 8 -9q0 5 4 9h11q0 12 8.5 13t17.5 1
q31 0 54 -9.5t29 -35.5q1 -4 1.5 -21.5t1.5 -43t2.5 -56l3 -59.5t3 -53.5t3.5 -38.5q5 -37 14 -76.5l17.5 -74.5l14.5 -61.5t6 -35.5q0 -11 -6 -10.5t-7 -3.5zM136 693q-56 -38 -113 -38q-29 0 -41.5 15t-12.5 41q2 7 2 19.5t6 32.5q13 3 34.5 10t35.5 7q8 0 16 -3l3 3t3 5
q3 -5 5 -9.5t4 -6.5q-1 -4 -2 -6.5t-2 -4.5q22 14 34 14q16 0 19 -21q4 -37 12 -46z" />
    <glyph glyph-name="igrave" unicode="&#xec;" horiz-adv-x="220" 
d="M201 6q-23 10 -32 10q-5 0 -5 -3v-2q0 -5 -3 -5q-4 0 -9.5 3.5t-10.5 9t-9 11t-5 9.5h-11q2 -6 2 -7l-1 -2q0 -3 13 -17h-32q-34 69 -53.5 128t-30.5 108q-4 18 -8 44t-7 57t-4.5 63.5t-1.5 62.5q0 50 7 72.5t15 22.5q3 -4 8 -9q0 5 4 9h11q0 12 8.5 13t17.5 1
q31 0 54 -9.5t29 -35.5q1 -4 1.5 -21.5t1.5 -43t2.5 -56l3 -59.5t3 -53.5t3.5 -38.5q5 -37 14 -76.5l17.5 -74.5l14.5 -61.5t6 -35.5q0 -11 -6 -10.5t-7 -3.5zM136 693q-56 -38 -113 -38q-29 0 -41.5 15t-12.5 41q2 7 2 19.5t6 32.5q13 3 34.5 10t35.5 7q8 0 16 -3l3 3t3 5
q3 -5 5 -9.5t4 -6.5q-1 -4 -2 -6.5t-2 -4.5q22 14 34 14q16 0 19 -21q4 -37 12 -46z" />
    <glyph glyph-name="iacute" unicode="&#xed;" horiz-adv-x="220" 
d="M201 6q-23 10 -32 10q-5 0 -5 -3v-2q0 -5 -3 -5q-4 0 -9.5 3.5t-10.5 9t-9 11t-5 9.5h-11q2 -6 2 -7l-1 -2q0 -3 13 -17h-32q-34 69 -53.5 128t-30.5 108q-4 18 -8 44t-7 57t-4.5 63.5t-1.5 62.5q0 50 7 72.5t15 22.5q3 -4 8 -9q0 5 4 9h11q0 12 8.5 13t17.5 1
q31 0 54 -9.5t29 -35.5q1 -4 1.5 -21.5t1.5 -43t2.5 -56l3 -59.5t3 -53.5t3.5 -38.5q5 -37 14 -76.5l17.5 -74.5l14.5 -61.5t6 -35.5q0 -11 -6 -10.5t-7 -3.5zM136 693q-56 -38 -113 -38q-29 0 -41.5 15t-12.5 41q2 7 2 19.5t6 32.5q13 3 34.5 10t35.5 7q8 0 16 -3l3 3t3 5
q3 -5 5 -9.5t4 -6.5q-1 -4 -2 -6.5t-2 -4.5q22 14 34 14q16 0 19 -21q4 -37 12 -46z" />
    <glyph glyph-name="icircumflex" unicode="&#xee;" horiz-adv-x="220" 
d="M201 6q-23 10 -32 10q-5 0 -5 -3v-2q0 -5 -3 -5q-4 0 -9.5 3.5t-10.5 9t-9 11t-5 9.5h-11q2 -6 2 -7l-1 -2q0 -3 13 -17h-32q-34 69 -53.5 128t-30.5 108q-4 18 -8 44t-7 57t-4.5 63.5t-1.5 62.5q0 50 7 72.5t15 22.5q3 -4 8 -9q0 5 4 9h11q0 12 8.5 13t17.5 1
q31 0 54 -9.5t29 -35.5q1 -4 1.5 -21.5t1.5 -43t2.5 -56l3 -59.5t3 -53.5t3.5 -38.5q5 -37 14 -76.5l17.5 -74.5l14.5 -61.5t6 -35.5q0 -11 -6 -10.5t-7 -3.5zM136 693q-56 -38 -113 -38q-29 0 -41.5 15t-12.5 41q2 7 2 19.5t6 32.5q13 3 34.5 10t35.5 7q8 0 16 -3l3 3t3 5
q3 -5 5 -9.5t4 -6.5q-1 -4 -2 -6.5t-2 -4.5q22 14 34 14q16 0 19 -21q4 -37 12 -46z" />
    <glyph glyph-name="idieresis" unicode="&#xef;" horiz-adv-x="220" 
d="M201 6q-23 10 -32 10q-5 0 -5 -3v-2q0 -5 -3 -5q-4 0 -9.5 3.5t-10.5 9t-9 11t-5 9.5h-11q2 -6 2 -7l-1 -2q0 -3 13 -17h-32q-34 69 -53.5 128t-30.5 108q-4 18 -8 44t-7 57t-4.5 63.5t-1.5 62.5q0 50 7 72.5t15 22.5q3 -4 8 -9q0 5 4 9h11q0 12 8.5 13t17.5 1
q31 0 54 -9.5t29 -35.5q1 -4 1.5 -21.5t1.5 -43t2.5 -56l3 -59.5t3 -53.5t3.5 -38.5q5 -37 14 -76.5l17.5 -74.5l14.5 -61.5t6 -35.5q0 -11 -6 -10.5t-7 -3.5zM136 693q-56 -38 -113 -38q-29 0 -41.5 15t-12.5 41q2 7 2 19.5t6 32.5q13 3 34.5 10t35.5 7q8 0 16 -3l3 3t3 5
q3 -5 5 -9.5t4 -6.5q-1 -4 -2 -6.5t-2 -4.5q22 14 34 14q16 0 19 -21q4 -37 12 -46z" />
    <glyph glyph-name="divide" unicode="&#xf7;" horiz-adv-x="511" 
d="M-6 -23q-12 0 -16.5 -2t-6.5 -5t-3.5 -5t-6.5 -2q-6 0 -13 3q2 7 3.5 10.5t1.5 5.5q0 5 -9 11q2 3 5 10t9 6h-4q-4 0 -8.5 1.5t-4.5 7.5q0 7 9 19q41 45 90.5 110.5l101 139.5l102 150.5l93 142.5l74.5 116l47 72q6 1 9 2.5t4 3t1.5 3.5t2.5 5q30 9 47.5 12.5t28.5 3.5
q4 0 15.5 -2.5t23.5 -6.5t21.5 -9t9.5 -11q0 -15 -20 -53t-53.5 -90.5l-77 -115.5l-90 -128.5l-93 -129l-86 -117l-69 -93.5l-42.5 -57q-8 0 -13 -3.5t-8 -8t-4.5 -8t-2.5 -3.5q-2 0 -3 3t-6 3q-4 0 -10 -2.5t-17 -10.5q-19 1 -19 8q0 8 9 16t9 10l-1 1q-3 0 -30 -13z" />
    <glyph glyph-name="oslash" unicode="&#xf8;" horiz-adv-x="619" 
d="M276 90q34 -9 64 -9q43 0 71.5 19.5t45 48t23 62t6.5 62.5q0 55 -10 84t-23.5 45t-29 25.5t-25.5 26.5q-20 32 -46 32q-7 -13 -16 -13h-6q-9 0 -16 -7q-25 19 -27 19v-1v-1q1 1 -10 17q-17 -5 -41 -9t-46.5 -10t-38.5 -13.5t-17 -18.5v2q1 0 -2 -9.5t-6.5 -25.5
t-6.5 -37.5t-3 -44.5q0 -39 9 -78t28 -72.5t49.5 -58.5t73.5 -35zM8 419q15 24 37.5 49t52 46t66 35.5t80.5 18.5q-11 15 -16 23.5t-8 17t-4.5 20.5t-3.5 36q-4 4 -5 9.5t-1.5 11.5t-1.5 11t-5 7q-8 -23 -23 -39t-24 -35q-11 3 -16 3v-13q0 -4 -0.5 -14t-3.5 -10q-2 0 -8 2
l-9.5 -15t-11.5 -16.5t-13 -13t-14 -5.5q-9 0 -18.5 25.5t-17 59t-12.5 67t-5 49.5q0 9 1 13q-1 1 -2 1.5t-2 2.5q1 3 1.5 5t0.5 5q9 -2 10 -2.5t4 -2.5q5 24 12.5 37t19.5 31q1 -1 1 -3q5 7 5 14q11 3 20.5 5t19.5 2q19 0 29 -9.5t13 -41.5q8 -3 13 -6q0 3 1 6l2 6
q4 -9 7 -21t10 -18v-5l2 1q1 46 12 93q3 0 6 4t5.5 9t5 9t4.5 4q5 0 6 3.5t5 8.5h4q1 5 5.5 12t10.5 14t13 11.5t13 4.5q8 0 13 -4q2 2 3.5 4t3.5 4q6 0 7.5 -3t2 -6l1 -6t3.5 -3q5 14 13 14q6 0 17 -11v-1q0 -1 -0.5 -1.5t-0.5 -1.5q1 0 6.5 -17t12.5 -41.5l14.5 -52
t12.5 -48.5q6 -25 10 -48t4 -40q0 -21 -7.5 -31t-17 -17l-19.5 -14t-14 -20h-5q0 -1 -1 -2.5t-1 -2.5q-6 3 -8.5 8t-8.5 6v-2q0 -4 3.5 -7.5t8 -7t8 -6.5t3.5 -6v-1q43 -5 86 -24t81.5 -48.5t69.5 -68.5t49 -82q5 5 8 5t7 -10.5t7 -25.5t5.5 -31t2.5 -26q0 -44 -18 -82.5
t-48 -71.5t-68.5 -59t-80.5 -44.5t-83.5 -28t-77.5 -9.5q-57 0 -115 25t-104.5 67t-75.5 97.5t-29 117.5q0 70 47 141z" />
    <glyph glyph-name="Oslash" unicode="&#xd8;" horiz-adv-x="619" 
d="M276 90q34 -9 64 -9q43 0 71.5 19.5t45 48t23 62t6.5 62.5q0 55 -10 84t-23.5 45t-29 25.5t-25.5 26.5q-20 32 -46 32q-7 -13 -16 -13h-6q-9 0 -16 -7q-25 19 -27 19v-1v-1q1 1 -10 17q-17 -5 -41 -9t-46.5 -10t-38.5 -13.5t-17 -18.5v2q1 0 -2 -9.5t-6.5 -25.5
t-6.5 -37.5t-3 -44.5q0 -39 9 -78t28 -72.5t49.5 -58.5t73.5 -35zM8 419q15 24 37.5 49t52 46t66 35.5t80.5 18.5q-11 15 -16 23.5t-8 17t-4.5 20.5t-3.5 36q-4 4 -5 9.5t-1.5 11.5t-1.5 11t-5 7q-8 -23 -23 -39t-24 -35q-11 3 -16 3v-13q0 -4 -0.5 -14t-3.5 -10q-2 0 -8 2
l-9.5 -15t-11.5 -16.5t-13 -13t-14 -5.5q-9 0 -18.5 25.5t-17 59t-12.5 67t-5 49.5q0 9 1 13q-1 1 -2 1.5t-2 2.5q1 3 1.5 5t0.5 5q9 -2 10 -2.5t4 -2.5q5 24 12.5 37t19.5 31q1 -1 1 -3q5 7 5 14q11 3 20.5 5t19.5 2q19 0 29 -9.5t13 -41.5q8 -3 13 -6q0 3 1 6l2 6
q4 -9 7 -21t10 -18v-5l2 1q1 46 12 93q3 0 6 4t5.5 9t5 9t4.5 4q5 0 6 3.5t5 8.5h4q1 5 5.5 12t10.5 14t13 11.5t13 4.5q8 0 13 -4q2 2 3.5 4t3.5 4q6 0 7.5 -3t2 -6l1 -6t3.5 -3q5 14 13 14q6 0 17 -11v-1q0 -1 -0.5 -1.5t-0.5 -1.5q1 0 6.5 -17t12.5 -41.5l14.5 -52
t12.5 -48.5q6 -25 10 -48t4 -40q0 -21 -7.5 -31t-17 -17l-19.5 -14t-14 -20h-5q0 -1 -1 -2.5t-1 -2.5q-6 3 -8.5 8t-8.5 6v-2q0 -4 3.5 -7.5t8 -7t8 -6.5t3.5 -6v-1q43 -5 86 -24t81.5 -48.5t69.5 -68.5t49 -82q5 5 8 5t7 -10.5t7 -25.5t5.5 -31t2.5 -26q0 -44 -18 -82.5
t-48 -71.5t-68.5 -59t-80.5 -44.5t-83.5 -28t-77.5 -9.5q-57 0 -115 25t-104.5 67t-75.5 97.5t-29 117.5q0 70 47 141z" />
    <glyph glyph-name="Ugrave" unicode="&#xd9;" horiz-adv-x="528" 
d="M-28 271h-12q3 72 15.5 138.5t31.5 136.5q4 1 11 6.5t14 13l13 14.5t7 10q7 -1 13 -2t12 -3q2 12 9 17t15.5 6.5t18 1t17.5 0.5q-3 -62 -3 -113q0 -106 11 -180.5t28.5 -121t40 -68t45.5 -21.5q20 0 40.5 15.5t37 42.5t26.5 64.5t10 82.5q0 33 -6.5 68.5t-21.5 73.5
q-5 2 -9.5 5t-8.5 5v38q10 6 18.5 8.5t16.5 21.5q9 -1 13.5 -1h5.5h1q2 0 21 -8v32q5 4 11 5v-13q29 10 51 10q26 0 40.5 -13.5t22.5 -35.5t11 -50t5 -57t5.5 -56t11.5 -48q-8 -2 -10 -4q0 -36 -5 -66.5t-14 -66.5q-5 -2 -8.5 -3t-6.5 -3q-10 -38 -37 -63t-63 -42t-76.5 -27
t-77.5 -17q-17 -4 -40 -4q-42 0 -87 15t-81.5 46t-60 78t-23.5 111v10.5t1 10.5z" />
    <glyph glyph-name="Uacute" unicode="&#xda;" horiz-adv-x="528" 
d="M-28 271h-12q3 72 15.5 138.5t31.5 136.5q4 1 11 6.5t14 13l13 14.5t7 10q7 -1 13 -2t12 -3q2 12 9 17t15.5 6.5t18 1t17.5 0.5q-3 -62 -3 -113q0 -106 11 -180.5t28.5 -121t40 -68t45.5 -21.5q20 0 40.5 15.5t37 42.5t26.5 64.5t10 82.5q0 33 -6.5 68.5t-21.5 73.5
q-5 2 -9.5 5t-8.5 5v38q10 6 18.5 8.5t16.5 21.5q9 -1 13.5 -1h5.5h1q2 0 21 -8v32q5 4 11 5v-13q29 10 51 10q26 0 40.5 -13.5t22.5 -35.5t11 -50t5 -57t5.5 -56t11.5 -48q-8 -2 -10 -4q0 -36 -5 -66.5t-14 -66.5q-5 -2 -8.5 -3t-6.5 -3q-10 -38 -37 -63t-63 -42t-76.5 -27
t-77.5 -17q-17 -4 -40 -4q-42 0 -87 15t-81.5 46t-60 78t-23.5 111v10.5t1 10.5z" />
    <glyph glyph-name="Ucircumflex" unicode="&#xdb;" horiz-adv-x="528" 
d="M-28 271h-12q3 72 15.5 138.5t31.5 136.5q4 1 11 6.5t14 13l13 14.5t7 10q7 -1 13 -2t12 -3q2 12 9 17t15.5 6.5t18 1t17.5 0.5q-3 -62 -3 -113q0 -106 11 -180.5t28.5 -121t40 -68t45.5 -21.5q20 0 40.5 15.5t37 42.5t26.5 64.5t10 82.5q0 33 -6.5 68.5t-21.5 73.5
q-5 2 -9.5 5t-8.5 5v38q10 6 18.5 8.5t16.5 21.5q9 -1 13.5 -1h5.5h1q2 0 21 -8v32q5 4 11 5v-13q29 10 51 10q26 0 40.5 -13.5t22.5 -35.5t11 -50t5 -57t5.5 -56t11.5 -48q-8 -2 -10 -4q0 -36 -5 -66.5t-14 -66.5q-5 -2 -8.5 -3t-6.5 -3q-10 -38 -37 -63t-63 -42t-76.5 -27
t-77.5 -17q-17 -4 -40 -4q-42 0 -87 15t-81.5 46t-60 78t-23.5 111v10.5t1 10.5z" />
    <glyph glyph-name="Udieresis" unicode="&#xdc;" horiz-adv-x="528" 
d="M-28 271h-12q3 72 15.5 138.5t31.5 136.5q4 1 11 6.5t14 13l13 14.5t7 10q7 -1 13 -2t12 -3q2 12 9 17t15.5 6.5t18 1t17.5 0.5q-3 -62 -3 -113q0 -106 11 -180.5t28.5 -121t40 -68t45.5 -21.5q20 0 40.5 15.5t37 42.5t26.5 64.5t10 82.5q0 33 -6.5 68.5t-21.5 73.5
q-5 2 -9.5 5t-8.5 5v38q10 6 18.5 8.5t16.5 21.5q9 -1 13.5 -1h5.5h1q2 0 21 -8v32q5 4 11 5v-13q29 10 51 10q26 0 40.5 -13.5t22.5 -35.5t11 -50t5 -57t5.5 -56t11.5 -48q-8 -2 -10 -4q0 -36 -5 -66.5t-14 -66.5q-5 -2 -8.5 -3t-6.5 -3q-10 -38 -37 -63t-63 -42t-76.5 -27
t-77.5 -17q-17 -4 -40 -4q-42 0 -87 15t-81.5 46t-60 78t-23.5 111v10.5t1 10.5z" />
    <glyph glyph-name="Yacute" unicode="&#xdd;" horiz-adv-x="582" 
d="M47 -224q-33 5 -45 17.5t-12 33.5q0 19 10.5 41.5t25.5 44t32 39.5t31 27q33 23 68 36.5t68 24.5q0 -1 7.5 -4.5l16 -7.5l16 -7.5t7.5 -4.5q-10 -3 -24 -15.5t-44 -28.5v-12q-6 -3 -13 -11.5t-14 -19l-13.5 -19.5t-11.5 -12q3 -10 26 -17t54.5 -12t65 -8t57.5 -4
q47 -4 91 -11t86 -17q6 -2 11.5 -3t10.5 -1q20 0 20 21v5q-5 47 -25.5 104.5t-47.5 116t-56 111.5l-50 91q-20 -27 -51.5 -54t-66.5 -48.5t-71 -35t-64 -13.5q-36 0 -58.5 14.5t-38.5 40.5t-28.5 62l-28.5 79q-24 61 -24 151q0 29 3 62q10 3 19 7.5t20 9.5q0 8 5 11t11 5v11
q23 5 37 9.5t25 4.5q17 0 27 -25t16.5 -62t11.5 -80.5t12.5 -80.5t20.5 -62t35 -25q25 0 39 16.5t20 43t7 60t1 67.5q0 26 -1 50.5t-1 42.5q0 11 0.5 21t2.5 10t3.5 -1t3.5 -1q1 0 8 2.5t14 4.5v10q14 10 23 17.5t28 7.5q4 6 10 12q3 -1 9 -1q11 0 20 3t19 3q9 0 14 -2
q1 -41 20 -91.5t47 -107t60.5 -115l61.5 -114.5l32 -65.5t33 -72.5t28.5 -73.5t20.5 -68.5q2 -10 2 -17q0 -29 -16 -60.5t-40 -59.5t-52.5 -48t-53.5 -24q-16 -3 -32.5 -4t-35.5 -1q-59 0 -126.5 10t-131 23t-116 26t-81.5 18z" />
    <glyph glyph-name="ugrave" unicode="&#xf9;" horiz-adv-x="528" 
d="M-28 271h-12q3 72 15.5 138.5t31.5 136.5q4 1 11 6.5t14 13l13 14.5t7 10q7 -1 13 -2t12 -3q2 12 9 17t15.5 6.5t18 1t17.5 0.5q-3 -62 -3 -113q0 -106 11 -180.5t28.5 -121t40 -68t45.5 -21.5q20 0 40.5 15.5t37 42.5t26.5 64.5t10 82.5q0 33 -6.5 68.5t-21.5 73.5
q-5 2 -9.5 5t-8.5 5v38q10 6 18.5 8.5t16.5 21.5q9 -1 13.5 -1h5.5h1q2 0 21 -8v32q5 4 11 5v-13q29 10 51 10q26 0 40.5 -13.5t22.5 -35.5t11 -50t5 -57t5.5 -56t11.5 -48q-8 -2 -10 -4q0 -36 -5 -66.5t-14 -66.5q-5 -2 -8.5 -3t-6.5 -3q-10 -38 -37 -63t-63 -42t-76.5 -27
t-77.5 -17q-17 -4 -40 -4q-42 0 -87 15t-81.5 46t-60 78t-23.5 111v10.5t1 10.5z" />
    <glyph glyph-name="uacute" unicode="&#xfa;" horiz-adv-x="528" 
d="M-28 271h-12q3 72 15.5 138.5t31.5 136.5q4 1 11 6.5t14 13l13 14.5t7 10q7 -1 13 -2t12 -3q2 12 9 17t15.5 6.5t18 1t17.5 0.5q-3 -62 -3 -113q0 -106 11 -180.5t28.5 -121t40 -68t45.5 -21.5q20 0 40.5 15.5t37 42.5t26.5 64.5t10 82.5q0 33 -6.5 68.5t-21.5 73.5
q-5 2 -9.5 5t-8.5 5v38q10 6 18.5 8.5t16.5 21.5q9 -1 13.5 -1h5.5h1q2 0 21 -8v32q5 4 11 5v-13q29 10 51 10q26 0 40.5 -13.5t22.5 -35.5t11 -50t5 -57t5.5 -56t11.5 -48q-8 -2 -10 -4q0 -36 -5 -66.5t-14 -66.5q-5 -2 -8.5 -3t-6.5 -3q-10 -38 -37 -63t-63 -42t-76.5 -27
t-77.5 -17q-17 -4 -40 -4q-42 0 -87 15t-81.5 46t-60 78t-23.5 111v10.5t1 10.5z" />
    <glyph glyph-name="ucircumflex" unicode="&#xfb;" horiz-adv-x="528" 
d="M-28 271h-12q3 72 15.5 138.5t31.5 136.5q4 1 11 6.5t14 13l13 14.5t7 10q7 -1 13 -2t12 -3q2 12 9 17t15.5 6.5t18 1t17.5 0.5q-3 -62 -3 -113q0 -106 11 -180.5t28.5 -121t40 -68t45.5 -21.5q20 0 40.5 15.5t37 42.5t26.5 64.5t10 82.5q0 33 -6.5 68.5t-21.5 73.5
q-5 2 -9.5 5t-8.5 5v38q10 6 18.5 8.5t16.5 21.5q9 -1 13.5 -1h5.5h1q2 0 21 -8v32q5 4 11 5v-13q29 10 51 10q26 0 40.5 -13.5t22.5 -35.5t11 -50t5 -57t5.5 -56t11.5 -48q-8 -2 -10 -4q0 -36 -5 -66.5t-14 -66.5q-5 -2 -8.5 -3t-6.5 -3q-10 -38 -37 -63t-63 -42t-76.5 -27
t-77.5 -17q-17 -4 -40 -4q-42 0 -87 15t-81.5 46t-60 78t-23.5 111v10.5t1 10.5z" />
    <glyph glyph-name="udieresis" unicode="&#xfc;" horiz-adv-x="528" 
d="M-28 271h-12q3 72 15.5 138.5t31.5 136.5q4 1 11 6.5t14 13l13 14.5t7 10q7 -1 13 -2t12 -3q2 12 9 17t15.5 6.5t18 1t17.5 0.5q-3 -62 -3 -113q0 -106 11 -180.5t28.5 -121t40 -68t45.5 -21.5q20 0 40.5 15.5t37 42.5t26.5 64.5t10 82.5q0 33 -6.5 68.5t-21.5 73.5
q-5 2 -9.5 5t-8.5 5v38q10 6 18.5 8.5t16.5 21.5q9 -1 13.5 -1h5.5h1q2 0 21 -8v32q5 4 11 5v-13q29 10 51 10q26 0 40.5 -13.5t22.5 -35.5t11 -50t5 -57t5.5 -56t11.5 -48q-8 -2 -10 -4q0 -36 -5 -66.5t-14 -66.5q-5 -2 -8.5 -3t-6.5 -3q-10 -38 -37 -63t-63 -42t-76.5 -27
t-77.5 -17q-17 -4 -40 -4q-42 0 -87 15t-81.5 46t-60 78t-23.5 111v10.5t1 10.5z" />
    <glyph glyph-name="yacute" unicode="&#xfd;" horiz-adv-x="582" 
d="M47 -224q-33 5 -45 17.5t-12 33.5q0 19 10.5 41.5t25.5 44t32 39.5t31 27q33 23 68 36.5t68 24.5q0 -1 7.5 -4.5l16 -7.5l16 -7.5t7.5 -4.5q-10 -3 -24 -15.5t-44 -28.5v-12q-6 -3 -13 -11.5t-14 -19l-13.5 -19.5t-11.5 -12q3 -10 26 -17t54.5 -12t65 -8t57.5 -4
q47 -4 91 -11t86 -17q6 -2 11.5 -3t10.5 -1q20 0 20 21v5q-5 47 -25.5 104.5t-47.5 116t-56 111.5l-50 91q-20 -27 -51.5 -54t-66.5 -48.5t-71 -35t-64 -13.5q-36 0 -58.5 14.5t-38.5 40.5t-28.5 62l-28.5 79q-24 61 -24 151q0 29 3 62q10 3 19 7.5t20 9.5q0 8 5 11t11 5v11
q23 5 37 9.5t25 4.5q17 0 27 -25t16.5 -62t11.5 -80.5t12.5 -80.5t20.5 -62t35 -25q25 0 39 16.5t20 43t7 60t1 67.5q0 26 -1 50.5t-1 42.5q0 11 0.5 21t2.5 10t3.5 -1t3.5 -1q1 0 8 2.5t14 4.5v10q14 10 23 17.5t28 7.5q4 6 10 12q3 -1 9 -1q11 0 20 3t19 3q9 0 14 -2
q1 -41 20 -91.5t47 -107t60.5 -115l61.5 -114.5l32 -65.5t33 -72.5t28.5 -73.5t20.5 -68.5q2 -10 2 -17q0 -29 -16 -60.5t-40 -59.5t-52.5 -48t-53.5 -24q-16 -3 -32.5 -4t-35.5 -1q-59 0 -126.5 10t-131 23t-116 26t-81.5 18z" />
    <glyph glyph-name="ydieresis" unicode="&#xff;" horiz-adv-x="582" 
d="M47 -224q-33 5 -45 17.5t-12 33.5q0 19 10.5 41.5t25.5 44t32 39.5t31 27q33 23 68 36.5t68 24.5q0 -1 7.5 -4.5l16 -7.5l16 -7.5t7.5 -4.5q-10 -3 -24 -15.5t-44 -28.5v-12q-6 -3 -13 -11.5t-14 -19l-13.5 -19.5t-11.5 -12q3 -10 26 -17t54.5 -12t65 -8t57.5 -4
q47 -4 91 -11t86 -17q6 -2 11.5 -3t10.5 -1q20 0 20 21v5q-5 47 -25.5 104.5t-47.5 116t-56 111.5l-50 91q-20 -27 -51.5 -54t-66.5 -48.5t-71 -35t-64 -13.5q-36 0 -58.5 14.5t-38.5 40.5t-28.5 62l-28.5 79q-24 61 -24 151q0 29 3 62q10 3 19 7.5t20 9.5q0 8 5 11t11 5v11
q23 5 37 9.5t25 4.5q17 0 27 -25t16.5 -62t11.5 -80.5t12.5 -80.5t20.5 -62t35 -25q25 0 39 16.5t20 43t7 60t1 67.5q0 26 -1 50.5t-1 42.5q0 11 0.5 21t2.5 10t3.5 -1t3.5 -1q1 0 8 2.5t14 4.5v10q14 10 23 17.5t28 7.5q4 6 10 12q3 -1 9 -1q11 0 20 3t19 3q9 0 14 -2
q1 -41 20 -91.5t47 -107t60.5 -115l61.5 -114.5l32 -65.5t33 -72.5t28.5 -73.5t20.5 -68.5q2 -10 2 -17q0 -29 -16 -60.5t-40 -59.5t-52.5 -48t-53.5 -24q-16 -3 -32.5 -4t-35.5 -1q-59 0 -126.5 10t-131 23t-116 26t-81.5 18z" />
    <glyph glyph-name="agrave" unicode="&#xe0;" horiz-adv-x="677" 
d="M179 129q3 -3 8 -3q8 0 17 7t19 11q27 10 58.5 41.5t59 69t46 74t18.5 57.5q0 9 -5 16q0 13 2 22t2 21q-8 5 -18.5 6.5t-23.5 1.5q-28 0 -60.5 -6.5t-65 -18.5t-62.5 -29.5t-53.5 -39t-37.5 -47.5t-14 -54q0 -61 110 -129zM608 491q9 -46 17 -92.5t17.5 -92t22.5 -90.5
t31 -87q1 -2 1 -6q0 -9 -13 -21q-15 -16 -26.5 -26.5t-21 -16.5t-17.5 -8.5t-17 -2.5v-17h-11v-10q-17 4 -24.5 9t-20.5 7v11q-6 15 -9 28.5t-5 25.5l-4 24t-6 24q-3 4 -5.5 13l-5.5 19.5t-7.5 21t-10.5 18.5l1 4l-4 4q-3 0 -15.5 -11.5t-27 -27.5t-26.5 -31.5t-15 -22.5h-6
q-32 -39 -67.5 -70t-73.5 -52.5t-76 -32.5t-74 -11q-63 0 -114 38.5t-76 123.5q-14 47 -14 80q0 29 13 60t39 69q36 52 98.5 93.5t133.5 72t141.5 50t123.5 26.5q2 10 3.5 15.5t18.5 5.5q24 0 32.5 -4.5t10.5 -4.5q1 0 4 5q31 -3 56 -14t47 -19q-2 -8 -2 -12q0 -12 6 -21
q-6 -4 -10 -8q1 -5 1.5 -9t0.5 -7q-4 -4 -14 -20z" />
    <glyph glyph-name="aacute" unicode="&#xe1;" horiz-adv-x="677" 
d="M179 129q3 -3 8 -3q8 0 17 7t19 11q27 10 58.5 41.5t59 69t46 74t18.5 57.5q0 9 -5 16q0 13 2 22t2 21q-8 5 -18.5 6.5t-23.5 1.5q-28 0 -60.5 -6.5t-65 -18.5t-62.5 -29.5t-53.5 -39t-37.5 -47.5t-14 -54q0 -61 110 -129zM608 491q9 -46 17 -92.5t17.5 -92t22.5 -90.5
t31 -87q1 -2 1 -6q0 -9 -13 -21q-15 -16 -26.5 -26.5t-21 -16.5t-17.5 -8.5t-17 -2.5v-17h-11v-10q-17 4 -24.5 9t-20.5 7v11q-6 15 -9 28.5t-5 25.5l-4 24t-6 24q-3 4 -5.5 13l-5.5 19.5t-7.5 21t-10.5 18.5l1 4l-4 4q-3 0 -15.5 -11.5t-27 -27.5t-26.5 -31.5t-15 -22.5h-6
q-32 -39 -67.5 -70t-73.5 -52.5t-76 -32.5t-74 -11q-63 0 -114 38.5t-76 123.5q-14 47 -14 80q0 29 13 60t39 69q36 52 98.5 93.5t133.5 72t141.5 50t123.5 26.5q2 10 3.5 15.5t18.5 5.5q24 0 32.5 -4.5t10.5 -4.5q1 0 4 5q31 -3 56 -14t47 -19q-2 -8 -2 -12q0 -12 6 -21
q-6 -4 -10 -8q1 -5 1.5 -9t0.5 -7q-4 -4 -14 -20z" />
    <glyph glyph-name="acircumflex" unicode="&#xe2;" horiz-adv-x="677" 
d="M179 129q3 -3 8 -3q8 0 17 7t19 11q27 10 58.5 41.5t59 69t46 74t18.5 57.5q0 9 -5 16q0 13 2 22t2 21q-8 5 -18.5 6.5t-23.5 1.5q-28 0 -60.5 -6.5t-65 -18.5t-62.5 -29.5t-53.5 -39t-37.5 -47.5t-14 -54q0 -61 110 -129zM608 491q9 -46 17 -92.5t17.5 -92t22.5 -90.5
t31 -87q1 -2 1 -6q0 -9 -13 -21q-15 -16 -26.5 -26.5t-21 -16.5t-17.5 -8.5t-17 -2.5v-17h-11v-10q-17 4 -24.5 9t-20.5 7v11q-6 15 -9 28.5t-5 25.5l-4 24t-6 24q-3 4 -5.5 13l-5.5 19.5t-7.5 21t-10.5 18.5l1 4l-4 4q-3 0 -15.5 -11.5t-27 -27.5t-26.5 -31.5t-15 -22.5h-6
q-32 -39 -67.5 -70t-73.5 -52.5t-76 -32.5t-74 -11q-63 0 -114 38.5t-76 123.5q-14 47 -14 80q0 29 13 60t39 69q36 52 98.5 93.5t133.5 72t141.5 50t123.5 26.5q2 10 3.5 15.5t18.5 5.5q24 0 32.5 -4.5t10.5 -4.5q1 0 4 5q31 -3 56 -14t47 -19q-2 -8 -2 -12q0 -12 6 -21
q-6 -4 -10 -8q1 -5 1.5 -9t0.5 -7q-4 -4 -14 -20z" />
    <glyph glyph-name="atilde" unicode="&#xe3;" horiz-adv-x="677" 
d="M179 129q3 -3 8 -3q8 0 17 7t19 11q27 10 58.5 41.5t59 69t46 74t18.5 57.5q0 9 -5 16q0 13 2 22t2 21q-8 5 -18.5 6.5t-23.5 1.5q-28 0 -60.5 -6.5t-65 -18.5t-62.5 -29.5t-53.5 -39t-37.5 -47.5t-14 -54q0 -61 110 -129zM608 491q9 -46 17 -92.5t17.5 -92t22.5 -90.5
t31 -87q1 -2 1 -6q0 -9 -13 -21q-15 -16 -26.5 -26.5t-21 -16.5t-17.5 -8.5t-17 -2.5v-17h-11v-10q-17 4 -24.5 9t-20.5 7v11q-6 15 -9 28.5t-5 25.5l-4 24t-6 24q-3 4 -5.5 13l-5.5 19.5t-7.5 21t-10.5 18.5l1 4l-4 4q-3 0 -15.5 -11.5t-27 -27.5t-26.5 -31.5t-15 -22.5h-6
q-32 -39 -67.5 -70t-73.5 -52.5t-76 -32.5t-74 -11q-63 0 -114 38.5t-76 123.5q-14 47 -14 80q0 29 13 60t39 69q36 52 98.5 93.5t133.5 72t141.5 50t123.5 26.5q2 10 3.5 15.5t18.5 5.5q24 0 32.5 -4.5t10.5 -4.5q1 0 4 5q31 -3 56 -14t47 -19q-2 -8 -2 -12q0 -12 6 -21
q-6 -4 -10 -8q1 -5 1.5 -9t0.5 -7q-4 -4 -14 -20z" />
    <glyph glyph-name="Agrave" unicode="&#xc0;" horiz-adv-x="677" 
d="M179 129q3 -3 8 -3q8 0 17 7t19 11q27 10 58.5 41.5t59 69t46 74t18.5 57.5q0 9 -5 16q0 13 2 22t2 21q-8 5 -18.5 6.5t-23.5 1.5q-28 0 -60.5 -6.5t-65 -18.5t-62.5 -29.5t-53.5 -39t-37.5 -47.5t-14 -54q0 -61 110 -129zM608 491q9 -46 17 -92.5t17.5 -92t22.5 -90.5
t31 -87q1 -2 1 -6q0 -9 -13 -21q-15 -16 -26.5 -26.5t-21 -16.5t-17.5 -8.5t-17 -2.5v-17h-11v-10q-17 4 -24.5 9t-20.5 7v11q-6 15 -9 28.5t-5 25.5l-4 24t-6 24q-3 4 -5.5 13l-5.5 19.5t-7.5 21t-10.5 18.5l1 4l-4 4q-3 0 -15.5 -11.5t-27 -27.5t-26.5 -31.5t-15 -22.5h-6
q-32 -39 -67.5 -70t-73.5 -52.5t-76 -32.5t-74 -11q-63 0 -114 38.5t-76 123.5q-14 47 -14 80q0 29 13 60t39 69q36 52 98.5 93.5t133.5 72t141.5 50t123.5 26.5q2 10 3.5 15.5t18.5 5.5q24 0 32.5 -4.5t10.5 -4.5q1 0 4 5q31 -3 56 -14t47 -19q-2 -8 -2 -12q0 -12 6 -21
q-6 -4 -10 -8q1 -5 1.5 -9t0.5 -7q-4 -4 -14 -20z" />
    <glyph glyph-name="Aacute" unicode="&#xc1;" horiz-adv-x="677" 
d="M179 129q3 -3 8 -3q8 0 17 7t19 11q27 10 58.5 41.5t59 69t46 74t18.5 57.5q0 9 -5 16q0 13 2 22t2 21q-8 5 -18.5 6.5t-23.5 1.5q-28 0 -60.5 -6.5t-65 -18.5t-62.5 -29.5t-53.5 -39t-37.5 -47.5t-14 -54q0 -61 110 -129zM608 491q9 -46 17 -92.5t17.5 -92t22.5 -90.5
t31 -87q1 -2 1 -6q0 -9 -13 -21q-15 -16 -26.5 -26.5t-21 -16.5t-17.5 -8.5t-17 -2.5v-17h-11v-10q-17 4 -24.5 9t-20.5 7v11q-6 15 -9 28.5t-5 25.5l-4 24t-6 24q-3 4 -5.5 13l-5.5 19.5t-7.5 21t-10.5 18.5l1 4l-4 4q-3 0 -15.5 -11.5t-27 -27.5t-26.5 -31.5t-15 -22.5h-6
q-32 -39 -67.5 -70t-73.5 -52.5t-76 -32.5t-74 -11q-63 0 -114 38.5t-76 123.5q-14 47 -14 80q0 29 13 60t39 69q36 52 98.5 93.5t133.5 72t141.5 50t123.5 26.5q2 10 3.5 15.5t18.5 5.5q24 0 32.5 -4.5t10.5 -4.5q1 0 4 5q31 -3 56 -14t47 -19q-2 -8 -2 -12q0 -12 6 -21
q-6 -4 -10 -8q1 -5 1.5 -9t0.5 -7q-4 -4 -14 -20z" />
    <glyph glyph-name="Acircumflex" unicode="&#xc2;" horiz-adv-x="677" 
d="M179 129q3 -3 8 -3q8 0 17 7t19 11q27 10 58.5 41.5t59 69t46 74t18.5 57.5q0 9 -5 16q0 13 2 22t2 21q-8 5 -18.5 6.5t-23.5 1.5q-28 0 -60.5 -6.5t-65 -18.5t-62.5 -29.5t-53.5 -39t-37.5 -47.5t-14 -54q0 -61 110 -129zM608 491q9 -46 17 -92.5t17.5 -92t22.5 -90.5
t31 -87q1 -2 1 -6q0 -9 -13 -21q-15 -16 -26.5 -26.5t-21 -16.5t-17.5 -8.5t-17 -2.5v-17h-11v-10q-17 4 -24.5 9t-20.5 7v11q-6 15 -9 28.5t-5 25.5l-4 24t-6 24q-3 4 -5.5 13l-5.5 19.5t-7.5 21t-10.5 18.5l1 4l-4 4q-3 0 -15.5 -11.5t-27 -27.5t-26.5 -31.5t-15 -22.5h-6
q-32 -39 -67.5 -70t-73.5 -52.5t-76 -32.5t-74 -11q-63 0 -114 38.5t-76 123.5q-14 47 -14 80q0 29 13 60t39 69q36 52 98.5 93.5t133.5 72t141.5 50t123.5 26.5q2 10 3.5 15.5t18.5 5.5q24 0 32.5 -4.5t10.5 -4.5q1 0 4 5q31 -3 56 -14t47 -19q-2 -8 -2 -12q0 -12 6 -21
q-6 -4 -10 -8q1 -5 1.5 -9t0.5 -7q-4 -4 -14 -20z" />
    <glyph glyph-name="Atilde" unicode="&#xc3;" horiz-adv-x="677" 
d="M179 129q3 -3 8 -3q8 0 17 7t19 11q27 10 58.5 41.5t59 69t46 74t18.5 57.5q0 9 -5 16q0 13 2 22t2 21q-8 5 -18.5 6.5t-23.5 1.5q-28 0 -60.5 -6.5t-65 -18.5t-62.5 -29.5t-53.5 -39t-37.5 -47.5t-14 -54q0 -61 110 -129zM608 491q9 -46 17 -92.5t17.5 -92t22.5 -90.5
t31 -87q1 -2 1 -6q0 -9 -13 -21q-15 -16 -26.5 -26.5t-21 -16.5t-17.5 -8.5t-17 -2.5v-17h-11v-10q-17 4 -24.5 9t-20.5 7v11q-6 15 -9 28.5t-5 25.5l-4 24t-6 24q-3 4 -5.5 13l-5.5 19.5t-7.5 21t-10.5 18.5l1 4l-4 4q-3 0 -15.5 -11.5t-27 -27.5t-26.5 -31.5t-15 -22.5h-6
q-32 -39 -67.5 -70t-73.5 -52.5t-76 -32.5t-74 -11q-63 0 -114 38.5t-76 123.5q-14 47 -14 80q0 29 13 60t39 69q36 52 98.5 93.5t133.5 72t141.5 50t123.5 26.5q2 10 3.5 15.5t18.5 5.5q24 0 32.5 -4.5t10.5 -4.5q1 0 4 5q31 -3 56 -14t47 -19q-2 -8 -2 -12q0 -12 6 -21
q-6 -4 -10 -8q1 -5 1.5 -9t0.5 -7q-4 -4 -14 -20z" />
    <glyph glyph-name="Ccedilla" unicode="&#xc7;" horiz-adv-x="571" 
d="M291 -32q-75 0 -129 14t-91 36.5t-59 50t-34 55t-16 52t-4 39.5q0 36 13 75t34 75t47 65.5t52 46.5q18 11 41 28t49.5 33t56 27.5t60.5 11.5q19 0 53 -8t68.5 -25.5t62.5 -45.5t36 -67l-4 -2t-5 -3q0 -10 1 -15q-4 4 -6 7q-23 -22 -48 -22q-21 0 -39 14q-2 -5 -4.5 -9.5
t-4.5 -9.5q-70 0 -114 74q-5 8 -12.5 11t-14.5 3q-16 0 -24 -10l-37.5 -46.5t-35.5 -48.5t-26.5 -52.5t-10.5 -57.5q0 -26 9 -54t29 -60h11q14 -29 36.5 -45.5t48.5 -24t55 -9t57 -1.5q25 0 52 5t52 14t46.5 20.5t37.5 23.5q0 3 2 3t3 -0.5t2 -0.5q3 0 5 3q1 -2 1 -5.5
t1 -7.5q5 1 11 1h11q18 0 32.5 -7t21.5 -30q-39 -40 -85.5 -64t-96 -36.5t-100.5 -16.5t-97 -4z" />
    <glyph glyph-name="copyright" unicode="&#xa9;" horiz-adv-x="571" 
d="M291 -32q-75 0 -129 14t-91 36.5t-59 50t-34 55t-16 52t-4 39.5q0 36 13 75t34 75t47 65.5t52 46.5q18 11 41 28t49.5 33t56 27.5t60.5 11.5q19 0 53 -8t68.5 -25.5t62.5 -45.5t36 -67l-4 -2t-5 -3q0 -10 1 -15q-4 4 -6 7q-23 -22 -48 -22q-21 0 -39 14q-2 -5 -4.5 -9.5
t-4.5 -9.5q-70 0 -114 74q-5 8 -12.5 11t-14.5 3q-16 0 -24 -10l-37.5 -46.5t-35.5 -48.5t-26.5 -52.5t-10.5 -57.5q0 -26 9 -54t29 -60h11q14 -29 36.5 -45.5t48.5 -24t55 -9t57 -1.5q25 0 52 5t52 14t46.5 20.5t37.5 23.5q0 3 2 3t3 -0.5t2 -0.5q3 0 5 3q1 -2 1 -5.5
t1 -7.5q5 1 11 1h11q18 0 32.5 -7t21.5 -30q-39 -40 -85.5 -64t-96 -36.5t-100.5 -16.5t-97 -4z" />
    <glyph glyph-name="Euro" unicode="&#x20ac;" horiz-adv-x="582" 
d="M19 32q-5 4 -9 12.5l-8 16.5t-8 14t-7 7q-13 44 -19.5 81.5t-8.5 83.5q-6 1 -8.5 2t-8.5 3q0 39 15.5 84t43 90.5t64.5 87.5t80 74t90.5 51.5t95.5 19.5q32 0 65 -9v-8q52 -8 88 -41t58.5 -79.5t32.5 -100.5t10 -103q0 -50 -14 -86.5t-46 -44.5q0 -4 -13.5 -6.5t-31 -5
t-33.5 -6t-22 -9.5q-6 -4 -21 -4q-29 0 -62.5 7t-67.5 13q-62 10 -105 21q0 -46 18.5 -73t48 -40.5t67.5 -17t77 -3.5q63 0 111.5 12t91.5 21q0 -3 4 -11t4 -11h6q-3 -13 -15.5 -24t-28.5 -20.5t-33 -16.5t-29 -11q-19 -6 -49 -12t-64.5 -10.5t-69.5 -7.5t-63 -3
q-38 0 -66 4t-53 12.5t-50 20zM368 280h12v19q0 62 -10.5 107t-28 74t-39 42.5t-42.5 13.5q-23 0 -43 -10.5t-35 -30t-23.5 -46t-8.5 -59.5q0 -26 8 -60l50 -11.5l56.5 -13l55.5 -13t48 -12.5z" />
    <glyph glyph-name="florin" unicode="&#x192;" horiz-adv-x="396" 
d="M235 -76q-10 4 -17.5 14t-14.5 21l-14 22t-16 18q-10 7 -20 29.5t-20 52t-19.5 61.5l-17 58.5t-13 43.5t-7.5 16q-13 43 -19.5 67t-15 36t-21 15t-37.5 4q-3 0 -7.5 5.5t-9 13l-9 14.5t-7.5 10q1 4 9 7t19.5 6.5t23.5 9t23 15.5q-1 8 -1 15v14q0 80 28.5 141t71.5 101.5
t94.5 61t97.5 20.5q26 -2 51 -12t45 -29.5t32 -47.5t12 -65v-13.5t-1.5 -13.5t-6 -10.5t-13.5 -4.5q-5 0 -11 1t-12 1q0 -1 -3 -1q-2 0 -8 1l-12.5 2l-12.5 2t-8 1q-3 0 -3 -1h-1q-2 0 -3 -4t-3 -4l-1 1q-5 -4 -12 -7.5t-12 -3.5q-11 0 -14 14t-3 25q0 6 1.5 12t1.5 12
t-2.5 15t-7.5 18t-11.5 15.5t-13.5 6.5q-11 0 -24 -16.5t-24 -38t-19.5 -41.5t-9.5 -26q-9 -32 -9 -76q0 -24 3 -51q57 2 106.5 3.5t108.5 1.5q4 0 4 -3q0 -2 -0.5 -4t-0.5 -4q0 -4 3 -10t3 -10q0 -5 -5 -5q-2 0 -3 2t-4 2t-6 -2t-3 -4q3 -1 6 -3q2 -2 4.5 -3t2.5 -2
q0 -14 -1.5 -26.5t-8.5 -12.5q-14 0 -28.5 1t-26.5 1q-25 0 -42.5 -1.5t-32 -3.5t-27.5 -3.5t-28 -2.5q4 -21 13 -56t21 -77.5t26.5 -88.5l29 -88t28 -76t24.5 -52v-3q0 -3 -1 -3q-2 0 -5 3.5t-6 3.5q-4 0 -10 -6q-8 6 -21 10q-1 -4 -1 -6.5t-1 -4.5h-7q-14 0 -30.5 -10.5
t-36.5 -10.5q-7 0 -10 1z" />
    <glyph glyph-name="quotesinglbase" unicode="&#x201a;" horiz-adv-x="346" 
d="M165 4q-23 4 -29 11q0 26 -1.5 57t-1.5 60q0 15 0.5 30.5t8.5 20.5q13 4 28.5 12.5t40.5 8.5q3 -4 5.5 -9.5t8.5 -7.5q-1 5 -2.5 10t-1.5 11q16 5 30.5 10t29.5 5q9 0 14.5 -20t8.5 -46.5t4 -54t1 -42.5v-29q-1 0 -3.5 -1.5t-3.5 -3.5q4 -15 4 -29q0 -33 -29 -44
q-20 -8 -33.5 -15t-20.5 -12q-3 -3 -12.5 -10.5t-10.5 -7.5h-1q-1 0 -3 -6.5l-4.5 -14t-4 -14l-1.5 -6.5q0 3 0.5 5t0.5 4q0 7 -4 7q-3 0 -8.5 -3t-9.5 -3q-5 0 -9 3.5t-14 14.5q-17 -24 -29 -24q-8 0 -13 8.5t-5 10.5t5 8t12 13.5l15 15.5t13 14q25 28 25 63z" />
    <glyph glyph-name="dagger" unicode="&#x2020;" 
d="M472 122q-5 4 -9 6v3h-11l-10.5 16.5t-8.5 16.5h-12q-2 8 -3.5 13t-8.5 11q-20 0 -32 8t-20 17l-14.5 17t-13.5 8q-8 0 -18.5 -11.5t-27.5 -40.5q-20 -20 -46 -26.5t-53 -7.5q-1 -1 -1 -2t-1 -2h-7v12q-16 -4 -29 -4q-16 0 -16 9q0 11 10 28t23.5 36.5t26 40t18.5 40.5
q-11 2 -41 8.5t-62 16t-57 20.5t-25 22q9 5 16 10.5t17 8.5v5q5 3 12 5.5t11 4.5v7h14q1 6 10.5 10.5t21.5 6.5t24 3t18 1q20 0 43.5 -1.5t52.5 -1.5q27 67 39 135q8 3 8.5 7t1.5 11q7 2 14 4.5t9 9.5h11q7 10 18.5 15t19.5 13q14 -3 36 -3.5t37 -2.5q14 -37 25 -74.5
t19 -79.5q43 0 90 5.5t80 10.5q5 0 8 1t6 1t9 -5t13 -14t12 -22.5t7 -29.5q0 -6 -1 -7.5t-8 -1.5q-18 -5 -46 -8.5t-56.5 -6.5t-53.5 -5t-36 -3v-11q0 -33 13.5 -62t30 -53.5l30.5 -45t14 -36.5q0 -17 -17 -27t-63 -19q-11 4 -17 11t-15 12v-10q-2 -2 -4.5 -2t-2.5 -4h-10
v-9q-2 -2 -3 -2t-2 -1t-2 -1v-4h-5z" />
    <glyph glyph-name="daggerdbl" unicode="&#x2021;" 
d="M472 122q-5 4 -9 6v3h-11l-10.5 16.5t-8.5 16.5h-12q-2 8 -3.5 13t-8.5 11q-20 0 -32 8t-20 17l-14.5 17t-13.5 8q-8 0 -18.5 -11.5t-27.5 -40.5q-20 -20 -46 -26.5t-53 -7.5q-1 -1 -1 -2t-1 -2h-7v12q-16 -4 -29 -4q-16 0 -16 9q0 11 10 28t23.5 36.5t26 40t18.5 40.5
q-11 2 -41 8.5t-62 16t-57 20.5t-25 22q9 5 16 10.5t17 8.5v5q5 3 12 5.5t11 4.5v7h14q1 6 10.5 10.5t21.5 6.5t24 3t18 1q20 0 43.5 -1.5t52.5 -1.5q27 67 39 135q8 3 8.5 7t1.5 11q7 2 14 4.5t9 9.5h11q7 10 18.5 15t19.5 13q14 -3 36 -3.5t37 -2.5q14 -37 25 -74.5
t19 -79.5q43 0 90 5.5t80 10.5q5 0 8 1t6 1t9 -5t13 -14t12 -22.5t7 -29.5q0 -6 -1 -7.5t-8 -1.5q-18 -5 -46 -8.5t-56.5 -6.5t-53.5 -5t-36 -3v-11q0 -33 13.5 -62t30 -53.5l30.5 -45t14 -36.5q0 -17 -17 -27t-63 -19q-11 4 -17 11t-15 12v-10q-2 -2 -4.5 -2t-2.5 -4h-10
v-9q-2 -2 -3 -2t-2 -1t-2 -1v-4h-5z" />
    <glyph glyph-name="parenleft" unicode="(" 
d="M472 122q-5 4 -9 6v3h-11l-10.5 16.5t-8.5 16.5h-12q-2 8 -3.5 13t-8.5 11q-20 0 -32 8t-20 17l-14.5 17t-13.5 8q-8 0 -18.5 -11.5t-27.5 -40.5q-20 -20 -46 -26.5t-53 -7.5q-1 -1 -1 -2t-1 -2h-7v12q-16 -4 -29 -4q-16 0 -16 9q0 11 10 28t23.5 36.5t26 40t18.5 40.5
q-11 2 -41 8.5t-62 16t-57 20.5t-25 22q9 5 16 10.5t17 8.5v5q5 3 12 5.5t11 4.5v7h14q1 6 10.5 10.5t21.5 6.5t24 3t18 1q20 0 43.5 -1.5t52.5 -1.5q27 67 39 135q8 3 8.5 7t1.5 11q7 2 14 4.5t9 9.5h11q7 10 18.5 15t19.5 13q14 -3 36 -3.5t37 -2.5q14 -37 25 -74.5
t19 -79.5q43 0 90 5.5t80 10.5q5 0 8 1t6 1t9 -5t13 -14t12 -22.5t7 -29.5q0 -6 -1 -7.5t-8 -1.5q-18 -5 -46 -8.5t-56.5 -6.5t-53.5 -5t-36 -3v-11q0 -33 13.5 -62t30 -53.5l30.5 -45t14 -36.5q0 -17 -17 -27t-63 -19q-11 4 -17 11t-15 12v-10q-2 -2 -4.5 -2t-2.5 -4h-10
v-9q-2 -2 -3 -2t-2 -1t-2 -1v-4h-5z" />
    <glyph glyph-name="parenright" unicode=")" 
d="M472 122q-5 4 -9 6v3h-11l-10.5 16.5t-8.5 16.5h-12q-2 8 -3.5 13t-8.5 11q-20 0 -32 8t-20 17l-14.5 17t-13.5 8q-8 0 -18.5 -11.5t-27.5 -40.5q-20 -20 -46 -26.5t-53 -7.5q-1 -1 -1 -2t-1 -2h-7v12q-16 -4 -29 -4q-16 0 -16 9q0 11 10 28t23.5 36.5t26 40t18.5 40.5
q-11 2 -41 8.5t-62 16t-57 20.5t-25 22q9 5 16 10.5t17 8.5v5q5 3 12 5.5t11 4.5v7h14q1 6 10.5 10.5t21.5 6.5t24 3t18 1q20 0 43.5 -1.5t52.5 -1.5q27 67 39 135q8 3 8.5 7t1.5 11q7 2 14 4.5t9 9.5h11q7 10 18.5 15t19.5 13q14 -3 36 -3.5t37 -2.5q14 -37 25 -74.5
t19 -79.5q43 0 90 5.5t80 10.5q5 0 8 1t6 1t9 -5t13 -14t12 -22.5t7 -29.5q0 -6 -1 -7.5t-8 -1.5q-18 -5 -46 -8.5t-56.5 -6.5t-53.5 -5t-36 -3v-11q0 -33 13.5 -62t30 -53.5l30.5 -45t14 -36.5q0 -17 -17 -27t-63 -19q-11 4 -17 11t-15 12v-10q-2 -2 -4.5 -2t-2.5 -4h-10
v-9q-2 -2 -3 -2t-2 -1t-2 -1v-4h-5z" />
    <glyph glyph-name="numbersign" unicode="#" 
d="M472 122q-5 4 -9 6v3h-11l-10.5 16.5t-8.5 16.5h-12q-2 8 -3.5 13t-8.5 11q-20 0 -32 8t-20 17l-14.5 17t-13.5 8q-8 0 -18.5 -11.5t-27.5 -40.5q-20 -20 -46 -26.5t-53 -7.5q-1 -1 -1 -2t-1 -2h-7v12q-16 -4 -29 -4q-16 0 -16 9q0 11 10 28t23.5 36.5t26 40t18.5 40.5
q-11 2 -41 8.5t-62 16t-57 20.5t-25 22q9 5 16 10.5t17 8.5v5q5 3 12 5.5t11 4.5v7h14q1 6 10.5 10.5t21.5 6.5t24 3t18 1q20 0 43.5 -1.5t52.5 -1.5q27 67 39 135q8 3 8.5 7t1.5 11q7 2 14 4.5t9 9.5h11q7 10 18.5 15t19.5 13q14 -3 36 -3.5t37 -2.5q14 -37 25 -74.5
t19 -79.5q43 0 90 5.5t80 10.5q5 0 8 1t6 1t9 -5t13 -14t12 -22.5t7 -29.5q0 -6 -1 -7.5t-8 -1.5q-18 -5 -46 -8.5t-56.5 -6.5t-53.5 -5t-36 -3v-11q0 -33 13.5 -62t30 -53.5l30.5 -45t14 -36.5q0 -17 -17 -27t-63 -19q-11 4 -17 11t-15 12v-10q-2 -2 -4.5 -2t-2.5 -4h-10
v-9q-2 -2 -3 -2t-2 -1t-2 -1v-4h-5z" />
    <glyph glyph-name="uni0025" unicode="%" 
d="M472 122q-5 4 -9 6v3h-11l-10.5 16.5t-8.5 16.5h-12q-2 8 -3.5 13t-8.5 11q-20 0 -32 8t-20 17l-14.5 17t-13.5 8q-8 0 -18.5 -11.5t-27.5 -40.5q-20 -20 -46 -26.5t-53 -7.5q-1 -1 -1 -2t-1 -2h-7v12q-16 -4 -29 -4q-16 0 -16 9q0 11 10 28t23.5 36.5t26 40t18.5 40.5
q-11 2 -41 8.5t-62 16t-57 20.5t-25 22q9 5 16 10.5t17 8.5v5q5 3 12 5.5t11 4.5v7h14q1 6 10.5 10.5t21.5 6.5t24 3t18 1q20 0 43.5 -1.5t52.5 -1.5q27 67 39 135q8 3 8.5 7t1.5 11q7 2 14 4.5t9 9.5h11q7 10 18.5 15t19.5 13q14 -3 36 -3.5t37 -2.5q14 -37 25 -74.5
t19 -79.5q43 0 90 5.5t80 10.5q5 0 8 1t6 1t9 -5t13 -14t12 -22.5t7 -29.5q0 -6 -1 -7.5t-8 -1.5q-18 -5 -46 -8.5t-56.5 -6.5t-53.5 -5t-36 -3v-11q0 -33 13.5 -62t30 -53.5l30.5 -45t14 -36.5q0 -17 -17 -27t-63 -19q-11 4 -17 11t-15 12v-10q-2 -2 -4.5 -2t-2.5 -4h-10
v-9q-2 -2 -3 -2t-2 -1t-2 -1v-4h-5z" />
    <glyph glyph-name="less" unicode="&#x3c;" 
d="M472 122q-5 4 -9 6v3h-11l-10.5 16.5t-8.5 16.5h-12q-2 8 -3.5 13t-8.5 11q-20 0 -32 8t-20 17l-14.5 17t-13.5 8q-8 0 -18.5 -11.5t-27.5 -40.5q-20 -20 -46 -26.5t-53 -7.5q-1 -1 -1 -2t-1 -2h-7v12q-16 -4 -29 -4q-16 0 -16 9q0 11 10 28t23.5 36.5t26 40t18.5 40.5
q-11 2 -41 8.5t-62 16t-57 20.5t-25 22q9 5 16 10.5t17 8.5v5q5 3 12 5.5t11 4.5v7h14q1 6 10.5 10.5t21.5 6.5t24 3t18 1q20 0 43.5 -1.5t52.5 -1.5q27 67 39 135q8 3 8.5 7t1.5 11q7 2 14 4.5t9 9.5h11q7 10 18.5 15t19.5 13q14 -3 36 -3.5t37 -2.5q14 -37 25 -74.5
t19 -79.5q43 0 90 5.5t80 10.5q5 0 8 1t6 1t9 -5t13 -14t12 -22.5t7 -29.5q0 -6 -1 -7.5t-8 -1.5q-18 -5 -46 -8.5t-56.5 -6.5t-53.5 -5t-36 -3v-11q0 -33 13.5 -62t30 -53.5l30.5 -45t14 -36.5q0 -17 -17 -27t-63 -19q-11 4 -17 11t-15 12v-10q-2 -2 -4.5 -2t-2.5 -4h-10
v-9q-2 -2 -3 -2t-2 -1t-2 -1v-4h-5z" />
    <glyph glyph-name="equal" unicode="=" 
d="M472 122q-5 4 -9 6v3h-11l-10.5 16.5t-8.5 16.5h-12q-2 8 -3.5 13t-8.5 11q-20 0 -32 8t-20 17l-14.5 17t-13.5 8q-8 0 -18.5 -11.5t-27.5 -40.5q-20 -20 -46 -26.5t-53 -7.5q-1 -1 -1 -2t-1 -2h-7v12q-16 -4 -29 -4q-16 0 -16 9q0 11 10 28t23.5 36.5t26 40t18.5 40.5
q-11 2 -41 8.5t-62 16t-57 20.5t-25 22q9 5 16 10.5t17 8.5v5q5 3 12 5.5t11 4.5v7h14q1 6 10.5 10.5t21.5 6.5t24 3t18 1q20 0 43.5 -1.5t52.5 -1.5q27 67 39 135q8 3 8.5 7t1.5 11q7 2 14 4.5t9 9.5h11q7 10 18.5 15t19.5 13q14 -3 36 -3.5t37 -2.5q14 -37 25 -74.5
t19 -79.5q43 0 90 5.5t80 10.5q5 0 8 1t6 1t9 -5t13 -14t12 -22.5t7 -29.5q0 -6 -1 -7.5t-8 -1.5q-18 -5 -46 -8.5t-56.5 -6.5t-53.5 -5t-36 -3v-11q0 -33 13.5 -62t30 -53.5l30.5 -45t14 -36.5q0 -17 -17 -27t-63 -19q-11 4 -17 11t-15 12v-10q-2 -2 -4.5 -2t-2.5 -4h-10
v-9q-2 -2 -3 -2t-2 -1t-2 -1v-4h-5z" />
    <glyph glyph-name="greater" unicode="&#x3e;" 
d="M472 122q-5 4 -9 6v3h-11l-10.5 16.5t-8.5 16.5h-12q-2 8 -3.5 13t-8.5 11q-20 0 -32 8t-20 17l-14.5 17t-13.5 8q-8 0 -18.5 -11.5t-27.5 -40.5q-20 -20 -46 -26.5t-53 -7.5q-1 -1 -1 -2t-1 -2h-7v12q-16 -4 -29 -4q-16 0 -16 9q0 11 10 28t23.5 36.5t26 40t18.5 40.5
q-11 2 -41 8.5t-62 16t-57 20.5t-25 22q9 5 16 10.5t17 8.5v5q5 3 12 5.5t11 4.5v7h14q1 6 10.5 10.5t21.5 6.5t24 3t18 1q20 0 43.5 -1.5t52.5 -1.5q27 67 39 135q8 3 8.5 7t1.5 11q7 2 14 4.5t9 9.5h11q7 10 18.5 15t19.5 13q14 -3 36 -3.5t37 -2.5q14 -37 25 -74.5
t19 -79.5q43 0 90 5.5t80 10.5q5 0 8 1t6 1t9 -5t13 -14t12 -22.5t7 -29.5q0 -6 -1 -7.5t-8 -1.5q-18 -5 -46 -8.5t-56.5 -6.5t-53.5 -5t-36 -3v-11q0 -33 13.5 -62t30 -53.5l30.5 -45t14 -36.5q0 -17 -17 -27t-63 -19q-11 4 -17 11t-15 12v-10q-2 -2 -4.5 -2t-2.5 -4h-10
v-9q-2 -2 -3 -2t-2 -1t-2 -1v-4h-5z" />
    <glyph glyph-name="bracketleft" unicode="[" 
d="M472 122q-5 4 -9 6v3h-11l-10.5 16.5t-8.5 16.5h-12q-2 8 -3.5 13t-8.5 11q-20 0 -32 8t-20 17l-14.5 17t-13.5 8q-8 0 -18.5 -11.5t-27.5 -40.5q-20 -20 -46 -26.5t-53 -7.5q-1 -1 -1 -2t-1 -2h-7v12q-16 -4 -29 -4q-16 0 -16 9q0 11 10 28t23.5 36.5t26 40t18.5 40.5
q-11 2 -41 8.5t-62 16t-57 20.5t-25 22q9 5 16 10.5t17 8.5v5q5 3 12 5.5t11 4.5v7h14q1 6 10.5 10.5t21.5 6.5t24 3t18 1q20 0 43.5 -1.5t52.5 -1.5q27 67 39 135q8 3 8.5 7t1.5 11q7 2 14 4.5t9 9.5h11q7 10 18.5 15t19.5 13q14 -3 36 -3.5t37 -2.5q14 -37 25 -74.5
t19 -79.5q43 0 90 5.5t80 10.5q5 0 8 1t6 1t9 -5t13 -14t12 -22.5t7 -29.5q0 -6 -1 -7.5t-8 -1.5q-18 -5 -46 -8.5t-56.5 -6.5t-53.5 -5t-36 -3v-11q0 -33 13.5 -62t30 -53.5l30.5 -45t14 -36.5q0 -17 -17 -27t-63 -19q-11 4 -17 11t-15 12v-10q-2 -2 -4.5 -2t-2.5 -4h-10
v-9q-2 -2 -3 -2t-2 -1t-2 -1v-4h-5z" />
    <glyph glyph-name="bracketright" unicode="]" 
d="M472 122q-5 4 -9 6v3h-11l-10.5 16.5t-8.5 16.5h-12q-2 8 -3.5 13t-8.5 11q-20 0 -32 8t-20 17l-14.5 17t-13.5 8q-8 0 -18.5 -11.5t-27.5 -40.5q-20 -20 -46 -26.5t-53 -7.5q-1 -1 -1 -2t-1 -2h-7v12q-16 -4 -29 -4q-16 0 -16 9q0 11 10 28t23.5 36.5t26 40t18.5 40.5
q-11 2 -41 8.5t-62 16t-57 20.5t-25 22q9 5 16 10.5t17 8.5v5q5 3 12 5.5t11 4.5v7h14q1 6 10.5 10.5t21.5 6.5t24 3t18 1q20 0 43.5 -1.5t52.5 -1.5q27 67 39 135q8 3 8.5 7t1.5 11q7 2 14 4.5t9 9.5h11q7 10 18.5 15t19.5 13q14 -3 36 -3.5t37 -2.5q14 -37 25 -74.5
t19 -79.5q43 0 90 5.5t80 10.5q5 0 8 1t6 1t9 -5t13 -14t12 -22.5t7 -29.5q0 -6 -1 -7.5t-8 -1.5q-18 -5 -46 -8.5t-56.5 -6.5t-53.5 -5t-36 -3v-11q0 -33 13.5 -62t30 -53.5l30.5 -45t14 -36.5q0 -17 -17 -27t-63 -19q-11 4 -17 11t-15 12v-10q-2 -2 -4.5 -2t-2.5 -4h-10
v-9q-2 -2 -3 -2t-2 -1t-2 -1v-4h-5z" />
    <glyph glyph-name="backslash" unicode="\" horiz-adv-x="511" 
d="M-6 -23q-12 0 -16.5 -2t-6.5 -5t-3.5 -5t-6.5 -2q-6 0 -13 3q2 7 3.5 10.5t1.5 5.5q0 5 -9 11q2 3 5 10t9 6h-4q-4 0 -8.5 1.5t-4.5 7.5q0 7 9 19q41 45 90.5 110.5l101 139.5l102 150.5l93 142.5l74.5 116l47 72q6 1 9 2.5t4 3t1.5 3.5t2.5 5q30 9 47.5 12.5t28.5 3.5
q4 0 15.5 -2.5t23.5 -6.5t21.5 -9t9.5 -11q0 -15 -20 -53t-53.5 -90.5l-77 -115.5l-90 -128.5l-93 -129l-86 -117l-69 -93.5l-42.5 -57q-8 0 -13 -3.5t-8 -8t-4.5 -8t-2.5 -3.5q-2 0 -3 3t-6 3q-4 0 -10 -2.5t-17 -10.5q-19 1 -19 8q0 8 9 16t9 10l-1 1q-3 0 -30 -13z" />
    <glyph glyph-name="trademark" unicode="&#x2122;" 
d="M472 122q-5 4 -9 6v3h-11l-10.5 16.5t-8.5 16.5h-12q-2 8 -3.5 13t-8.5 11q-20 0 -32 8t-20 17l-14.5 17t-13.5 8q-8 0 -18.5 -11.5t-27.5 -40.5q-20 -20 -46 -26.5t-53 -7.5q-1 -1 -1 -2t-1 -2h-7v12q-16 -4 -29 -4q-16 0 -16 9q0 11 10 28t23.5 36.5t26 40t18.5 40.5
q-11 2 -41 8.5t-62 16t-57 20.5t-25 22q9 5 16 10.5t17 8.5v5q5 3 12 5.5t11 4.5v7h14q1 6 10.5 10.5t21.5 6.5t24 3t18 1q20 0 43.5 -1.5t52.5 -1.5q27 67 39 135q8 3 8.5 7t1.5 11q7 2 14 4.5t9 9.5h11q7 10 18.5 15t19.5 13q14 -3 36 -3.5t37 -2.5q14 -37 25 -74.5
t19 -79.5q43 0 90 5.5t80 10.5q5 0 8 1t6 1t9 -5t13 -14t12 -22.5t7 -29.5q0 -6 -1 -7.5t-8 -1.5q-18 -5 -46 -8.5t-56.5 -6.5t-53.5 -5t-36 -3v-11q0 -33 13.5 -62t30 -53.5l30.5 -45t14 -36.5q0 -17 -17 -27t-63 -19q-11 4 -17 11t-15 12v-10q-2 -2 -4.5 -2t-2.5 -4h-10
v-9q-2 -2 -3 -2t-2 -1t-2 -1v-4h-5z" />
    <glyph glyph-name="registered" unicode="&#xae;" 
d="M472 122q-5 4 -9 6v3h-11l-10.5 16.5t-8.5 16.5h-12q-2 8 -3.5 13t-8.5 11q-20 0 -32 8t-20 17l-14.5 17t-13.5 8q-8 0 -18.5 -11.5t-27.5 -40.5q-20 -20 -46 -26.5t-53 -7.5q-1 -1 -1 -2t-1 -2h-7v12q-16 -4 -29 -4q-16 0 -16 9q0 11 10 28t23.5 36.5t26 40t18.5 40.5
q-11 2 -41 8.5t-62 16t-57 20.5t-25 22q9 5 16 10.5t17 8.5v5q5 3 12 5.5t11 4.5v7h14q1 6 10.5 10.5t21.5 6.5t24 3t18 1q20 0 43.5 -1.5t52.5 -1.5q27 67 39 135q8 3 8.5 7t1.5 11q7 2 14 4.5t9 9.5h11q7 10 18.5 15t19.5 13q14 -3 36 -3.5t37 -2.5q14 -37 25 -74.5
t19 -79.5q43 0 90 5.5t80 10.5q5 0 8 1t6 1t9 -5t13 -14t12 -22.5t7 -29.5q0 -6 -1 -7.5t-8 -1.5q-18 -5 -46 -8.5t-56.5 -6.5t-53.5 -5t-36 -3v-11q0 -33 13.5 -62t30 -53.5l30.5 -45t14 -36.5q0 -17 -17 -27t-63 -19q-11 4 -17 11t-15 12v-10q-2 -2 -4.5 -2t-2.5 -4h-10
v-9q-2 -2 -3 -2t-2 -1t-2 -1v-4h-5z" />
    <glyph glyph-name="braceleft" unicode="{" 
d="M472 122q-5 4 -9 6v3h-11l-10.5 16.5t-8.5 16.5h-12q-2 8 -3.5 13t-8.5 11q-20 0 -32 8t-20 17l-14.5 17t-13.5 8q-8 0 -18.5 -11.5t-27.5 -40.5q-20 -20 -46 -26.5t-53 -7.5q-1 -1 -1 -2t-1 -2h-7v12q-16 -4 -29 -4q-16 0 -16 9q0 11 10 28t23.5 36.5t26 40t18.5 40.5
q-11 2 -41 8.5t-62 16t-57 20.5t-25 22q9 5 16 10.5t17 8.5v5q5 3 12 5.5t11 4.5v7h14q1 6 10.5 10.5t21.5 6.5t24 3t18 1q20 0 43.5 -1.5t52.5 -1.5q27 67 39 135q8 3 8.5 7t1.5 11q7 2 14 4.5t9 9.5h11q7 10 18.5 15t19.5 13q14 -3 36 -3.5t37 -2.5q14 -37 25 -74.5
t19 -79.5q43 0 90 5.5t80 10.5q5 0 8 1t6 1t9 -5t13 -14t12 -22.5t7 -29.5q0 -6 -1 -7.5t-8 -1.5q-18 -5 -46 -8.5t-56.5 -6.5t-53.5 -5t-36 -3v-11q0 -33 13.5 -62t30 -53.5l30.5 -45t14 -36.5q0 -17 -17 -27t-63 -19q-11 4 -17 11t-15 12v-10q-2 -2 -4.5 -2t-2.5 -4h-10
v-9q-2 -2 -3 -2t-2 -1t-2 -1v-4h-5z" />
    <glyph glyph-name="bar" unicode="|" 
d="M472 122q-5 4 -9 6v3h-11l-10.5 16.5t-8.5 16.5h-12q-2 8 -3.5 13t-8.5 11q-20 0 -32 8t-20 17l-14.5 17t-13.5 8q-8 0 -18.5 -11.5t-27.5 -40.5q-20 -20 -46 -26.5t-53 -7.5q-1 -1 -1 -2t-1 -2h-7v12q-16 -4 -29 -4q-16 0 -16 9q0 11 10 28t23.5 36.5t26 40t18.5 40.5
q-11 2 -41 8.5t-62 16t-57 20.5t-25 22q9 5 16 10.5t17 8.5v5q5 3 12 5.5t11 4.5v7h14q1 6 10.5 10.5t21.5 6.5t24 3t18 1q20 0 43.5 -1.5t52.5 -1.5q27 67 39 135q8 3 8.5 7t1.5 11q7 2 14 4.5t9 9.5h11q7 10 18.5 15t19.5 13q14 -3 36 -3.5t37 -2.5q14 -37 25 -74.5
t19 -79.5q43 0 90 5.5t80 10.5q5 0 8 1t6 1t9 -5t13 -14t12 -22.5t7 -29.5q0 -6 -1 -7.5t-8 -1.5q-18 -5 -46 -8.5t-56.5 -6.5t-53.5 -5t-36 -3v-11q0 -33 13.5 -62t30 -53.5l30.5 -45t14 -36.5q0 -17 -17 -27t-63 -19q-11 4 -17 11t-15 12v-10q-2 -2 -4.5 -2t-2.5 -4h-10
v-9q-2 -2 -3 -2t-2 -1t-2 -1v-4h-5z" />
    <glyph glyph-name="braceright" unicode="}" 
d="M472 122q-5 4 -9 6v3h-11l-10.5 16.5t-8.5 16.5h-12q-2 8 -3.5 13t-8.5 11q-20 0 -32 8t-20 17l-14.5 17t-13.5 8q-8 0 -18.5 -11.5t-27.5 -40.5q-20 -20 -46 -26.5t-53 -7.5q-1 -1 -1 -2t-1 -2h-7v12q-16 -4 -29 -4q-16 0 -16 9q0 11 10 28t23.5 36.5t26 40t18.5 40.5
q-11 2 -41 8.5t-62 16t-57 20.5t-25 22q9 5 16 10.5t17 8.5v5q5 3 12 5.5t11 4.5v7h14q1 6 10.5 10.5t21.5 6.5t24 3t18 1q20 0 43.5 -1.5t52.5 -1.5q27 67 39 135q8 3 8.5 7t1.5 11q7 2 14 4.5t9 9.5h11q7 10 18.5 15t19.5 13q14 -3 36 -3.5t37 -2.5q14 -37 25 -74.5
t19 -79.5q43 0 90 5.5t80 10.5q5 0 8 1t6 1t9 -5t13 -14t12 -22.5t7 -29.5q0 -6 -1 -7.5t-8 -1.5q-18 -5 -46 -8.5t-56.5 -6.5t-53.5 -5t-36 -3v-11q0 -33 13.5 -62t30 -53.5l30.5 -45t14 -36.5q0 -17 -17 -27t-63 -19q-11 4 -17 11t-15 12v-10q-2 -2 -4.5 -2t-2.5 -4h-10
v-9q-2 -2 -3 -2t-2 -1t-2 -1v-4h-5z" />
    <glyph glyph-name="asciitilde" unicode="~" 
d="M472 122q-5 4 -9 6v3h-11l-10.5 16.5t-8.5 16.5h-12q-2 8 -3.5 13t-8.5 11q-20 0 -32 8t-20 17l-14.5 17t-13.5 8q-8 0 -18.5 -11.5t-27.5 -40.5q-20 -20 -46 -26.5t-53 -7.5q-1 -1 -1 -2t-1 -2h-7v12q-16 -4 -29 -4q-16 0 -16 9q0 11 10 28t23.5 36.5t26 40t18.5 40.5
q-11 2 -41 8.5t-62 16t-57 20.5t-25 22q9 5 16 10.5t17 8.5v5q5 3 12 5.5t11 4.5v7h14q1 6 10.5 10.5t21.5 6.5t24 3t18 1q20 0 43.5 -1.5t52.5 -1.5q27 67 39 135q8 3 8.5 7t1.5 11q7 2 14 4.5t9 9.5h11q7 10 18.5 15t19.5 13q14 -3 36 -3.5t37 -2.5q14 -37 25 -74.5
t19 -79.5q43 0 90 5.5t80 10.5q5 0 8 1t6 1t9 -5t13 -14t12 -22.5t7 -29.5q0 -6 -1 -7.5t-8 -1.5q-18 -5 -46 -8.5t-56.5 -6.5t-53.5 -5t-36 -3v-11q0 -33 13.5 -62t30 -53.5l30.5 -45t14 -36.5q0 -17 -17 -27t-63 -19q-11 4 -17 11t-15 12v-10q-2 -2 -4.5 -2t-2.5 -4h-10
v-9q-2 -2 -3 -2t-2 -1t-2 -1v-4h-5z" />
    <glyph glyph-name="quoteleft" unicode="&#x2018;" 
d="M472 122q-5 4 -9 6v3h-11l-10.5 16.5t-8.5 16.5h-12q-2 8 -3.5 13t-8.5 11q-20 0 -32 8t-20 17l-14.5 17t-13.5 8q-8 0 -18.5 -11.5t-27.5 -40.5q-20 -20 -46 -26.5t-53 -7.5q-1 -1 -1 -2t-1 -2h-7v12q-16 -4 -29 -4q-16 0 -16 9q0 11 10 28t23.5 36.5t26 40t18.5 40.5
q-11 2 -41 8.5t-62 16t-57 20.5t-25 22q9 5 16 10.5t17 8.5v5q5 3 12 5.5t11 4.5v7h14q1 6 10.5 10.5t21.5 6.5t24 3t18 1q20 0 43.5 -1.5t52.5 -1.5q27 67 39 135q8 3 8.5 7t1.5 11q7 2 14 4.5t9 9.5h11q7 10 18.5 15t19.5 13q14 -3 36 -3.5t37 -2.5q14 -37 25 -74.5
t19 -79.5q43 0 90 5.5t80 10.5q5 0 8 1t6 1t9 -5t13 -14t12 -22.5t7 -29.5q0 -6 -1 -7.5t-8 -1.5q-18 -5 -46 -8.5t-56.5 -6.5t-53.5 -5t-36 -3v-11q0 -33 13.5 -62t30 -53.5l30.5 -45t14 -36.5q0 -17 -17 -27t-63 -19q-11 4 -17 11t-15 12v-10q-2 -2 -4.5 -2t-2.5 -4h-10
v-9q-2 -2 -3 -2t-2 -1t-2 -1v-4h-5z" />
    <glyph glyph-name="quoteright" unicode="&#x2019;" 
d="M472 122q-5 4 -9 6v3h-11l-10.5 16.5t-8.5 16.5h-12q-2 8 -3.5 13t-8.5 11q-20 0 -32 8t-20 17l-14.5 17t-13.5 8q-8 0 -18.5 -11.5t-27.5 -40.5q-20 -20 -46 -26.5t-53 -7.5q-1 -1 -1 -2t-1 -2h-7v12q-16 -4 -29 -4q-16 0 -16 9q0 11 10 28t23.5 36.5t26 40t18.5 40.5
q-11 2 -41 8.5t-62 16t-57 20.5t-25 22q9 5 16 10.5t17 8.5v5q5 3 12 5.5t11 4.5v7h14q1 6 10.5 10.5t21.5 6.5t24 3t18 1q20 0 43.5 -1.5t52.5 -1.5q27 67 39 135q8 3 8.5 7t1.5 11q7 2 14 4.5t9 9.5h11q7 10 18.5 15t19.5 13q14 -3 36 -3.5t37 -2.5q14 -37 25 -74.5
t19 -79.5q43 0 90 5.5t80 10.5q5 0 8 1t6 1t9 -5t13 -14t12 -22.5t7 -29.5q0 -6 -1 -7.5t-8 -1.5q-18 -5 -46 -8.5t-56.5 -6.5t-53.5 -5t-36 -3v-11q0 -33 13.5 -62t30 -53.5l30.5 -45t14 -36.5q0 -17 -17 -27t-63 -19q-11 4 -17 11t-15 12v-10q-2 -2 -4.5 -2t-2.5 -4h-10
v-9q-2 -2 -3 -2t-2 -1t-2 -1v-4h-5z" />
    <glyph glyph-name="endash" unicode="&#x2013;" horiz-adv-x="463" 
d="M434 377q-19 -18 -19 -20h1q2 0 5.5 1t6.5 1q8 0 8 -8q0 -12 -10.5 -21.5t-10.5 -13.5q0 -2 0.5 -2t0.5 -1q0 -3 -5 -3q-7 0 -12 1q-3 -3 -5 -9q-2 0 -11 -0.5t-23 -1t-31 -1t-35 -1.5q-41 -2 -92 -3h6q0 1 -74 6q-90 6 -106 27q8 25 9.5 38.5t4.5 24t11 23.5t30 39l6 -3
l3.5 3.5t2.5 4.5q5 0 21 -1t33 -2.5t30 -3.5t13 -3q0 -2 -5 -3t-5 -3t9.5 -3.5t33.5 -1.5q54 0 105.5 2t87.5 8q2 0 4 0.5t4 0.5q9 0 9 -6q0 -3 -4 -10t-4 -8h1l5 5q3 -1 11 -3q0 -7 0.5 -9.5t2 -3.5t4 -2t6.5 -4q-5 -17 -9 -17q-1 0 -1.5 1t-1.5 1q-4 0 -11 -15z" />
    <glyph glyph-name="emdash" unicode="&#x2014;" horiz-adv-x="463" 
d="M434 377q-19 -18 -19 -20h1q2 0 5.5 1t6.5 1q8 0 8 -8q0 -12 -10.5 -21.5t-10.5 -13.5q0 -2 0.5 -2t0.5 -1q0 -3 -5 -3q-7 0 -12 1q-3 -3 -5 -9q-2 0 -11 -0.5t-23 -1t-31 -1t-35 -1.5q-41 -2 -92 -3h6q0 1 -74 6q-90 6 -106 27q8 25 9.5 38.5t4.5 24t11 23.5t30 39l6 -3
l3.5 3.5t2.5 4.5q5 0 21 -1t33 -2.5t30 -3.5t13 -3q0 -2 -5 -3t-5 -3t9.5 -3.5t33.5 -1.5q54 0 105.5 2t87.5 8q2 0 4 0.5t4 0.5q9 0 9 -6q0 -3 -4 -10t-4 -8h1l5 5q3 -1 11 -3q0 -7 0.5 -9.5t2 -3.5t4 -2t6.5 -4q-5 -17 -9 -17q-1 0 -1.5 1t-1.5 1q-4 0 -11 -15z" />
    <glyph glyph-name="guilsinglright" unicode="&#x203a;" 
d="M472 122q-5 4 -9 6v3h-11l-10.5 16.5t-8.5 16.5h-12q-2 8 -3.5 13t-8.5 11q-20 0 -32 8t-20 17l-14.5 17t-13.5 8q-8 0 -18.5 -11.5t-27.5 -40.5q-20 -20 -46 -26.5t-53 -7.5q-1 -1 -1 -2t-1 -2h-7v12q-16 -4 -29 -4q-16 0 -16 9q0 11 10 28t23.5 36.5t26 40t18.5 40.5
q-11 2 -41 8.5t-62 16t-57 20.5t-25 22q9 5 16 10.5t17 8.5v5q5 3 12 5.5t11 4.5v7h14q1 6 10.5 10.5t21.5 6.5t24 3t18 1q20 0 43.5 -1.5t52.5 -1.5q27 67 39 135q8 3 8.5 7t1.5 11q7 2 14 4.5t9 9.5h11q7 10 18.5 15t19.5 13q14 -3 36 -3.5t37 -2.5q14 -37 25 -74.5
t19 -79.5q43 0 90 5.5t80 10.5q5 0 8 1t6 1t9 -5t13 -14t12 -22.5t7 -29.5q0 -6 -1 -7.5t-8 -1.5q-18 -5 -46 -8.5t-56.5 -6.5t-53.5 -5t-36 -3v-11q0 -33 13.5 -62t30 -53.5l30.5 -45t14 -36.5q0 -17 -17 -27t-63 -19q-11 4 -17 11t-15 12v-10q-2 -2 -4.5 -2t-2.5 -4h-10
v-9q-2 -2 -3 -2t-2 -1t-2 -1v-4h-5z" />
    <glyph glyph-name="degree" unicode="&#xb0;" 
d="M472 122q-5 4 -9 6v3h-11l-10.5 16.5t-8.5 16.5h-12q-2 8 -3.5 13t-8.5 11q-20 0 -32 8t-20 17l-14.5 17t-13.5 8q-8 0 -18.5 -11.5t-27.5 -40.5q-20 -20 -46 -26.5t-53 -7.5q-1 -1 -1 -2t-1 -2h-7v12q-16 -4 -29 -4q-16 0 -16 9q0 11 10 28t23.5 36.5t26 40t18.5 40.5
q-11 2 -41 8.5t-62 16t-57 20.5t-25 22q9 5 16 10.5t17 8.5v5q5 3 12 5.5t11 4.5v7h14q1 6 10.5 10.5t21.5 6.5t24 3t18 1q20 0 43.5 -1.5t52.5 -1.5q27 67 39 135q8 3 8.5 7t1.5 11q7 2 14 4.5t9 9.5h11q7 10 18.5 15t19.5 13q14 -3 36 -3.5t37 -2.5q14 -37 25 -74.5
t19 -79.5q43 0 90 5.5t80 10.5q5 0 8 1t6 1t9 -5t13 -14t12 -22.5t7 -29.5q0 -6 -1 -7.5t-8 -1.5q-18 -5 -46 -8.5t-56.5 -6.5t-53.5 -5t-36 -3v-11q0 -33 13.5 -62t30 -53.5l30.5 -45t14 -36.5q0 -17 -17 -27t-63 -19q-11 4 -17 11t-15 12v-10q-2 -2 -4.5 -2t-2.5 -4h-10
v-9q-2 -2 -3 -2t-2 -1t-2 -1v-4h-5z" />
    <glyph glyph-name="plusminus" unicode="&#xb1;" 
d="M472 122q-5 4 -9 6v3h-11l-10.5 16.5t-8.5 16.5h-12q-2 8 -3.5 13t-8.5 11q-20 0 -32 8t-20 17l-14.5 17t-13.5 8q-8 0 -18.5 -11.5t-27.5 -40.5q-20 -20 -46 -26.5t-53 -7.5q-1 -1 -1 -2t-1 -2h-7v12q-16 -4 -29 -4q-16 0 -16 9q0 11 10 28t23.5 36.5t26 40t18.5 40.5
q-11 2 -41 8.5t-62 16t-57 20.5t-25 22q9 5 16 10.5t17 8.5v5q5 3 12 5.5t11 4.5v7h14q1 6 10.5 10.5t21.5 6.5t24 3t18 1q20 0 43.5 -1.5t52.5 -1.5q27 67 39 135q8 3 8.5 7t1.5 11q7 2 14 4.5t9 9.5h11q7 10 18.5 15t19.5 13q14 -3 36 -3.5t37 -2.5q14 -37 25 -74.5
t19 -79.5q43 0 90 5.5t80 10.5q5 0 8 1t6 1t9 -5t13 -14t12 -22.5t7 -29.5q0 -6 -1 -7.5t-8 -1.5q-18 -5 -46 -8.5t-56.5 -6.5t-53.5 -5t-36 -3v-11q0 -33 13.5 -62t30 -53.5l30.5 -45t14 -36.5q0 -17 -17 -27t-63 -19q-11 4 -17 11t-15 12v-10q-2 -2 -4.5 -2t-2.5 -4h-10
v-9q-2 -2 -3 -2t-2 -1t-2 -1v-4h-5z" />
    <glyph glyph-name="twosuperior" unicode="&#xb2;" 
d="M472 122q-5 4 -9 6v3h-11l-10.5 16.5t-8.5 16.5h-12q-2 8 -3.5 13t-8.5 11q-20 0 -32 8t-20 17l-14.5 17t-13.5 8q-8 0 -18.5 -11.5t-27.5 -40.5q-20 -20 -46 -26.5t-53 -7.5q-1 -1 -1 -2t-1 -2h-7v12q-16 -4 -29 -4q-16 0 -16 9q0 11 10 28t23.5 36.5t26 40t18.5 40.5
q-11 2 -41 8.5t-62 16t-57 20.5t-25 22q9 5 16 10.5t17 8.5v5q5 3 12 5.5t11 4.5v7h14q1 6 10.5 10.5t21.5 6.5t24 3t18 1q20 0 43.5 -1.5t52.5 -1.5q27 67 39 135q8 3 8.5 7t1.5 11q7 2 14 4.5t9 9.5h11q7 10 18.5 15t19.5 13q14 -3 36 -3.5t37 -2.5q14 -37 25 -74.5
t19 -79.5q43 0 90 5.5t80 10.5q5 0 8 1t6 1t9 -5t13 -14t12 -22.5t7 -29.5q0 -6 -1 -7.5t-8 -1.5q-18 -5 -46 -8.5t-56.5 -6.5t-53.5 -5t-36 -3v-11q0 -33 13.5 -62t30 -53.5l30.5 -45t14 -36.5q0 -17 -17 -27t-63 -19q-11 4 -17 11t-15 12v-10q-2 -2 -4.5 -2t-2.5 -4h-10
v-9q-2 -2 -3 -2t-2 -1t-2 -1v-4h-5z" />
    <glyph glyph-name="threesuperior" unicode="&#xb3;" 
d="M472 122q-5 4 -9 6v3h-11l-10.5 16.5t-8.5 16.5h-12q-2 8 -3.5 13t-8.5 11q-20 0 -32 8t-20 17l-14.5 17t-13.5 8q-8 0 -18.5 -11.5t-27.5 -40.5q-20 -20 -46 -26.5t-53 -7.5q-1 -1 -1 -2t-1 -2h-7v12q-16 -4 -29 -4q-16 0 -16 9q0 11 10 28t23.5 36.5t26 40t18.5 40.5
q-11 2 -41 8.5t-62 16t-57 20.5t-25 22q9 5 16 10.5t17 8.5v5q5 3 12 5.5t11 4.5v7h14q1 6 10.5 10.5t21.5 6.5t24 3t18 1q20 0 43.5 -1.5t52.5 -1.5q27 67 39 135q8 3 8.5 7t1.5 11q7 2 14 4.5t9 9.5h11q7 10 18.5 15t19.5 13q14 -3 36 -3.5t37 -2.5q14 -37 25 -74.5
t19 -79.5q43 0 90 5.5t80 10.5q5 0 8 1t6 1t9 -5t13 -14t12 -22.5t7 -29.5q0 -6 -1 -7.5t-8 -1.5q-18 -5 -46 -8.5t-56.5 -6.5t-53.5 -5t-36 -3v-11q0 -33 13.5 -62t30 -53.5l30.5 -45t14 -36.5q0 -17 -17 -27t-63 -19q-11 4 -17 11t-15 12v-10q-2 -2 -4.5 -2t-2.5 -4h-10
v-9q-2 -2 -3 -2t-2 -1t-2 -1v-4h-5z" />
    <glyph glyph-name="acute" unicode="&#xb4;" 
d="M472 122q-5 4 -9 6v3h-11l-10.5 16.5t-8.5 16.5h-12q-2 8 -3.5 13t-8.5 11q-20 0 -32 8t-20 17l-14.5 17t-13.5 8q-8 0 -18.5 -11.5t-27.5 -40.5q-20 -20 -46 -26.5t-53 -7.5q-1 -1 -1 -2t-1 -2h-7v12q-16 -4 -29 -4q-16 0 -16 9q0 11 10 28t23.5 36.5t26 40t18.5 40.5
q-11 2 -41 8.5t-62 16t-57 20.5t-25 22q9 5 16 10.5t17 8.5v5q5 3 12 5.5t11 4.5v7h14q1 6 10.5 10.5t21.5 6.5t24 3t18 1q20 0 43.5 -1.5t52.5 -1.5q27 67 39 135q8 3 8.5 7t1.5 11q7 2 14 4.5t9 9.5h11q7 10 18.5 15t19.5 13q14 -3 36 -3.5t37 -2.5q14 -37 25 -74.5
t19 -79.5q43 0 90 5.5t80 10.5q5 0 8 1t6 1t9 -5t13 -14t12 -22.5t7 -29.5q0 -6 -1 -7.5t-8 -1.5q-18 -5 -46 -8.5t-56.5 -6.5t-53.5 -5t-36 -3v-11q0 -33 13.5 -62t30 -53.5l30.5 -45t14 -36.5q0 -17 -17 -27t-63 -19q-11 4 -17 11t-15 12v-10q-2 -2 -4.5 -2t-2.5 -4h-10
v-9q-2 -2 -3 -2t-2 -1t-2 -1v-4h-5z" />
    <glyph glyph-name="periodcentered" unicode="&#xb7;" 
d="M472 122q-5 4 -9 6v3h-11l-10.5 16.5t-8.5 16.5h-12q-2 8 -3.5 13t-8.5 11q-20 0 -32 8t-20 17l-14.5 17t-13.5 8q-8 0 -18.5 -11.5t-27.5 -40.5q-20 -20 -46 -26.5t-53 -7.5q-1 -1 -1 -2t-1 -2h-7v12q-16 -4 -29 -4q-16 0 -16 9q0 11 10 28t23.5 36.5t26 40t18.5 40.5
q-11 2 -41 8.5t-62 16t-57 20.5t-25 22q9 5 16 10.5t17 8.5v5q5 3 12 5.5t11 4.5v7h14q1 6 10.5 10.5t21.5 6.5t24 3t18 1q20 0 43.5 -1.5t52.5 -1.5q27 67 39 135q8 3 8.5 7t1.5 11q7 2 14 4.5t9 9.5h11q7 10 18.5 15t19.5 13q14 -3 36 -3.5t37 -2.5q14 -37 25 -74.5
t19 -79.5q43 0 90 5.5t80 10.5q5 0 8 1t6 1t9 -5t13 -14t12 -22.5t7 -29.5q0 -6 -1 -7.5t-8 -1.5q-18 -5 -46 -8.5t-56.5 -6.5t-53.5 -5t-36 -3v-11q0 -33 13.5 -62t30 -53.5l30.5 -45t14 -36.5q0 -17 -17 -27t-63 -19q-11 4 -17 11t-15 12v-10q-2 -2 -4.5 -2t-2.5 -4h-10
v-9q-2 -2 -3 -2t-2 -1t-2 -1v-4h-5z" />
    <glyph glyph-name="multiply" unicode="&#xd7;" 
d="M472 122q-5 4 -9 6v3h-11l-10.5 16.5t-8.5 16.5h-12q-2 8 -3.5 13t-8.5 11q-20 0 -32 8t-20 17l-14.5 17t-13.5 8q-8 0 -18.5 -11.5t-27.5 -40.5q-20 -20 -46 -26.5t-53 -7.5q-1 -1 -1 -2t-1 -2h-7v12q-16 -4 -29 -4q-16 0 -16 9q0 11 10 28t23.5 36.5t26 40t18.5 40.5
q-11 2 -41 8.5t-62 16t-57 20.5t-25 22q9 5 16 10.5t17 8.5v5q5 3 12 5.5t11 4.5v7h14q1 6 10.5 10.5t21.5 6.5t24 3t18 1q20 0 43.5 -1.5t52.5 -1.5q27 67 39 135q8 3 8.5 7t1.5 11q7 2 14 4.5t9 9.5h11q7 10 18.5 15t19.5 13q14 -3 36 -3.5t37 -2.5q14 -37 25 -74.5
t19 -79.5q43 0 90 5.5t80 10.5q5 0 8 1t6 1t9 -5t13 -14t12 -22.5t7 -29.5q0 -6 -1 -7.5t-8 -1.5q-18 -5 -46 -8.5t-56.5 -6.5t-53.5 -5t-36 -3v-11q0 -33 13.5 -62t30 -53.5l30.5 -45t14 -36.5q0 -17 -17 -27t-63 -19q-11 4 -17 11t-15 12v-10q-2 -2 -4.5 -2t-2.5 -4h-10
v-9q-2 -2 -3 -2t-2 -1t-2 -1v-4h-5z" />
    <glyph glyph-name="questiondown" unicode="&#xbf;" horiz-adv-x="471" 
d="M307 -52q-18 11 -32 17.5t-35 9.5q0 4 5.5 5.5t5.5 5.5q-26 6 -44 21t-32 35h10q-3 12 -4.5 19.5t-1.5 14.5q0 12 4 28q10 5 23.5 12.5t28 14t29.5 11.5t29 5q17 0 32 -9.5t26 -34.5h11q5 -16 6 -28.5t3.5 -21t8.5 -13t21 -4.5v-12l32.5 -9.5t16.5 -5.5t5.5 -3.5
t0.5 -2.5h-11v-17q-36 -15 -52 -20t-26 -6.5t-21.5 -2.5t-38.5 -9zM296 249q-47 18 -92.5 42t-95.5 36q-17 4 -26 14t-13.5 22.5t-5.5 26t-1 23.5q0 47 25 84.5t62 69.5t79.5 61t77.5 60q-1 5 -1 12v17l-15.5 14t-15.5 13q-6 -2 -9 -5q-20 9 -41.5 13t-44.5 4q-33 0 -67 -7
t-64 -18t-55.5 -24t-42.5 -25q-2 -1 -5 -1q-7 0 -7 7v2q0 13 -13 14q-3 -12 -13 -17t-24 -5q-1 13 -6.5 27.5t-5.5 26.5q79 74 156 106.5t162 32.5q24 0 57.5 -4.5t69 -13t70.5 -20.5t63 -27t45 -33t17 -39q0 -15 -7.5 -30.5t-19.5 -30t-27 -28l-29 -25.5q-6 -5 -21.5 -17
l-36 -28l-42.5 -34l-40.5 -34t-30.5 -28t-12 -16q0 -1 1 -1q2 0 10 6h-14v-7q0 -44 20.5 -66.5t52 -33.5t67.5 -17.5t68 -19.5q11 -11 11 -24q0 -14 -6.5 -24t-16 -17.5t-20 -11t-18.5 -3.5q-16 0 -33.5 6t-26.5 7l2.5 -2.5t4.5 -5.5l-28 -2z" />
    <glyph glyph-name="cent" unicode="&#xa2;" 
d="M472 122q-5 4 -9 6v3h-11l-10.5 16.5t-8.5 16.5h-12q-2 8 -3.5 13t-8.5 11q-20 0 -32 8t-20 17l-14.5 17t-13.5 8q-8 0 -18.5 -11.5t-27.5 -40.5q-20 -20 -46 -26.5t-53 -7.5q-1 -1 -1 -2t-1 -2h-7v12q-16 -4 -29 -4q-16 0 -16 9q0 11 10 28t23.5 36.5t26 40t18.5 40.5
q-11 2 -41 8.5t-62 16t-57 20.5t-25 22q9 5 16 10.5t17 8.5v5q5 3 12 5.5t11 4.5v7h14q1 6 10.5 10.5t21.5 6.5t24 3t18 1q20 0 43.5 -1.5t52.5 -1.5q27 67 39 135q8 3 8.5 7t1.5 11q7 2 14 4.5t9 9.5h11q7 10 18.5 15t19.5 13q14 -3 36 -3.5t37 -2.5q14 -37 25 -74.5
t19 -79.5q43 0 90 5.5t80 10.5q5 0 8 1t6 1t9 -5t13 -14t12 -22.5t7 -29.5q0 -6 -1 -7.5t-8 -1.5q-18 -5 -46 -8.5t-56.5 -6.5t-53.5 -5t-36 -3v-11q0 -33 13.5 -62t30 -53.5l30.5 -45t14 -36.5q0 -17 -17 -27t-63 -19q-11 4 -17 11t-15 12v-10q-2 -2 -4.5 -2t-2.5 -4h-10
v-9q-2 -2 -3 -2t-2 -1t-2 -1v-4h-5z" />
    <glyph glyph-name="sterling" unicode="&#xa3;" 
d="M472 122q-5 4 -9 6v3h-11l-10.5 16.5t-8.5 16.5h-12q-2 8 -3.5 13t-8.5 11q-20 0 -32 8t-20 17l-14.5 17t-13.5 8q-8 0 -18.5 -11.5t-27.5 -40.5q-20 -20 -46 -26.5t-53 -7.5q-1 -1 -1 -2t-1 -2h-7v12q-16 -4 -29 -4q-16 0 -16 9q0 11 10 28t23.5 36.5t26 40t18.5 40.5
q-11 2 -41 8.5t-62 16t-57 20.5t-25 22q9 5 16 10.5t17 8.5v5q5 3 12 5.5t11 4.5v7h14q1 6 10.5 10.5t21.5 6.5t24 3t18 1q20 0 43.5 -1.5t52.5 -1.5q27 67 39 135q8 3 8.5 7t1.5 11q7 2 14 4.5t9 9.5h11q7 10 18.5 15t19.5 13q14 -3 36 -3.5t37 -2.5q14 -37 25 -74.5
t19 -79.5q43 0 90 5.5t80 10.5q5 0 8 1t6 1t9 -5t13 -14t12 -22.5t7 -29.5q0 -6 -1 -7.5t-8 -1.5q-18 -5 -46 -8.5t-56.5 -6.5t-53.5 -5t-36 -3v-11q0 -33 13.5 -62t30 -53.5l30.5 -45t14 -36.5q0 -17 -17 -27t-63 -19q-11 4 -17 11t-15 12v-10q-2 -2 -4.5 -2t-2.5 -4h-10
v-9q-2 -2 -3 -2t-2 -1t-2 -1v-4h-5z" />
    <glyph glyph-name="currency" unicode="&#xa4;" 
d="M472 122q-5 4 -9 6v3h-11l-10.5 16.5t-8.5 16.5h-12q-2 8 -3.5 13t-8.5 11q-20 0 -32 8t-20 17l-14.5 17t-13.5 8q-8 0 -18.5 -11.5t-27.5 -40.5q-20 -20 -46 -26.5t-53 -7.5q-1 -1 -1 -2t-1 -2h-7v12q-16 -4 -29 -4q-16 0 -16 9q0 11 10 28t23.5 36.5t26 40t18.5 40.5
q-11 2 -41 8.5t-62 16t-57 20.5t-25 22q9 5 16 10.5t17 8.5v5q5 3 12 5.5t11 4.5v7h14q1 6 10.5 10.5t21.5 6.5t24 3t18 1q20 0 43.5 -1.5t52.5 -1.5q27 67 39 135q8 3 8.5 7t1.5 11q7 2 14 4.5t9 9.5h11q7 10 18.5 15t19.5 13q14 -3 36 -3.5t37 -2.5q14 -37 25 -74.5
t19 -79.5q43 0 90 5.5t80 10.5q5 0 8 1t6 1t9 -5t13 -14t12 -22.5t7 -29.5q0 -6 -1 -7.5t-8 -1.5q-18 -5 -46 -8.5t-56.5 -6.5t-53.5 -5t-36 -3v-11q0 -33 13.5 -62t30 -53.5l30.5 -45t14 -36.5q0 -17 -17 -27t-63 -19q-11 4 -17 11t-15 12v-10q-2 -2 -4.5 -2t-2.5 -4h-10
v-9q-2 -2 -3 -2t-2 -1t-2 -1v-4h-5z" />
    <glyph glyph-name="yen" unicode="&#xa5;" 
d="M472 122q-5 4 -9 6v3h-11l-10.5 16.5t-8.5 16.5h-12q-2 8 -3.5 13t-8.5 11q-20 0 -32 8t-20 17l-14.5 17t-13.5 8q-8 0 -18.5 -11.5t-27.5 -40.5q-20 -20 -46 -26.5t-53 -7.5q-1 -1 -1 -2t-1 -2h-7v12q-16 -4 -29 -4q-16 0 -16 9q0 11 10 28t23.5 36.5t26 40t18.5 40.5
q-11 2 -41 8.5t-62 16t-57 20.5t-25 22q9 5 16 10.5t17 8.5v5q5 3 12 5.5t11 4.5v7h14q1 6 10.5 10.5t21.5 6.5t24 3t18 1q20 0 43.5 -1.5t52.5 -1.5q27 67 39 135q8 3 8.5 7t1.5 11q7 2 14 4.5t9 9.5h11q7 10 18.5 15t19.5 13q14 -3 36 -3.5t37 -2.5q14 -37 25 -74.5
t19 -79.5q43 0 90 5.5t80 10.5q5 0 8 1t6 1t9 -5t13 -14t12 -22.5t7 -29.5q0 -6 -1 -7.5t-8 -1.5q-18 -5 -46 -8.5t-56.5 -6.5t-53.5 -5t-36 -3v-11q0 -33 13.5 -62t30 -53.5l30.5 -45t14 -36.5q0 -17 -17 -27t-63 -19q-11 4 -17 11t-15 12v-10q-2 -2 -4.5 -2t-2.5 -4h-10
v-9q-2 -2 -3 -2t-2 -1t-2 -1v-4h-5z" />
    <glyph glyph-name="scaron" unicode="&#x161;" horiz-adv-x="616" 
d="M390 602q-5 8 -5 13q21 -2 35.5 -14.5t24.5 -29.5t15.5 -35.5t7.5 -33.5h-20q-9 0 -15 -1t-10 -4t-7.5 -9.5t-7.5 -18.5q-18 -5 -33 -11.5t-32 -6.5q-2 0 -4 0.5t-4 0.5v4q0 8 -12 26t-31 36.5t-41 32.5t-41 14q-13 0 -22 -5q-23 -4 -36.5 -10t-13.5 -15
q0 -14 21.5 -30.5t55.5 -32.5t75.5 -30.5t82.5 -24.5q72 -19 143 -33.5t129 -28.5q72 -18 71 -64q0 -9 -2 -17.5t-5 -19.5q-16 -50 -65.5 -100t-121.5 -90t-160.5 -65t-181.5 -25q-94 0 -152 48q2 2 12 7q-24 17 -35 41t-11 51q0 22 7 44.5t20 42t31.5 34t41.5 22.5v10
q13 4 29 10t31.5 11t29.5 9t25 4q13 0 27.5 -3.5t14.5 -12.5q0 -14 -14 -28l-30.5 -30t-30 -35t-13.5 -42q0 -32 21 -44.5t61 -12.5q39 0 88.5 10t93 27t73 39.5t29.5 48.5q0 18 -21.5 32.5t-55.5 26.5t-76.5 22t-85 18.5l-80.5 16.5t-63 16q-95 29 -147 60.5t-52 75.5
q0 35 27 64t65.5 50t80.5 32.5t72 11.5q44 0 92 -15.5z" />
    <glyph glyph-name="zcaron" unicode="&#x17e;" horiz-adv-x="631" 
d="M164 501q16 -15 20.5 -20t7 -7t7 -4.5t21.5 -14.5q-5 -4 -9 -5t-23 -2q-4 -9 -4 -18h-11q-8 -16 -15.5 -20t-23.5 -10v-12l-25 -7l-19 -5q-11 28 -36 51.5l-51 46.5t-46 47.5t-20 54.5q0 11 6 27t19.5 31t35.5 25.5t55 10.5q24 0 48 -4.5t48.5 -11.5l49 -14t49.5 -13
l174 -38.5l169 -39.5q14 -4 18.5 -4.5t4.5 -16.5v-27q-9 -3 -15.5 -4.5t-11 -4t-7.5 -7.5t-6 -14h-11q-27 -37 -70.5 -85t-100.5 -93l-49.5 -40l-40.5 -34l-37 -31l-39 -31q2 -3 4 -9q42 1 100 4.5t148 3.5q44 0 87 -4.5t79.5 -13.5t64.5 -23.5t42 -35.5q-3 -2 -5.5 -4
t-4.5 -4q2 -2 4 -4.5t4 -4.5q-6 -7 -15 -11t-17 -9t-14 -11.5t-6 -17.5h-11v-12q-7 1 -13 2t-12 3q-2 -3 -4 -6.5t-4 -8.5q-3 2 -6.5 2.5t-5.5 1.5v-12q-78 19 -167.5 29t-183.5 10q-105 0 -204.5 -13.5t-182.5 -42.5q-5 11 -9 22t-4 22q0 22 24 53t62.5 65t85.5 69.5
l92 67.5q87 62 137 113t75 80l-12.5 6.5l-16.5 8.5t-25 10.5t-39 11.5q-20 5 -40 9.5l-37 8t-28.5 5.5t-13.5 2h-1h17q0 -5 -2 -6.5t-10 -2.5q2 -2 3 -5t3 -5z" />
    <glyph glyph-name="Ydieresis" unicode="&#x178;" horiz-adv-x="582" 
d="M47 -224q-33 5 -45 17.5t-12 33.5q0 19 10.5 41.5t25.5 44t32 39.5t31 27q33 23 68 36.5t68 24.5q0 -1 7.5 -4.5l16 -7.5l16 -7.5t7.5 -4.5q-10 -3 -24 -15.5t-44 -28.5v-12q-6 -3 -13 -11.5t-14 -19l-13.5 -19.5t-11.5 -12q3 -10 26 -17t54.5 -12t65 -8t57.5 -4
q47 -4 91 -11t86 -17q6 -2 11.5 -3t10.5 -1q20 0 20 21v5q-5 47 -25.5 104.5t-47.5 116t-56 111.5l-50 91q-20 -27 -51.5 -54t-66.5 -48.5t-71 -35t-64 -13.5q-36 0 -58.5 14.5t-38.5 40.5t-28.5 62l-28.5 79q-24 61 -24 151q0 29 3 62q10 3 19 7.5t20 9.5q0 8 5 11t11 5v11
q23 5 37 9.5t25 4.5q17 0 27 -25t16.5 -62t11.5 -80.5t12.5 -80.5t20.5 -62t35 -25q25 0 39 16.5t20 43t7 60t1 67.5q0 26 -1 50.5t-1 42.5q0 11 0.5 21t2.5 10t3.5 -1t3.5 -1q1 0 8 2.5t14 4.5v10q14 10 23 17.5t28 7.5q4 6 10 12q3 -1 9 -1q11 0 20 3t19 3q9 0 14 -2
q1 -41 20 -91.5t47 -107t60.5 -115l61.5 -114.5l32 -65.5t33 -72.5t28.5 -73.5t20.5 -68.5q2 -10 2 -17q0 -29 -16 -60.5t-40 -59.5t-52.5 -48t-53.5 -24q-16 -3 -32.5 -4t-35.5 -1q-59 0 -126.5 10t-131 23t-116 26t-81.5 18z" />
    <glyph glyph-name="exclamdown" unicode="&#xa1;" horiz-adv-x="250" 
d="M71 268q-4 0 -13.5 -2.5l-13.5 -3.5q0 17 1 52.5t2 82t3 99t3 103t2 95t1 73.5q0 13 4 15t19 11l43 26t49 22q2 -6 3 -11q8 2 11 5q3 -2 7 -8q1 5 5 9t6 4q3 0 7.5 -3t17.5 -14q0 -3 0.5 -6t0.5 -5q0 -17 -4.5 -34t-4.5 -54q0 -18 1.5 -43t6.5 -59q-1 -1 -3 -1
q-3 0 -4.5 2t-4.5 2h-2l3 -15q6 4 12 6q1 -3 1 -5t1 -4q-3 -3 -8 -5.5t-10 -3.5q-11 -66 -17 -138.5t-12 -132.5q0 -5 1 -11t1 -11q0 -9 -11 -8.5t-19 -0.5v2q0 4 -3 4q-2 0 -5 -2t-5 -2t-2 3v3q-15 -11 -16.5 -18.5t-8.5 -7.5v1l2 1q0 -1 -1 -1q-2 0 -3 1.5t-6 1.5
q-12 0 -23.5 -3t-13.5 -7v-4zM90 176q17 -8 31.5 -10.5t28.5 -2.5q9 0 17 0.5t15 0.5q19 0 29 -9.5t14.5 -23t5.5 -29.5t1 -29q0 -12 -1.5 -32.5t-5.5 -50.5q-13 -3 -28 -13t-45 -18q-17 15 -29 15q-5 0 -8 -2t-6 -2q-5 0 -6.5 3.5t-3 8t-6 8.5t-14.5 6q0 3 -4.5 18
t-10.5 32t-10.5 32t-4.5 18q4 1 8.5 2t10.5 2q0 22 -0.5 35.5t-0.5 21.5q-1 9 -1 12v-1q0 -1 1 -1t1 1t1.5 2.5t6 3t14.5 2.5z" />
    <glyph glyph-name="quotedblbase" unicode="&#x201e;" 
d="M472 122q-5 4 -9 6v3h-11l-10.5 16.5t-8.5 16.5h-12q-2 8 -3.5 13t-8.5 11q-20 0 -32 8t-20 17l-14.5 17t-13.5 8q-8 0 -18.5 -11.5t-27.5 -40.5q-20 -20 -46 -26.5t-53 -7.5q-1 -1 -1 -2t-1 -2h-7v12q-16 -4 -29 -4q-16 0 -16 9q0 11 10 28t23.5 36.5t26 40t18.5 40.5
q-11 2 -41 8.5t-62 16t-57 20.5t-25 22q9 5 16 10.5t17 8.5v5q5 3 12 5.5t11 4.5v7h14q1 6 10.5 10.5t21.5 6.5t24 3t18 1q20 0 43.5 -1.5t52.5 -1.5q27 67 39 135q8 3 8.5 7t1.5 11q7 2 14 4.5t9 9.5h11q7 10 18.5 15t19.5 13q14 -3 36 -3.5t37 -2.5q14 -37 25 -74.5
t19 -79.5q43 0 90 5.5t80 10.5q5 0 8 1t6 1t9 -5t13 -14t12 -22.5t7 -29.5q0 -6 -1 -7.5t-8 -1.5q-18 -5 -46 -8.5t-56.5 -6.5t-53.5 -5t-36 -3v-11q0 -33 13.5 -62t30 -53.5l30.5 -45t14 -36.5q0 -17 -17 -27t-63 -19q-11 4 -17 11t-15 12v-10q-2 -2 -4.5 -2t-2.5 -4h-10
v-9q-2 -2 -3 -2t-2 -1t-2 -1v-4h-5z" />
    <glyph glyph-name="ellipsis" unicode="&#x2026;" 
d="M472 122q-5 4 -9 6v3h-11l-10.5 16.5t-8.5 16.5h-12q-2 8 -3.5 13t-8.5 11q-20 0 -32 8t-20 17l-14.5 17t-13.5 8q-8 0 -18.5 -11.5t-27.5 -40.5q-20 -20 -46 -26.5t-53 -7.5q-1 -1 -1 -2t-1 -2h-7v12q-16 -4 -29 -4q-16 0 -16 9q0 11 10 28t23.5 36.5t26 40t18.5 40.5
q-11 2 -41 8.5t-62 16t-57 20.5t-25 22q9 5 16 10.5t17 8.5v5q5 3 12 5.5t11 4.5v7h14q1 6 10.5 10.5t21.5 6.5t24 3t18 1q20 0 43.5 -1.5t52.5 -1.5q27 67 39 135q8 3 8.5 7t1.5 11q7 2 14 4.5t9 9.5h11q7 10 18.5 15t19.5 13q14 -3 36 -3.5t37 -2.5q14 -37 25 -74.5
t19 -79.5q43 0 90 5.5t80 10.5q5 0 8 1t6 1t9 -5t13 -14t12 -22.5t7 -29.5q0 -6 -1 -7.5t-8 -1.5q-18 -5 -46 -8.5t-56.5 -6.5t-53.5 -5t-36 -3v-11q0 -33 13.5 -62t30 -53.5l30.5 -45t14 -36.5q0 -17 -17 -27t-63 -19q-11 4 -17 11t-15 12v-10q-2 -2 -4.5 -2t-2.5 -4h-10
v-9q-2 -2 -3 -2t-2 -1t-2 -1v-4h-5z" />
    <glyph glyph-name="circumflex" unicode="&#x2c6;" 
d="M472 122q-5 4 -9 6v3h-11l-10.5 16.5t-8.5 16.5h-12q-2 8 -3.5 13t-8.5 11q-20 0 -32 8t-20 17l-14.5 17t-13.5 8q-8 0 -18.5 -11.5t-27.5 -40.5q-20 -20 -46 -26.5t-53 -7.5q-1 -1 -1 -2t-1 -2h-7v12q-16 -4 -29 -4q-16 0 -16 9q0 11 10 28t23.5 36.5t26 40t18.5 40.5
q-11 2 -41 8.5t-62 16t-57 20.5t-25 22q9 5 16 10.5t17 8.5v5q5 3 12 5.5t11 4.5v7h14q1 6 10.5 10.5t21.5 6.5t24 3t18 1q20 0 43.5 -1.5t52.5 -1.5q27 67 39 135q8 3 8.5 7t1.5 11q7 2 14 4.5t9 9.5h11q7 10 18.5 15t19.5 13q14 -3 36 -3.5t37 -2.5q14 -37 25 -74.5
t19 -79.5q43 0 90 5.5t80 10.5q5 0 8 1t6 1t9 -5t13 -14t12 -22.5t7 -29.5q0 -6 -1 -7.5t-8 -1.5q-18 -5 -46 -8.5t-56.5 -6.5t-53.5 -5t-36 -3v-11q0 -33 13.5 -62t30 -53.5l30.5 -45t14 -36.5q0 -17 -17 -27t-63 -19q-11 4 -17 11t-15 12v-10q-2 -2 -4.5 -2t-2.5 -4h-10
v-9q-2 -2 -3 -2t-2 -1t-2 -1v-4h-5z" />
    <glyph glyph-name="guilsinglleft" unicode="&#x2039;" 
d="M472 122q-5 4 -9 6v3h-11l-10.5 16.5t-8.5 16.5h-12q-2 8 -3.5 13t-8.5 11q-20 0 -32 8t-20 17l-14.5 17t-13.5 8q-8 0 -18.5 -11.5t-27.5 -40.5q-20 -20 -46 -26.5t-53 -7.5q-1 -1 -1 -2t-1 -2h-7v12q-16 -4 -29 -4q-16 0 -16 9q0 11 10 28t23.5 36.5t26 40t18.5 40.5
q-11 2 -41 8.5t-62 16t-57 20.5t-25 22q9 5 16 10.5t17 8.5v5q5 3 12 5.5t11 4.5v7h14q1 6 10.5 10.5t21.5 6.5t24 3t18 1q20 0 43.5 -1.5t52.5 -1.5q27 67 39 135q8 3 8.5 7t1.5 11q7 2 14 4.5t9 9.5h11q7 10 18.5 15t19.5 13q14 -3 36 -3.5t37 -2.5q14 -37 25 -74.5
t19 -79.5q43 0 90 5.5t80 10.5q5 0 8 1t6 1t9 -5t13 -14t12 -22.5t7 -29.5q0 -6 -1 -7.5t-8 -1.5q-18 -5 -46 -8.5t-56.5 -6.5t-53.5 -5t-36 -3v-11q0 -33 13.5 -62t30 -53.5l30.5 -45t14 -36.5q0 -17 -17 -27t-63 -19q-11 4 -17 11t-15 12v-10q-2 -2 -4.5 -2t-2.5 -4h-10
v-9q-2 -2 -3 -2t-2 -1t-2 -1v-4h-5z" />
    <glyph glyph-name="cedilla" unicode="&#xb8;" 
d="M472 122q-5 4 -9 6v3h-11l-10.5 16.5t-8.5 16.5h-12q-2 8 -3.5 13t-8.5 11q-20 0 -32 8t-20 17l-14.5 17t-13.5 8q-8 0 -18.5 -11.5t-27.5 -40.5q-20 -20 -46 -26.5t-53 -7.5q-1 -1 -1 -2t-1 -2h-7v12q-16 -4 -29 -4q-16 0 -16 9q0 11 10 28t23.5 36.5t26 40t18.5 40.5
q-11 2 -41 8.5t-62 16t-57 20.5t-25 22q9 5 16 10.5t17 8.5v5q5 3 12 5.5t11 4.5v7h14q1 6 10.5 10.5t21.5 6.5t24 3t18 1q20 0 43.5 -1.5t52.5 -1.5q27 67 39 135q8 3 8.5 7t1.5 11q7 2 14 4.5t9 9.5h11q7 10 18.5 15t19.5 13q14 -3 36 -3.5t37 -2.5q14 -37 25 -74.5
t19 -79.5q43 0 90 5.5t80 10.5q5 0 8 1t6 1t9 -5t13 -14t12 -22.5t7 -29.5q0 -6 -1 -7.5t-8 -1.5q-18 -5 -46 -8.5t-56.5 -6.5t-53.5 -5t-36 -3v-11q0 -33 13.5 -62t30 -53.5l30.5 -45t14 -36.5q0 -17 -17 -27t-63 -19q-11 4 -17 11t-15 12v-10q-2 -2 -4.5 -2t-2.5 -4h-10
v-9q-2 -2 -3 -2t-2 -1t-2 -1v-4h-5z" />
    <glyph glyph-name="onesuperior" unicode="&#xb9;" 
d="M472 122q-5 4 -9 6v3h-11l-10.5 16.5t-8.5 16.5h-12q-2 8 -3.5 13t-8.5 11q-20 0 -32 8t-20 17l-14.5 17t-13.5 8q-8 0 -18.5 -11.5t-27.5 -40.5q-20 -20 -46 -26.5t-53 -7.5q-1 -1 -1 -2t-1 -2h-7v12q-16 -4 -29 -4q-16 0 -16 9q0 11 10 28t23.5 36.5t26 40t18.5 40.5
q-11 2 -41 8.5t-62 16t-57 20.5t-25 22q9 5 16 10.5t17 8.5v5q5 3 12 5.5t11 4.5v7h14q1 6 10.5 10.5t21.5 6.5t24 3t18 1q20 0 43.5 -1.5t52.5 -1.5q27 67 39 135q8 3 8.5 7t1.5 11q7 2 14 4.5t9 9.5h11q7 10 18.5 15t19.5 13q14 -3 36 -3.5t37 -2.5q14 -37 25 -74.5
t19 -79.5q43 0 90 5.5t80 10.5q5 0 8 1t6 1t9 -5t13 -14t12 -22.5t7 -29.5q0 -6 -1 -7.5t-8 -1.5q-18 -5 -46 -8.5t-56.5 -6.5t-53.5 -5t-36 -3v-11q0 -33 13.5 -62t30 -53.5l30.5 -45t14 -36.5q0 -17 -17 -27t-63 -19q-11 4 -17 11t-15 12v-10q-2 -2 -4.5 -2t-2.5 -4h-10
v-9q-2 -2 -3 -2t-2 -1t-2 -1v-4h-5z" />
    <glyph glyph-name="ordmasculine" unicode="&#xba;" 
d="M472 122q-5 4 -9 6v3h-11l-10.5 16.5t-8.5 16.5h-12q-2 8 -3.5 13t-8.5 11q-20 0 -32 8t-20 17l-14.5 17t-13.5 8q-8 0 -18.5 -11.5t-27.5 -40.5q-20 -20 -46 -26.5t-53 -7.5q-1 -1 -1 -2t-1 -2h-7v12q-16 -4 -29 -4q-16 0 -16 9q0 11 10 28t23.5 36.5t26 40t18.5 40.5
q-11 2 -41 8.5t-62 16t-57 20.5t-25 22q9 5 16 10.5t17 8.5v5q5 3 12 5.5t11 4.5v7h14q1 6 10.5 10.5t21.5 6.5t24 3t18 1q20 0 43.5 -1.5t52.5 -1.5q27 67 39 135q8 3 8.5 7t1.5 11q7 2 14 4.5t9 9.5h11q7 10 18.5 15t19.5 13q14 -3 36 -3.5t37 -2.5q14 -37 25 -74.5
t19 -79.5q43 0 90 5.5t80 10.5q5 0 8 1t6 1t9 -5t13 -14t12 -22.5t7 -29.5q0 -6 -1 -7.5t-8 -1.5q-18 -5 -46 -8.5t-56.5 -6.5t-53.5 -5t-36 -3v-11q0 -33 13.5 -62t30 -53.5l30.5 -45t14 -36.5q0 -17 -17 -27t-63 -19q-11 4 -17 11t-15 12v-10q-2 -2 -4.5 -2t-2.5 -4h-10
v-9q-2 -2 -3 -2t-2 -1t-2 -1v-4h-5z" />
    <glyph glyph-name="guillemotright" unicode="&#xbb;" 
d="M472 122q-5 4 -9 6v3h-11l-10.5 16.5t-8.5 16.5h-12q-2 8 -3.5 13t-8.5 11q-20 0 -32 8t-20 17l-14.5 17t-13.5 8q-8 0 -18.5 -11.5t-27.5 -40.5q-20 -20 -46 -26.5t-53 -7.5q-1 -1 -1 -2t-1 -2h-7v12q-16 -4 -29 -4q-16 0 -16 9q0 11 10 28t23.5 36.5t26 40t18.5 40.5
q-11 2 -41 8.5t-62 16t-57 20.5t-25 22q9 5 16 10.5t17 8.5v5q5 3 12 5.5t11 4.5v7h14q1 6 10.5 10.5t21.5 6.5t24 3t18 1q20 0 43.5 -1.5t52.5 -1.5q27 67 39 135q8 3 8.5 7t1.5 11q7 2 14 4.5t9 9.5h11q7 10 18.5 15t19.5 13q14 -3 36 -3.5t37 -2.5q14 -37 25 -74.5
t19 -79.5q43 0 90 5.5t80 10.5q5 0 8 1t6 1t9 -5t13 -14t12 -22.5t7 -29.5q0 -6 -1 -7.5t-8 -1.5q-18 -5 -46 -8.5t-56.5 -6.5t-53.5 -5t-36 -3v-11q0 -33 13.5 -62t30 -53.5l30.5 -45t14 -36.5q0 -17 -17 -27t-63 -19q-11 4 -17 11t-15 12v-10q-2 -2 -4.5 -2t-2.5 -4h-10
v-9q-2 -2 -3 -2t-2 -1t-2 -1v-4h-5z" />
    <glyph glyph-name="onequarter" unicode="&#xbc;" 
d="M472 122q-5 4 -9 6v3h-11l-10.5 16.5t-8.5 16.5h-12q-2 8 -3.5 13t-8.5 11q-20 0 -32 8t-20 17l-14.5 17t-13.5 8q-8 0 -18.5 -11.5t-27.5 -40.5q-20 -20 -46 -26.5t-53 -7.5q-1 -1 -1 -2t-1 -2h-7v12q-16 -4 -29 -4q-16 0 -16 9q0 11 10 28t23.5 36.5t26 40t18.5 40.5
q-11 2 -41 8.5t-62 16t-57 20.5t-25 22q9 5 16 10.5t17 8.5v5q5 3 12 5.5t11 4.5v7h14q1 6 10.5 10.5t21.5 6.5t24 3t18 1q20 0 43.5 -1.5t52.5 -1.5q27 67 39 135q8 3 8.5 7t1.5 11q7 2 14 4.5t9 9.5h11q7 10 18.5 15t19.5 13q14 -3 36 -3.5t37 -2.5q14 -37 25 -74.5
t19 -79.5q43 0 90 5.5t80 10.5q5 0 8 1t6 1t9 -5t13 -14t12 -22.5t7 -29.5q0 -6 -1 -7.5t-8 -1.5q-18 -5 -46 -8.5t-56.5 -6.5t-53.5 -5t-36 -3v-11q0 -33 13.5 -62t30 -53.5l30.5 -45t14 -36.5q0 -17 -17 -27t-63 -19q-11 4 -17 11t-15 12v-10q-2 -2 -4.5 -2t-2.5 -4h-10
v-9q-2 -2 -3 -2t-2 -1t-2 -1v-4h-5z" />
    <glyph glyph-name="onehalf" unicode="&#xbd;" 
d="M472 122q-5 4 -9 6v3h-11l-10.5 16.5t-8.5 16.5h-12q-2 8 -3.5 13t-8.5 11q-20 0 -32 8t-20 17l-14.5 17t-13.5 8q-8 0 -18.5 -11.5t-27.5 -40.5q-20 -20 -46 -26.5t-53 -7.5q-1 -1 -1 -2t-1 -2h-7v12q-16 -4 -29 -4q-16 0 -16 9q0 11 10 28t23.5 36.5t26 40t18.5 40.5
q-11 2 -41 8.5t-62 16t-57 20.5t-25 22q9 5 16 10.5t17 8.5v5q5 3 12 5.5t11 4.5v7h14q1 6 10.5 10.5t21.5 6.5t24 3t18 1q20 0 43.5 -1.5t52.5 -1.5q27 67 39 135q8 3 8.5 7t1.5 11q7 2 14 4.5t9 9.5h11q7 10 18.5 15t19.5 13q14 -3 36 -3.5t37 -2.5q14 -37 25 -74.5
t19 -79.5q43 0 90 5.5t80 10.5q5 0 8 1t6 1t9 -5t13 -14t12 -22.5t7 -29.5q0 -6 -1 -7.5t-8 -1.5q-18 -5 -46 -8.5t-56.5 -6.5t-53.5 -5t-36 -3v-11q0 -33 13.5 -62t30 -53.5l30.5 -45t14 -36.5q0 -17 -17 -27t-63 -19q-11 4 -17 11t-15 12v-10q-2 -2 -4.5 -2t-2.5 -4h-10
v-9q-2 -2 -3 -2t-2 -1t-2 -1v-4h-5z" />
    <glyph glyph-name="threequarters" unicode="&#xbe;" 
d="M472 122q-5 4 -9 6v3h-11l-10.5 16.5t-8.5 16.5h-12q-2 8 -3.5 13t-8.5 11q-20 0 -32 8t-20 17l-14.5 17t-13.5 8q-8 0 -18.5 -11.5t-27.5 -40.5q-20 -20 -46 -26.5t-53 -7.5q-1 -1 -1 -2t-1 -2h-7v12q-16 -4 -29 -4q-16 0 -16 9q0 11 10 28t23.5 36.5t26 40t18.5 40.5
q-11 2 -41 8.5t-62 16t-57 20.5t-25 22q9 5 16 10.5t17 8.5v5q5 3 12 5.5t11 4.5v7h14q1 6 10.5 10.5t21.5 6.5t24 3t18 1q20 0 43.5 -1.5t52.5 -1.5q27 67 39 135q8 3 8.5 7t1.5 11q7 2 14 4.5t9 9.5h11q7 10 18.5 15t19.5 13q14 -3 36 -3.5t37 -2.5q14 -37 25 -74.5
t19 -79.5q43 0 90 5.5t80 10.5q5 0 8 1t6 1t9 -5t13 -14t12 -22.5t7 -29.5q0 -6 -1 -7.5t-8 -1.5q-18 -5 -46 -8.5t-56.5 -6.5t-53.5 -5t-36 -3v-11q0 -33 13.5 -62t30 -53.5l30.5 -45t14 -36.5q0 -17 -17 -27t-63 -19q-11 4 -17 11t-15 12v-10q-2 -2 -4.5 -2t-2.5 -4h-10
v-9q-2 -2 -3 -2t-2 -1t-2 -1v-4h-5z" />
    <glyph glyph-name="brokenbar" unicode="&#xa6;" 
d="M472 122q-5 4 -9 6v3h-11l-10.5 16.5t-8.5 16.5h-12q-2 8 -3.5 13t-8.5 11q-20 0 -32 8t-20 17l-14.5 17t-13.5 8q-8 0 -18.5 -11.5t-27.5 -40.5q-20 -20 -46 -26.5t-53 -7.5q-1 -1 -1 -2t-1 -2h-7v12q-16 -4 -29 -4q-16 0 -16 9q0 11 10 28t23.5 36.5t26 40t18.5 40.5
q-11 2 -41 8.5t-62 16t-57 20.5t-25 22q9 5 16 10.5t17 8.5v5q5 3 12 5.5t11 4.5v7h14q1 6 10.5 10.5t21.5 6.5t24 3t18 1q20 0 43.5 -1.5t52.5 -1.5q27 67 39 135q8 3 8.5 7t1.5 11q7 2 14 4.5t9 9.5h11q7 10 18.5 15t19.5 13q14 -3 36 -3.5t37 -2.5q14 -37 25 -74.5
t19 -79.5q43 0 90 5.5t80 10.5q5 0 8 1t6 1t9 -5t13 -14t12 -22.5t7 -29.5q0 -6 -1 -7.5t-8 -1.5q-18 -5 -46 -8.5t-56.5 -6.5t-53.5 -5t-36 -3v-11q0 -33 13.5 -62t30 -53.5l30.5 -45t14 -36.5q0 -17 -17 -27t-63 -19q-11 4 -17 11t-15 12v-10q-2 -2 -4.5 -2t-2.5 -4h-10
v-9q-2 -2 -3 -2t-2 -1t-2 -1v-4h-5z" />
    <glyph glyph-name="section" unicode="&#xa7;" 
d="M472 122q-5 4 -9 6v3h-11l-10.5 16.5t-8.5 16.5h-12q-2 8 -3.5 13t-8.5 11q-20 0 -32 8t-20 17l-14.5 17t-13.5 8q-8 0 -18.5 -11.5t-27.5 -40.5q-20 -20 -46 -26.5t-53 -7.5q-1 -1 -1 -2t-1 -2h-7v12q-16 -4 -29 -4q-16 0 -16 9q0 11 10 28t23.5 36.5t26 40t18.5 40.5
q-11 2 -41 8.5t-62 16t-57 20.5t-25 22q9 5 16 10.5t17 8.5v5q5 3 12 5.5t11 4.5v7h14q1 6 10.5 10.5t21.5 6.5t24 3t18 1q20 0 43.5 -1.5t52.5 -1.5q27 67 39 135q8 3 8.5 7t1.5 11q7 2 14 4.5t9 9.5h11q7 10 18.5 15t19.5 13q14 -3 36 -3.5t37 -2.5q14 -37 25 -74.5
t19 -79.5q43 0 90 5.5t80 10.5q5 0 8 1t6 1t9 -5t13 -14t12 -22.5t7 -29.5q0 -6 -1 -7.5t-8 -1.5q-18 -5 -46 -8.5t-56.5 -6.5t-53.5 -5t-36 -3v-11q0 -33 13.5 -62t30 -53.5l30.5 -45t14 -36.5q0 -17 -17 -27t-63 -19q-11 4 -17 11t-15 12v-10q-2 -2 -4.5 -2t-2.5 -4h-10
v-9q-2 -2 -3 -2t-2 -1t-2 -1v-4h-5z" />
    <glyph glyph-name="mu" unicode="&#xb5;" 
d="M472 122q-5 4 -9 6v3h-11l-10.5 16.5t-8.5 16.5h-12q-2 8 -3.5 13t-8.5 11q-20 0 -32 8t-20 17l-14.5 17t-13.5 8q-8 0 -18.5 -11.5t-27.5 -40.5q-20 -20 -46 -26.5t-53 -7.5q-1 -1 -1 -2t-1 -2h-7v12q-16 -4 -29 -4q-16 0 -16 9q0 11 10 28t23.5 36.5t26 40t18.5 40.5
q-11 2 -41 8.5t-62 16t-57 20.5t-25 22q9 5 16 10.5t17 8.5v5q5 3 12 5.5t11 4.5v7h14q1 6 10.5 10.5t21.5 6.5t24 3t18 1q20 0 43.5 -1.5t52.5 -1.5q27 67 39 135q8 3 8.5 7t1.5 11q7 2 14 4.5t9 9.5h11q7 10 18.5 15t19.5 13q14 -3 36 -3.5t37 -2.5q14 -37 25 -74.5
t19 -79.5q43 0 90 5.5t80 10.5q5 0 8 1t6 1t9 -5t13 -14t12 -22.5t7 -29.5q0 -6 -1 -7.5t-8 -1.5q-18 -5 -46 -8.5t-56.5 -6.5t-53.5 -5t-36 -3v-11q0 -33 13.5 -62t30 -53.5l30.5 -45t14 -36.5q0 -17 -17 -27t-63 -19q-11 4 -17 11t-15 12v-10q-2 -2 -4.5 -2t-2.5 -4h-10
v-9q-2 -2 -3 -2t-2 -1t-2 -1v-4h-5z" />
    <glyph glyph-name="paragraph" unicode="&#xb6;" 
d="M472 122q-5 4 -9 6v3h-11l-10.5 16.5t-8.5 16.5h-12q-2 8 -3.5 13t-8.5 11q-20 0 -32 8t-20 17l-14.5 17t-13.5 8q-8 0 -18.5 -11.5t-27.5 -40.5q-20 -20 -46 -26.5t-53 -7.5q-1 -1 -1 -2t-1 -2h-7v12q-16 -4 -29 -4q-16 0 -16 9q0 11 10 28t23.5 36.5t26 40t18.5 40.5
q-11 2 -41 8.5t-62 16t-57 20.5t-25 22q9 5 16 10.5t17 8.5v5q5 3 12 5.5t11 4.5v7h14q1 6 10.5 10.5t21.5 6.5t24 3t18 1q20 0 43.5 -1.5t52.5 -1.5q27 67 39 135q8 3 8.5 7t1.5 11q7 2 14 4.5t9 9.5h11q7 10 18.5 15t19.5 13q14 -3 36 -3.5t37 -2.5q14 -37 25 -74.5
t19 -79.5q43 0 90 5.5t80 10.5q5 0 8 1t6 1t9 -5t13 -14t12 -22.5t7 -29.5q0 -6 -1 -7.5t-8 -1.5q-18 -5 -46 -8.5t-56.5 -6.5t-53.5 -5t-36 -3v-11q0 -33 13.5 -62t30 -53.5l30.5 -45t14 -36.5q0 -17 -17 -27t-63 -19q-11 4 -17 11t-15 12v-10q-2 -2 -4.5 -2t-2.5 -4h-10
v-9q-2 -2 -3 -2t-2 -1t-2 -1v-4h-5z" />
    <glyph glyph-name="macron" unicode="&#xaf;" 
d="M472 122q-5 4 -9 6v3h-11l-10.5 16.5t-8.5 16.5h-12q-2 8 -3.5 13t-8.5 11q-20 0 -32 8t-20 17l-14.5 17t-13.5 8q-8 0 -18.5 -11.5t-27.5 -40.5q-20 -20 -46 -26.5t-53 -7.5q-1 -1 -1 -2t-1 -2h-7v12q-16 -4 -29 -4q-16 0 -16 9q0 11 10 28t23.5 36.5t26 40t18.5 40.5
q-11 2 -41 8.5t-62 16t-57 20.5t-25 22q9 5 16 10.5t17 8.5v5q5 3 12 5.5t11 4.5v7h14q1 6 10.5 10.5t21.5 6.5t24 3t18 1q20 0 43.5 -1.5t52.5 -1.5q27 67 39 135q8 3 8.5 7t1.5 11q7 2 14 4.5t9 9.5h11q7 10 18.5 15t19.5 13q14 -3 36 -3.5t37 -2.5q14 -37 25 -74.5
t19 -79.5q43 0 90 5.5t80 10.5q5 0 8 1t6 1t9 -5t13 -14t12 -22.5t7 -29.5q0 -6 -1 -7.5t-8 -1.5q-18 -5 -46 -8.5t-56.5 -6.5t-53.5 -5t-36 -3v-11q0 -33 13.5 -62t30 -53.5l30.5 -45t14 -36.5q0 -17 -17 -27t-63 -19q-11 4 -17 11t-15 12v-10q-2 -2 -4.5 -2t-2.5 -4h-10
v-9q-2 -2 -3 -2t-2 -1t-2 -1v-4h-5z" />
    <glyph glyph-name="tilde" unicode="&#x2dc;" 
d="M472 122q-5 4 -9 6v3h-11l-10.5 16.5t-8.5 16.5h-12q-2 8 -3.5 13t-8.5 11q-20 0 -32 8t-20 17l-14.5 17t-13.5 8q-8 0 -18.5 -11.5t-27.5 -40.5q-20 -20 -46 -26.5t-53 -7.5q-1 -1 -1 -2t-1 -2h-7v12q-16 -4 -29 -4q-16 0 -16 9q0 11 10 28t23.5 36.5t26 40t18.5 40.5
q-11 2 -41 8.5t-62 16t-57 20.5t-25 22q9 5 16 10.5t17 8.5v5q5 3 12 5.5t11 4.5v7h14q1 6 10.5 10.5t21.5 6.5t24 3t18 1q20 0 43.5 -1.5t52.5 -1.5q27 67 39 135q8 3 8.5 7t1.5 11q7 2 14 4.5t9 9.5h11q7 10 18.5 15t19.5 13q14 -3 36 -3.5t37 -2.5q14 -37 25 -74.5
t19 -79.5q43 0 90 5.5t80 10.5q5 0 8 1t6 1t9 -5t13 -14t12 -22.5t7 -29.5q0 -6 -1 -7.5t-8 -1.5q-18 -5 -46 -8.5t-56.5 -6.5t-53.5 -5t-36 -3v-11q0 -33 13.5 -62t30 -53.5l30.5 -45t14 -36.5q0 -17 -17 -27t-63 -19q-11 4 -17 11t-15 12v-10q-2 -2 -4.5 -2t-2.5 -4h-10
v-9q-2 -2 -3 -2t-2 -1t-2 -1v-4h-5z" />
    <glyph glyph-name="uni00AD" unicode="&#xad;" 
d="M472 122q-5 4 -9 6v3h-11l-10.5 16.5t-8.5 16.5h-12q-2 8 -3.5 13t-8.5 11q-20 0 -32 8t-20 17l-14.5 17t-13.5 8q-8 0 -18.5 -11.5t-27.5 -40.5q-20 -20 -46 -26.5t-53 -7.5q-1 -1 -1 -2t-1 -2h-7v12q-16 -4 -29 -4q-16 0 -16 9q0 11 10 28t23.5 36.5t26 40t18.5 40.5
q-11 2 -41 8.5t-62 16t-57 20.5t-25 22q9 5 16 10.5t17 8.5v5q5 3 12 5.5t11 4.5v7h14q1 6 10.5 10.5t21.5 6.5t24 3t18 1q20 0 43.5 -1.5t52.5 -1.5q27 67 39 135q8 3 8.5 7t1.5 11q7 2 14 4.5t9 9.5h11q7 10 18.5 15t19.5 13q14 -3 36 -3.5t37 -2.5q14 -37 25 -74.5
t19 -79.5q43 0 90 5.5t80 10.5q5 0 8 1t6 1t9 -5t13 -14t12 -22.5t7 -29.5q0 -6 -1 -7.5t-8 -1.5q-18 -5 -46 -8.5t-56.5 -6.5t-53.5 -5t-36 -3v-11q0 -33 13.5 -62t30 -53.5l30.5 -45t14 -36.5q0 -17 -17 -27t-63 -19q-11 4 -17 11t-15 12v-10q-2 -2 -4.5 -2t-2.5 -4h-10
v-9q-2 -2 -3 -2t-2 -1t-2 -1v-4h-5z" />
    <glyph glyph-name="logicalnot" unicode="&#xac;" 
d="M472 122q-5 4 -9 6v3h-11l-10.5 16.5t-8.5 16.5h-12q-2 8 -3.5 13t-8.5 11q-20 0 -32 8t-20 17l-14.5 17t-13.5 8q-8 0 -18.5 -11.5t-27.5 -40.5q-20 -20 -46 -26.5t-53 -7.5q-1 -1 -1 -2t-1 -2h-7v12q-16 -4 -29 -4q-16 0 -16 9q0 11 10 28t23.5 36.5t26 40t18.5 40.5
q-11 2 -41 8.5t-62 16t-57 20.5t-25 22q9 5 16 10.5t17 8.5v5q5 3 12 5.5t11 4.5v7h14q1 6 10.5 10.5t21.5 6.5t24 3t18 1q20 0 43.5 -1.5t52.5 -1.5q27 67 39 135q8 3 8.5 7t1.5 11q7 2 14 4.5t9 9.5h11q7 10 18.5 15t19.5 13q14 -3 36 -3.5t37 -2.5q14 -37 25 -74.5
t19 -79.5q43 0 90 5.5t80 10.5q5 0 8 1t6 1t9 -5t13 -14t12 -22.5t7 -29.5q0 -6 -1 -7.5t-8 -1.5q-18 -5 -46 -8.5t-56.5 -6.5t-53.5 -5t-36 -3v-11q0 -33 13.5 -62t30 -53.5l30.5 -45t14 -36.5q0 -17 -17 -27t-63 -19q-11 4 -17 11t-15 12v-10q-2 -2 -4.5 -2t-2.5 -4h-10
v-9q-2 -2 -3 -2t-2 -1t-2 -1v-4h-5z" />
    <glyph glyph-name="guillemotleft" unicode="&#xab;" 
d="M472 122q-5 4 -9 6v3h-11l-10.5 16.5t-8.5 16.5h-12q-2 8 -3.5 13t-8.5 11q-20 0 -32 8t-20 17l-14.5 17t-13.5 8q-8 0 -18.5 -11.5t-27.5 -40.5q-20 -20 -46 -26.5t-53 -7.5q-1 -1 -1 -2t-1 -2h-7v12q-16 -4 -29 -4q-16 0 -16 9q0 11 10 28t23.5 36.5t26 40t18.5 40.5
q-11 2 -41 8.5t-62 16t-57 20.5t-25 22q9 5 16 10.5t17 8.5v5q5 3 12 5.5t11 4.5v7h14q1 6 10.5 10.5t21.5 6.5t24 3t18 1q20 0 43.5 -1.5t52.5 -1.5q27 67 39 135q8 3 8.5 7t1.5 11q7 2 14 4.5t9 9.5h11q7 10 18.5 15t19.5 13q14 -3 36 -3.5t37 -2.5q14 -37 25 -74.5
t19 -79.5q43 0 90 5.5t80 10.5q5 0 8 1t6 1t9 -5t13 -14t12 -22.5t7 -29.5q0 -6 -1 -7.5t-8 -1.5q-18 -5 -46 -8.5t-56.5 -6.5t-53.5 -5t-36 -3v-11q0 -33 13.5 -62t30 -53.5l30.5 -45t14 -36.5q0 -17 -17 -27t-63 -19q-11 4 -17 11t-15 12v-10q-2 -2 -4.5 -2t-2.5 -4h-10
v-9q-2 -2 -3 -2t-2 -1t-2 -1v-4h-5z" />
    <glyph glyph-name="ordfeminine" unicode="&#xaa;" 
d="M472 122q-5 4 -9 6v3h-11l-10.5 16.5t-8.5 16.5h-12q-2 8 -3.5 13t-8.5 11q-20 0 -32 8t-20 17l-14.5 17t-13.5 8q-8 0 -18.5 -11.5t-27.5 -40.5q-20 -20 -46 -26.5t-53 -7.5q-1 -1 -1 -2t-1 -2h-7v12q-16 -4 -29 -4q-16 0 -16 9q0 11 10 28t23.5 36.5t26 40t18.5 40.5
q-11 2 -41 8.5t-62 16t-57 20.5t-25 22q9 5 16 10.5t17 8.5v5q5 3 12 5.5t11 4.5v7h14q1 6 10.5 10.5t21.5 6.5t24 3t18 1q20 0 43.5 -1.5t52.5 -1.5q27 67 39 135q8 3 8.5 7t1.5 11q7 2 14 4.5t9 9.5h11q7 10 18.5 15t19.5 13q14 -3 36 -3.5t37 -2.5q14 -37 25 -74.5
t19 -79.5q43 0 90 5.5t80 10.5q5 0 8 1t6 1t9 -5t13 -14t12 -22.5t7 -29.5q0 -6 -1 -7.5t-8 -1.5q-18 -5 -46 -8.5t-56.5 -6.5t-53.5 -5t-36 -3v-11q0 -33 13.5 -62t30 -53.5l30.5 -45t14 -36.5q0 -17 -17 -27t-63 -19q-11 4 -17 11t-15 12v-10q-2 -2 -4.5 -2t-2.5 -4h-10
v-9q-2 -2 -3 -2t-2 -1t-2 -1v-4h-5z" />
    <glyph glyph-name="dieresis" unicode="&#xa8;" horiz-adv-x="435" 
d="M253 436q-8 18 -13.5 27t-9.5 16.5t-6 18t-4 31.5q-2 0 -4 4.5t-3.5 10t-3 10t-2.5 5.5q-8 -18 -22.5 -30t-23.5 -27q-10 2 -16 2v-10v-9t-2 -9q-5 0 -9 1q-11 -11 -22 -24.5t-28 -13.5q-8 0 -16.5 19.5t-16 45t-12.5 50t-5 35.5q0 10 1 14q-1 1 -2 1.5t-2 2.5q0 1 2 7
q8 -1 9.5 -1.5l4.5 -1.5q4 17 11.5 27.5t18.5 23.5l2 -2q6 12 19 14t24 2q20 0 29.5 -8t12.5 -31q5 -2 8 -2.5t5 -1.5l2 4t2 5q3 -8 6 -17t9 -13v-5q3 3 5 12t3.5 20.5l3 22.5t3.5 18q6 0 10.5 10t8.5 10q5 0 6.5 3t5.5 6h5q3 9 15 20.5t25 11.5q6 0 14 -3q0 2 2.5 3t3.5 3
q7 -8 8.5 -7.5t1.5 -5.5h3q4 10 12 10q9 0 18 -8q-1 -1 -1 -3q4 -11 14 -35t19.5 -52.5t17 -56.5t7.5 -47q0 -14 -7 -21.5t-16 -13l-18.5 -11t-14.5 -15.5h-5q-2 -6 -2 -5q-7 3 -9 6t-8 4q-2 -6 -4 -14t-4 -15q-8 3 -10 3h-8q-1 -3 -2 -7t-1 -8q-6 2 -8 3q-10 -10 -24 -10
q-3 0 -6 0.5t-7 0.5z" />
    <glyph glyph-name="grave" unicode="`" 
d="M472 122q-5 4 -9 6v3h-11l-10.5 16.5t-8.5 16.5h-12q-2 8 -3.5 13t-8.5 11q-20 0 -32 8t-20 17l-14.5 17t-13.5 8q-8 0 -18.5 -11.5t-27.5 -40.5q-20 -20 -46 -26.5t-53 -7.5q-1 -1 -1 -2t-1 -2h-7v12q-16 -4 -29 -4q-16 0 -16 9q0 11 10 28t23.5 36.5t26 40t18.5 40.5
q-11 2 -41 8.5t-62 16t-57 20.5t-25 22q9 5 16 10.5t17 8.5v5q5 3 12 5.5t11 4.5v7h14q1 6 10.5 10.5t21.5 6.5t24 3t18 1q20 0 43.5 -1.5t52.5 -1.5q27 67 39 135q8 3 8.5 7t1.5 11q7 2 14 4.5t9 9.5h11q7 10 18.5 15t19.5 13q14 -3 36 -3.5t37 -2.5q14 -37 25 -74.5
t19 -79.5q43 0 90 5.5t80 10.5q5 0 8 1t6 1t9 -5t13 -14t12 -22.5t7 -29.5q0 -6 -1 -7.5t-8 -1.5q-18 -5 -46 -8.5t-56.5 -6.5t-53.5 -5t-36 -3v-11q0 -33 13.5 -62t30 -53.5l30.5 -45t14 -36.5q0 -17 -17 -27t-63 -19q-11 4 -17 11t-15 12v-10q-2 -2 -4.5 -2t-2.5 -4h-10
v-9q-2 -2 -3 -2t-2 -1t-2 -1v-4h-5z" />
    <glyph glyph-name="quotesingle" unicode="'" 
d="M472 122q-5 4 -9 6v3h-11l-10.5 16.5t-8.5 16.5h-12q-2 8 -3.5 13t-8.5 11q-20 0 -32 8t-20 17l-14.5 17t-13.5 8q-8 0 -18.5 -11.5t-27.5 -40.5q-20 -20 -46 -26.5t-53 -7.5q-1 -1 -1 -2t-1 -2h-7v12q-16 -4 -29 -4q-16 0 -16 9q0 11 10 28t23.5 36.5t26 40t18.5 40.5
q-11 2 -41 8.5t-62 16t-57 20.5t-25 22q9 5 16 10.5t17 8.5v5q5 3 12 5.5t11 4.5v7h14q1 6 10.5 10.5t21.5 6.5t24 3t18 1q20 0 43.5 -1.5t52.5 -1.5q27 67 39 135q8 3 8.5 7t1.5 11q7 2 14 4.5t9 9.5h11q7 10 18.5 15t19.5 13q14 -3 36 -3.5t37 -2.5q14 -37 25 -74.5
t19 -79.5q43 0 90 5.5t80 10.5q5 0 8 1t6 1t9 -5t13 -14t12 -22.5t7 -29.5q0 -6 -1 -7.5t-8 -1.5q-18 -5 -46 -8.5t-56.5 -6.5t-53.5 -5t-36 -3v-11q0 -33 13.5 -62t30 -53.5l30.5 -45t14 -36.5q0 -17 -17 -27t-63 -19q-11 4 -17 11t-15 12v-10q-2 -2 -4.5 -2t-2.5 -4h-10
v-9q-2 -2 -3 -2t-2 -1t-2 -1v-4h-5z" />
    <glyph glyph-name="asciicircum" unicode="^" 
d="M472 122q-5 4 -9 6v3h-11l-10.5 16.5t-8.5 16.5h-12q-2 8 -3.5 13t-8.5 11q-20 0 -32 8t-20 17l-14.5 17t-13.5 8q-8 0 -18.5 -11.5t-27.5 -40.5q-20 -20 -46 -26.5t-53 -7.5q-1 -1 -1 -2t-1 -2h-7v12q-16 -4 -29 -4q-16 0 -16 9q0 11 10 28t23.5 36.5t26 40t18.5 40.5
q-11 2 -41 8.5t-62 16t-57 20.5t-25 22q9 5 16 10.5t17 8.5v5q5 3 12 5.5t11 4.5v7h14q1 6 10.5 10.5t21.5 6.5t24 3t18 1q20 0 43.5 -1.5t52.5 -1.5q27 67 39 135q8 3 8.5 7t1.5 11q7 2 14 4.5t9 9.5h11q7 10 18.5 15t19.5 13q14 -3 36 -3.5t37 -2.5q14 -37 25 -74.5
t19 -79.5q43 0 90 5.5t80 10.5q5 0 8 1t6 1t9 -5t13 -14t12 -22.5t7 -29.5q0 -6 -1 -7.5t-8 -1.5q-18 -5 -46 -8.5t-56.5 -6.5t-53.5 -5t-36 -3v-11q0 -33 13.5 -62t30 -53.5l30.5 -45t14 -36.5q0 -17 -17 -27t-63 -19q-11 4 -17 11t-15 12v-10q-2 -2 -4.5 -2t-2.5 -4h-10
v-9q-2 -2 -3 -2t-2 -1t-2 -1v-4h-5z" />
    <glyph glyph-name="underscore" unicode="_" horiz-adv-x="463" 
d="M434 377q-19 -18 -19 -20h1q2 0 5.5 1t6.5 1q8 0 8 -8q0 -12 -10.5 -21.5t-10.5 -13.5q0 -2 0.5 -2t0.5 -1q0 -3 -5 -3q-7 0 -12 1q-3 -3 -5 -9q-2 0 -11 -0.5t-23 -1t-31 -1t-35 -1.5q-41 -2 -92 -3h6q0 1 -74 6q-90 6 -106 27q8 25 9.5 38.5t4.5 24t11 23.5t30 39l6 -3
l3.5 3.5t2.5 4.5q5 0 21 -1t33 -2.5t30 -3.5t13 -3q0 -2 -5 -3t-5 -3t9.5 -3.5t33.5 -1.5q54 0 105.5 2t87.5 8q2 0 4 0.5t4 0.5q9 0 9 -6q0 -3 -4 -10t-4 -8h1l5 5q3 -1 11 -3q0 -7 0.5 -9.5t2 -3.5t4 -2t6.5 -4q-5 -17 -9 -17q-1 0 -1.5 1t-1.5 1q-4 0 -11 -15z" />
    <glyph glyph-name="nonbreakingspace" unicode="&#xa0;" 
d="M472 122q-5 4 -9 6v3h-11l-10.5 16.5t-8.5 16.5h-12q-2 8 -3.5 13t-8.5 11q-20 0 -32 8t-20 17l-14.5 17t-13.5 8q-8 0 -18.5 -11.5t-27.5 -40.5q-20 -20 -46 -26.5t-53 -7.5q-1 -1 -1 -2t-1 -2h-7v12q-16 -4 -29 -4q-16 0 -16 9q0 11 10 28t23.5 36.5t26 40t18.5 40.5
q-11 2 -41 8.5t-62 16t-57 20.5t-25 22q9 5 16 10.5t17 8.5v5q5 3 12 5.5t11 4.5v7h14q1 6 10.5 10.5t21.5 6.5t24 3t18 1q20 0 43.5 -1.5t52.5 -1.5q27 67 39 135q8 3 8.5 7t1.5 11q7 2 14 4.5t9 9.5h11q7 10 18.5 15t19.5 13q14 -3 36 -3.5t37 -2.5q14 -37 25 -74.5
t19 -79.5q43 0 90 5.5t80 10.5q5 0 8 1t6 1t9 -5t13 -14t12 -22.5t7 -29.5q0 -6 -1 -7.5t-8 -1.5q-18 -5 -46 -8.5t-56.5 -6.5t-53.5 -5t-36 -3v-11q0 -33 13.5 -62t30 -53.5l30.5 -45t14 -36.5q0 -17 -17 -27t-63 -19q-11 4 -17 11t-15 12v-10q-2 -2 -4.5 -2t-2.5 -4h-10
v-9q-2 -2 -3 -2t-2 -1t-2 -1v-4h-5z" />
    <glyph glyph-name="perthousand" unicode="&#x2030;" 
d="M472 122q-5 4 -9 6v3h-11l-10.5 16.5t-8.5 16.5h-12q-2 8 -3.5 13t-8.5 11q-20 0 -32 8t-20 17l-14.5 17t-13.5 8q-8 0 -18.5 -11.5t-27.5 -40.5q-20 -20 -46 -26.5t-53 -7.5q-1 -1 -1 -2t-1 -2h-7v12q-16 -4 -29 -4q-16 0 -16 9q0 11 10 28t23.5 36.5t26 40t18.5 40.5
q-11 2 -41 8.5t-62 16t-57 20.5t-25 22q9 5 16 10.5t17 8.5v5q5 3 12 5.5t11 4.5v7h14q1 6 10.5 10.5t21.5 6.5t24 3t18 1q20 0 43.5 -1.5t52.5 -1.5q27 67 39 135q8 3 8.5 7t1.5 11q7 2 14 4.5t9 9.5h11q7 10 18.5 15t19.5 13q14 -3 36 -3.5t37 -2.5q14 -37 25 -74.5
t19 -79.5q43 0 90 5.5t80 10.5q5 0 8 1t6 1t9 -5t13 -14t12 -22.5t7 -29.5q0 -6 -1 -7.5t-8 -1.5q-18 -5 -46 -8.5t-56.5 -6.5t-53.5 -5t-36 -3v-11q0 -33 13.5 -62t30 -53.5l30.5 -45t14 -36.5q0 -17 -17 -27t-63 -19q-11 4 -17 11t-15 12v-10q-2 -2 -4.5 -2t-2.5 -4h-10
v-9q-2 -2 -3 -2t-2 -1t-2 -1v-4h-5z" />
    <glyph glyph-name="bullet" unicode="&#x2022;" 
d="M472 122q-5 4 -9 6v3h-11l-10.5 16.5t-8.5 16.5h-12q-2 8 -3.5 13t-8.5 11q-20 0 -32 8t-20 17l-14.5 17t-13.5 8q-8 0 -18.5 -11.5t-27.5 -40.5q-20 -20 -46 -26.5t-53 -7.5q-1 -1 -1 -2t-1 -2h-7v12q-16 -4 -29 -4q-16 0 -16 9q0 11 10 28t23.5 36.5t26 40t18.5 40.5
q-11 2 -41 8.5t-62 16t-57 20.5t-25 22q9 5 16 10.5t17 8.5v5q5 3 12 5.5t11 4.5v7h14q1 6 10.5 10.5t21.5 6.5t24 3t18 1q20 0 43.5 -1.5t52.5 -1.5q27 67 39 135q8 3 8.5 7t1.5 11q7 2 14 4.5t9 9.5h11q7 10 18.5 15t19.5 13q14 -3 36 -3.5t37 -2.5q14 -37 25 -74.5
t19 -79.5q43 0 90 5.5t80 10.5q5 0 8 1t6 1t9 -5t13 -14t12 -22.5t7 -29.5q0 -6 -1 -7.5t-8 -1.5q-18 -5 -46 -8.5t-56.5 -6.5t-53.5 -5t-36 -3v-11q0 -33 13.5 -62t30 -53.5l30.5 -45t14 -36.5q0 -17 -17 -27t-63 -19q-11 4 -17 11t-15 12v-10q-2 -2 -4.5 -2t-2.5 -4h-10
v-9q-2 -2 -3 -2t-2 -1t-2 -1v-4h-5z" />
    <glyph glyph-name="eth" unicode="&#xf0;" 
d="M472 122q-5 4 -9 6v3h-11l-10.5 16.5t-8.5 16.5h-12q-2 8 -3.5 13t-8.5 11q-20 0 -32 8t-20 17l-14.5 17t-13.5 8q-8 0 -18.5 -11.5t-27.5 -40.5q-20 -20 -46 -26.5t-53 -7.5q-1 -1 -1 -2t-1 -2h-7v12q-16 -4 -29 -4q-16 0 -16 9q0 11 10 28t23.5 36.5t26 40t18.5 40.5
q-11 2 -41 8.5t-62 16t-57 20.5t-25 22q9 5 16 10.5t17 8.5v5q5 3 12 5.5t11 4.5v7h14q1 6 10.5 10.5t21.5 6.5t24 3t18 1q20 0 43.5 -1.5t52.5 -1.5q27 67 39 135q8 3 8.5 7t1.5 11q7 2 14 4.5t9 9.5h11q7 10 18.5 15t19.5 13q14 -3 36 -3.5t37 -2.5q14 -37 25 -74.5
t19 -79.5q43 0 90 5.5t80 10.5q5 0 8 1t6 1t9 -5t13 -14t12 -22.5t7 -29.5q0 -6 -1 -7.5t-8 -1.5q-18 -5 -46 -8.5t-56.5 -6.5t-53.5 -5t-36 -3v-11q0 -33 13.5 -62t30 -53.5l30.5 -45t14 -36.5q0 -17 -17 -27t-63 -19q-11 4 -17 11t-15 12v-10q-2 -2 -4.5 -2t-2.5 -4h-10
v-9q-2 -2 -3 -2t-2 -1t-2 -1v-4h-5z" />
    <glyph glyph-name="thorn" unicode="&#xfe;" 
d="M472 122q-5 4 -9 6v3h-11l-10.5 16.5t-8.5 16.5h-12q-2 8 -3.5 13t-8.5 11q-20 0 -32 8t-20 17l-14.5 17t-13.5 8q-8 0 -18.5 -11.5t-27.5 -40.5q-20 -20 -46 -26.5t-53 -7.5q-1 -1 -1 -2t-1 -2h-7v12q-16 -4 -29 -4q-16 0 -16 9q0 11 10 28t23.5 36.5t26 40t18.5 40.5
q-11 2 -41 8.5t-62 16t-57 20.5t-25 22q9 5 16 10.5t17 8.5v5q5 3 12 5.5t11 4.5v7h14q1 6 10.5 10.5t21.5 6.5t24 3t18 1q20 0 43.5 -1.5t52.5 -1.5q27 67 39 135q8 3 8.5 7t1.5 11q7 2 14 4.5t9 9.5h11q7 10 18.5 15t19.5 13q14 -3 36 -3.5t37 -2.5q14 -37 25 -74.5
t19 -79.5q43 0 90 5.5t80 10.5q5 0 8 1t6 1t9 -5t13 -14t12 -22.5t7 -29.5q0 -6 -1 -7.5t-8 -1.5q-18 -5 -46 -8.5t-56.5 -6.5t-53.5 -5t-36 -3v-11q0 -33 13.5 -62t30 -53.5l30.5 -45t14 -36.5q0 -17 -17 -27t-63 -19q-11 4 -17 11t-15 12v-10q-2 -2 -4.5 -2t-2.5 -4h-10
v-9q-2 -2 -3 -2t-2 -1t-2 -1v-4h-5z" />
    <glyph glyph-name="space" unicode=" " horiz-adv-x="297" 
 />
  </font>
</defs>
</svg>
